<?xml version="1.0" encoding="UTF-8" standalone="no"?>
<!-- Generator: Adobe Illustrator 15.0.0, SVG Export Plug-In . SVG Version: 6.00 Build 0)  -->

<svg
   xmlns:dc="http://purl.org/dc/elements/1.1/"
   xmlns:cc="http://creativecommons.org/ns#"
   xmlns:rdf="http://www.w3.org/1999/02/22-rdf-syntax-ns#"
   xmlns:svg="http://www.w3.org/2000/svg"
   xmlns="http://www.w3.org/2000/svg"
   xmlns:sodipodi="http://sodipodi.sourceforge.net/DTD/sodipodi-0.dtd"
   xmlns:inkscape="http://www.inkscape.org/namespaces/inkscape"
   version="1.1"
   id="Layer_1"
   x="0px"
   y="0px"
   width="595.28px"
   height="841.89px"
   viewBox="0 0 595.28 841.89"
   enable-background="new 0 0 595.28 841.89"
   xml:space="preserve"
   inkscape:version="0.91 r13725"
   sodipodi:docname="hero.svg"><metadata
     id="metadata7620"><rdf:RDF><cc:Work
         rdf:about=""><dc:format>image/svg+xml</dc:format><dc:type
           rdf:resource="http://purl.org/dc/dcmitype/StillImage" /></cc:Work></rdf:RDF></metadata><defs
     id="defs7618" /><sodipodi:namedview
     pagecolor="#ffffff"
     bordercolor="#666666"
     borderopacity="1"
     objecttolerance="10"
     gridtolerance="10"
     guidetolerance="10"
     inkscape:pageopacity="0"
     inkscape:pageshadow="2"
     inkscape:window-width="1366"
     inkscape:window-height="731"
     id="namedview7616"
     showgrid="false"
     inkscape:zoom="0.5606433"
     inkscape:cx="335.81187"
     inkscape:cy="390.88379"
     inkscape:window-x="0"
     inkscape:window-y="0"
     inkscape:window-maximized="1"
     inkscape:current-layer="Layer_1" /><g
     id="g7526"
     style="stroke-width:2.6;stroke-miterlimit:4;stroke-dasharray:none;stroke:#000000;stroke-opacity:1"><path
       fill-rule="evenodd"
       clip-rule="evenodd"
       d="M151.569,145.708c1.741,3.004,5.869,3.405,10.319,3.12   c-0.686,1.538-3.159,1.749-4.8,1.68c-2.344-0.099-6.733-1.833-6.24-4.56C151.189,145.969,151.528,145.988,151.569,145.708z"
       id="path7528"
       style="stroke-width:2.6;stroke-miterlimit:4;stroke-dasharray:none;stroke:#000000;stroke-opacity:1" /><path
       fill-rule="evenodd"
       clip-rule="evenodd"
       d="M95.889,172.829c2.434,2.063,5.338,4.458,5.76,8.16   c-1.985,0.173-2.092-2.844-3.12-4.32C97.504,175.197,95.647,174.342,95.889,172.829z"
       id="path7530"
       style="stroke-width:2.6;stroke-miterlimit:4;stroke-dasharray:none;stroke:#000000;stroke-opacity:1" /><path
       fill-rule="evenodd"
       clip-rule="evenodd"
       fill="#F9C9B8"
       d="M158.529,186.749c-2.617,6.665-4.219,17.438,0,23.76   c-2.813,5.939-3.149,14.886-1.44,20.64c-1.231-0.339-2.189-2.06-3.6-1.44c0.639,4.001,4.262,7.097,5.04,11.76   c-2.129,0.306-4.321-0.845-5.76,0.24c1.164,5.032,6.319,4.589,8.399,8.64c-1.39,1.171-3.549,1.571-4.56,3.12   c0.472,1.605,2.148,0.795,3.12,0.96c2.751,0.467,5.177,1.948,8.159,2.16c-0.892,2.948-3.971,3.709-4.8,6.72   c1.47,0.615,2.971-0.236,5.76,0c-0.938,2.342-3.17,3.39-4.319,5.521c-5.166,1.642-9.427,0.907-15.601,0.96   c-2.649-1.671-5.051-3.589-7.199-5.76c3.803-4.246,5.535-12.442,6.479-15.6c-0.277-0.811,0.17-1.024-0.24-1.44   c1.971-6.216,3.257-13.891,3.841-21.6c0.312-4.122,0.169-7.792,0.479-12c0.456-6.18,3.071-14.951,1.92-22.8   C155.345,189.005,157.293,188.234,158.529,186.749z"
       id="path7532"
       style="stroke-width:2.6;stroke-miterlimit:4;stroke-dasharray:none;stroke:#000000;stroke-opacity:1" /><path
       fill-rule="evenodd"
       clip-rule="evenodd"
       d="M166.208,217.709c-6.29,0.707-5.562-6.897-0.96-6   C167.351,212.119,169.012,216.192,166.208,217.709z"
       id="path7534"
       style="stroke-width:2.6;stroke-miterlimit:4;stroke-dasharray:none;stroke:#000000;stroke-opacity:1" /><path
       fill-rule="evenodd"
       clip-rule="evenodd"
       d="M220.208,226.829c1.514,0.397,0.85,1.776,2.4,1.68   c4.245-0.263,0.275-6.376,0.479-8.16c0.258-2.247,2.475-3.947,5.04-4.56c3.316,5.688,2.28,17.18-5.04,17.76   C222.986,232.77,216.689,230.189,220.208,226.829z M224.289,220.589c2.338,3.8,2.468,10.152-2.88,9.36   c4.962,6.774,10.27-7.842,5.521-12C225.577,218.356,225.058,219.598,224.289,220.589z"
       id="path7536"
       style="stroke-width:2.6;stroke-miterlimit:4;stroke-dasharray:none;stroke:#000000;stroke-opacity:1" /><path
       fill-rule="evenodd"
       clip-rule="evenodd"
       fill="#F9C9B8"
       d="M226.929,217.949c4.749,4.158-0.559,18.774-5.521,12   c5.348,0.792,5.218-5.56,2.88-9.36C225.058,219.598,225.577,218.356,226.929,217.949z"
       id="path7538"
       style="stroke-width:2.6;stroke-miterlimit:4;stroke-dasharray:none;stroke:#000000;stroke-opacity:1" /><path
       fill-rule="evenodd"
       clip-rule="evenodd"
       d="M196.928,229.229c-2.802,1.333-5.904,0.789-7.92-0.96   C184.895,217.051,203.216,221.447,196.928,229.229z M190.449,223.229c-2.808,3.864,3.506,7.122,6,3.36   C196.664,223.976,193.543,222.582,190.449,223.229z"
       id="path7540"
       style="stroke-width:2.6;stroke-miterlimit:4;stroke-dasharray:none;stroke:#000000;stroke-opacity:1" /><path
       fill-rule="evenodd"
       clip-rule="evenodd"
       d="M196.449,226.589c-2.494,3.762-8.808,0.503-6-3.36   C193.543,222.582,196.664,223.976,196.449,226.589z"
       id="path7542"
       style="stroke-width:2.6;stroke-miterlimit:4;stroke-dasharray:none;stroke:#000000;stroke-opacity:1" /><path
       fill-rule="evenodd"
       clip-rule="evenodd"
       d="M107.168,228.029c-2.33,3.366-4.359,6.883-6.24,10.8   c-0.672,1.398-0.267,3.625-1.2,5.04c-0.715,1.085-3.519,2.226-5.04,3.6c-0.845,0.763-0.935,1.499-2.64,1.44   c0.139-3.251,4.534-2.753,6.24-5.04c1.154-1.546,0.601-4.835,1.68-6.96c0.528-1.039,1.672-0.929,1.44-2.4   c1.482-0.469,1.221-1.441,1.68-2.64c1.413-1.089,1.962-2.558,3.36-4.08C106.836,227.721,106.862,228.016,107.168,228.029z"
       id="path7544"
       style="stroke-width:2.6;stroke-miterlimit:4;stroke-dasharray:none;stroke:#000000;stroke-opacity:1" /><path
       fill-rule="evenodd"
       clip-rule="evenodd"
       fill="#F9C9B8"
       d="M104.769,250.829c2.184,2.323,3.585,6.46,2.16,10.08   c-2.567,0.424-3.726,0.539-5.76-0.24C103.256,258.001,104.707,254.267,104.769,250.829z"
       id="path7546"
       style="stroke-width:2.6;stroke-miterlimit:4;stroke-dasharray:none;stroke:#000000;stroke-opacity:1" /><path
       fill-rule="evenodd"
       clip-rule="evenodd"
       d="M273.009,95.548c0.704-0.204-0.312-0.604,0-1.2   c0.971,1.109,0.994,3.166,2.399,3.84c1.008,2.666,1.741,5.596,2.641,8.4c0.402,1.256,1.817,2.76,1.92,4.32   c0.011,0.167-0.471,0.279-0.48,0.24c1.128,4.591,3.123,8.938,3.6,13.2c0.115,1.023-0.318,2.076-0.239,2.88   c0.274,2.788,1.418,5.785,1.68,9.12c0.291,3.714,1.124,7.405,0.96,11.04c-0.053,1.175-0.798,4.805,0,5.28   c-0.7,2.917-0.45,6.872-1.68,8.88c-0.39,3.456-0.344,6.223-1.681,7.92c0.211,0.85,0.03,0.59,0.24,1.44   c-2.564,6.287-4.566,14.019-10.56,17.28c-2.336,3.46-6.719,5.202-10.32,6.72c-2.898,2.092-8.431,2.944-14.88,2.4   c0.226,1.377,1.841,3.437,2.16,5.52c1.703,0.458,1.316-3.13,2.16-4.32c1.676,0.282,1.021,1.819,1.199,3.12   c0.577,4.176,0.961,9.271,0.24,12.72c2.36-1.24,3.18-4.021,4.32-6.48c2.666,2.811,0.582,6.597,0.96,10.56   c-1.694,2.604-1.993,5.954-3.601,8.16c2.179,0.623,3.215-1.879,4.801-2.64c0.817-0.017,0.894,0.706,1.2,1.2   c-1.254,3.614-4.301,9.783-7.2,12.48c3.046,1.554,4.785-2.216,6.96-3.12c0.987,2.647-2.065,4.542-3.36,6.48   c-0.449,0.672-0.468,1.777-0.96,2.4c-1.005,1.271-4.149,2.652-5.76,4.08c-0.446,0.396-2.358,2.025-3.84,2.4   c0.532,1.815,5.484,0.521,7.439,2.16c-2.209,3.697-5.431,4.35-9.6,6c-2.271,0.899-4.578,2.693-8.16,2.4   c1.069,2.291,3.558,3.162,5.04,5.04c-2.604,2.358-10.48,3.466-13.68,1.92c-0.04,2.214,0.68,5.514,0.479,7.68   c-2.471,0.479-3.732-2.134-5.04-3.6c-3.336,2.184-5.355,5.685-8.16,8.4c-1.039-2.001-1.602-4.479-2.64-6.48   c-3.369,1.831-4.322,6.078-8.4,7.2c-0.694-2.207,0.497-4.795-0.479-7.2c-5.519,0.826-8.093,3.115-12.96,4.56   c-0.333-1.271,0.241-4.773,0.96-6.48c0.172-0.819,1.646-1.238,0.96-2.16c-4.915-0.315-14.062,0.414-21.12,1.2   c0.747-3.092,3.079-4.601,4.8-6.72c-3.577-1.503-5.745,1.076-7.44,2.4c-0.092,1.3-2.484,2.073-2.88,3.84   c-2.213,1.086-6.525,1.601-8.16,1.44c-0.514-0.051-0.387-0.471-0.239-0.48c-2.252,0.13-4.432,1.232-6.721,0.48   c-0.429-0.141-0.52-0.151-0.479-0.72c-0.225,0.176-0.363,0.436-0.48,0.72c-3.375-1.505-5.886-3.874-8.64-6   c-1.036,0.324-1.657,1.063-2.16,1.92c-6.911,2.463-16.204,2.832-22.32,2.16c-6.398,0.464-11.984-4.005-15.84-7.68   c-3.967,4.776-14.697,7.949-20.88,3.6c-0.646-1.403-5.362-1.734-5.52-3.6c-2.628-0.191-5.051-3.411-7.44-5.52   c-2.296-2.027-6.186-7.26-4.32-12.24c-1.001-3.321,2.76-7.285,5.76-9.84c-10.913-11.507-21.062-25.154-28.56-40.8   c-0.284-0.356-0.907-0.374-1.2-0.72c-6.521-12.705-13.264-23.836-17.04-37.92c-1.136-9.113-4.073-19.562-3.6-30.24   c0.457-10.32,3.056-22.387,5.28-32.16c-1.316-4.02,1.769-6.762,4.08-8.64c-1.234-4.486,1.661-6.914,5.28-7.92   c0.507-2.773,1.469-5.091,4.56-5.28c0.466-1.791,1.598-3.328,3.84-4.08c5.396,0.851,3.835,7.5,3.36,11.28   c1.285-0.33,2.277-0.214,3.12,0c3.746-20.414,14.065-34.254,29.28-43.2c1.448-2.232,4.906-2.454,6.72-4.32   c1.825,0.204,3.377-1.653,5.28-1.2c5.433-3.441,12.671-1.506,18.721-0.24c3.56-2.52,7.896-4.263,12-6.24   c3.999,0.079,8.091-1.846,12.72-2.4c3.379-0.404,7.191-0.512,11.04-0.72c5.185-0.28,10.506-1.02,15.12-0.96   c6.537,0.084,10.444,1.347,16.8,1.68c-0.046,0.194-0.241,0.239-0.24,0.48c1.028-0.526,1.744,0.417,3.12,0.24   c0.105,0.898,1.06-0.177,0.48,0.72c3.154,0.449,8.814,1.647,11.52,3.36c4.02,0.094,8.205,3.003,11.76,3.6   c0.711,0.649,1.517,1.204,2.881,1.2c1.542,1.337,4.32,1.439,5.52,3.12c3.023,0.554,4.932,2.521,7.44,3.12   c0.771,1.229,2.085,1.915,3.6,2.4c5.903,5.491,15.104,11.28,21.36,18.48c3.972,2.128,6.888,5.443,9.84,8.16   c1.762,1.622,2.94,3.654,4.8,5.28c0.144,0.125,0.771,0.283,0.96,0.48c2.461,2.555,3.802,6.186,6.48,8.4   c2.593,3.646,4.894,7.586,7.439,11.28c0.102,0.501-0.164,0.635-0.24,0.96c1.085-0.66-0.054,1.11,1.2,0.72   c-0.328,0.622-0.775,0.754,0.24,0.48c-0.666,0.795-0.252,0.545,0.48,1.2C272.892,94.415,272.533,95.095,273.009,95.548z    M124.928,216.269c2.976-1.793,5.413-4.822,7.2-7.44c4.896-2.703,7.336-7.864,12.24-10.56c2.874-3.686,6.045-7.075,10.32-9.36   c2.389-2.958,5.838-5.75,8.64-7.92c0.938-0.726,1.996-0.756,3.12-1.44c1.388-0.845,2.4-1.858,3.84-2.64   c0.628-0.341,1.268-0.638,1.92-0.96c0.737-0.365,1.708-0.587,2.4-0.96c2.928-1.579,5.606-3.553,9.12-4.32   c4.791-1.046,8.887,0.377,12.479,1.439c4.287,1.268,8.101,3.13,11.28,4.561c1.427,0.642,2.836,1.324,4.32,2.16   c3.244,1.827,6.596,3.252,8.88,5.28c3.841,0.799,7.07,4.289,11.28,5.52c-0.037,0.597,0.377,0.743,0.479,1.2   c2.081,0.735,2.321,1.431,4.8,2.4c4.297,1.68,5.843,1.563,9.601,3.12c3.097-0.777,6.999,0.024,10.319-0.72   c2.543-0.57,4.286-2.32,6.721-2.88c0.556-0.404,0.588-1.331,1.199-1.68c1.127,0.559,1.933-1.262,3.36-1.2   c4.334-5.272,11.091-10.39,11.521-18c2.348-2.719,1.762-8.739,3.359-11.76c-0.315-1.486,0.022-3.055,0.721-4.08   c-0.107-2.894,0.062-5.905,0-8.88c-0.256-12.23-3.052-27.508-6.721-40.08c-1.483-5.083-4.614-9.68-6.24-14.4   c-2.423-3.656-4.784-7.375-6.96-11.28c-5.515-5.305-7.657-11.218-13.92-15.36c-4.782-5.458-10.475-10.005-16.319-14.4   c-5.978-5.922-14.21-11.949-20.641-15.84c-15.83-7.302-33.706-14.734-53.76-16.08c-9.013-0.605-18.339,0.978-28.08,1.44   c-7.298,1.66-18.854,3.528-24.96,9.12c-2.901-1.231-6.522-0.349-9.36-1.44c-7.374,0.92-13.329,2.914-18.48,6   c-4.908,2.941-9.442,6.291-13.44,9.6c-2.813,2.33-4.303,5.723-6.48,8.4c0.315,0.745-0.065,0.685,0,1.68   c-1.85,1.505-2.831,3.828-4.08,6.24c-2.317,4.474-3.652,7.95-4.08,12.96c-5.013,7.184-0.929,22.455,3.6,29.76   c0.08-6.402,0.283-10.615,1.44-15.84c1.657-4.399,3.448-8.442,5.28-13.44c0.548-0.332,1.212-0.547,0.96-1.68   c1.894-1.822,3.135-4.581,4.8-7.2c1.655-0.378,1.927-2.03,2.88-3.12c2.652-3.032,6.818-4.749,10.56-6.72   c0.555-0.19,0.795-0.201,1.92-0.24c2.383-2.45,3.076-4.047,4.56-7.44c0.594-0.565,0.938,0.472,1.2,0.96   c-1.187,2.253-2.162,4.718-3.6,6.72c2.279,0.362,4.372,0.909,5.76,2.16c-2.433,2.92-4.507-0.71-6.72-0.96   c-3.597-0.405-7.931,2.473-10.56,4.56c-2.426,1.926-3.741,4.988-6.24,6.24c-4.536,7.732-8.544,15.696-10.56,24.96   c-0.961,4.418,0.255,8.943,0,13.44c-0.19,3.343-0.371,6.262,0,9.36c0.248,2.073,0.958,4.006,1.2,6   c0.168,1.391-0.205,2.41,0.72,3.84c0.033,3.162,1.921,4.715,3.36,7.2c0.917,1.584,1.736,3.074,2.64,4.56   c1.845,3.031,3.441,6.5,5.28,9.12c1.949,2.776,4.69,4.95,6.48,7.68c2.27,3.46,4.754,7.466,5.28,11.52   c1.745,2.223,3.956,6.84,5.76,10.32c0.305,0.588-0.071,1.398,0,2.16c0.137,1.472,0.875,2.983,0.96,4.32   c0.123,1.915,0.246,3.212,0.72,5.04c0.79,3.044,1.006,6.979,2.16,9.84c0.193,0.479,0.596,0.687,0.72,1.2   c0.206,0.852,0.022,3.239,0,3.12c0.153,0.822,0.815,1.591,0.96,2.4c0.249,1.391-0.315,3.605,1.44,4.32   c0.889-2.429,4.112-6.146,5.76-9.36c0.325-0.076,0.458-0.342,0.96-0.24c-0.161-1.384,2.13-2.933,1.68-3.84   c2.61-3.326,4.645-6.335,6.959-9.84c1.233-1.867,2.397-4.683,4.561-6.24c0-0.4,0-0.8,0-1.2c2.694-2.482,3.781-6.238,6.24-8.4   c0.033-0.926,0.811-1.109,0.72-2.16c4.859-5.061,8.504-11.336,12.72-17.04c0.021-0.86,0.373-1.387,0.48-2.16   c4.305-4.256,6.976-8.329,10.8-12.24c2.357-0.682,3.562-2.518,5.76-3.36c3.327-11.907-1.852-20.43-4.319-31.68   c-3.493-7.205-8.117-12.729-13.2-18c-1.191-1.235-2.188-2.649-3.36-3.84c-1.245-1.266-3.247-1.745-3.84-3.6   c8.648,4.753,13.416,13.286,19.2,19.68c1.898-2.95,4.438-6.269,4.319-10.32c-0.025-0.877-0.674-1.875-0.72-2.88   c-0.08-1.755,0.67-3.779,0.48-5.52c-0.201-1.842-1.522-3.468-1.44-5.28c-0.456-0.743-1.295-1.562-0.72-2.64   c2.186,1.516,2.221,5.71,3.6,8.64c-0.447,1.271-0.479,2.455-0.479,4.8c1.684,5.428-1.293,12.312-4.801,15.36   c0.606,0.442,1.579,1.712,1.681,3.36c8.362-1.121,14.367-5.28,18.96-10.8c-1.299,5.582-6.599,7.161-10.32,10.32   c-2.986,0.813-5.185,1.014-7.68,2.4c2.576,9.487,6.79,17.936,4.56,29.04c4.249-1.225,8.225-2.852,12.48-2.4   c2.804-1.564,5.899-2.229,8.399-3.6c1.87-2.45,4.302-4.338,6.48-6.48c0.467-0.813,0.407-2.153,1.68-2.16   c-1.964,5.262-7.509,10.218-12.72,12.24c3.115,0.249,5.649,0.157,8.64,0.48c0.835,0.09,2.046,0.098,2.641,0.24   c0.261,0.062,0.656,0.688,0.96,0.72c-0.158-0.017,0.339-0.476,0.72-0.48c3.946-0.047,7.998,2.398,12,3.12   c3.832,0.691,6.34,1.014,10.08,1.44c6.569,2.683,12.746,4.719,19.2,5.28c3.496,0.304,6.596,0.676,9.6-0.96   c1.24-1.24,1.908-3.052,2.88-4.56c0.045,0.355,0.58,0.22,0.96,0.24c-2.023,10.909-17.856,5.886-26.64,4.08   c-13.123-4.095-25.711-7.808-40.561-8.4c-13.408-0.535-22.383,4.454-28.8,11.76c-1.459,1.662-2.444,3.907-3.84,5.76   c-1.501,1.994-2.712,3.903-4.08,6c-2.893,4.437-6.769,8.49-9.84,13.2c-3.463,5.31-7.343,10.712-10.8,15.6   c-3.225,4.56-5.936,9.68-9.12,14.16c-3.84,5.403-7.574,10.567-10.56,15.84c-3.057,6.543-7.143,12.058-11.04,17.76   c-3.517,1.843-7.63,3.089-11.52,4.56c-1.09,1.848-3.165,2.451-4.56,4.56c-3.519,5.321-1.818,13.707,3.12,16.56   c-0.167,0.423-0.265,0.743,0,0.96c3.931,1.655,5.96,5.987,11.52,6.96c-0.332,0.904,3.496,1.891,3.84,2.88   c1.087,0.179-0.367-0.659,0.72-0.48c2.142,1.102,5.102-0.438,6.48,0.72c1.866-1.569,4.542-1.679,5.52-3.12   c6.857-2.604,8.439-12.513,6.72-22.08c4.591-6.769,11.288-11.433,15.6-18.48c1.949-1.571,3.879-3.161,5.521-5.04   c0.553-0.864,1.219-0.188,1.68-0.96C125.116,216.722,124.84,216.677,124.928,216.269z M40.928,140.429   c-1.239-1.505-2.632-3.382-3.36-5.28c-1.611-4.201,5.737-9.062,9.84-9.6c0.376-0.744,0.667-1.573,1.44-1.92   c-0.001,0.133,0.194,0.272,0.24,0c4.042-7.165-2.68-12.655-5.04-18.96c-2.068-5.524-2.368-11.145-2.4-17.04   c-0.019-3.49-0.614-6.772-0.24-10.08c0.372-3.29,2.376-4.604,0.48-8.88c-5.47-1.773-4.789,6.123-5.52,8.4   c-0.904-1.123,0.368-3.116-0.72-4.56c-3.509,0.765-1.668,5.989-3.84,8.4c-0.583-1.067-0.31-2.047-0.48-3.12   c-2.972,0.495-5.021,3.678-2.88,6c-0.438,0.692-0.389,0.75-0.24,1.68c0.332,0.388,0.849,0.591,0.72,1.44   c-0.355,0.125-0.604,0.355-0.96,0.48c-0.872-0.169-0.852-1.228-1.68-1.44c-1.248,1.072-2.408,2.232-3.12,3.84   c-0.226,1.346,0.487,1.753,0.72,2.64c-0.021,0.378-0.612,0.188-0.48,0.72c-0.053,0.773,0.425,1.016,0.24,1.92   c-3.827,12.072-4.294,22.246-4.8,33.36c0.103,3.169,1.218,6.166,1.2,9.12c-0.046,7.72,2.171,14.108,4.32,21.6   c1.197,4.171,2.032,8.19,3.84,12c2.759,5.813,7.017,13.028,9.6,17.76c1.601,2.933,2.805,5.248,3.84,7.92   c1.42,1.079,2.661,2.794,2.4,4.8c3.67,3.667,6.438,10.192,8.88,14.16c3.573,2.762,5.117,6.731,8.4,8.88   c1.969,3.311,5.195,5.365,6.96,8.88c0.755,0.12,0.938-0.523,1.44,0c0.814-1.584,1.972-1.363,3.6-1.68   c4.147-0.808,5.768-3.233,9.12-5.52c1.339-4.581,5.117-6.723,6.479-11.28c0.611-0.27,1.171-0.589,1.68-0.96   c-0.18-1.777,0.787-2.654,1.44-4.32c-0.375-0.881-0.201-0.919-0.72-1.44c-0.275-4.211-1.666-7.547-2.16-12.48   c-0.968-2.454-2.271-5.644-1.68-7.68c-0.782-0.177-0.722-1.198-0.96-1.92c-3.099-3.7-6.272-7.328-9.36-11.04   c-2.21-1.07-3.572-2.988-5.04-4.8c-8.128-6.592-14.797-14.643-22.56-21.6c-0.755,0.115-0.938-0.342-1.44-0.48   c-0.704-2.016-2.787-2.653-3.84-4.32c-0.128-0.346,0.935-0.586,0.24-0.72c-0.243,0.676-1.019-0.066-1.44,0   C42.769,141.835,41.703,141.368,40.928,140.429z M55.809,119.309c-0.014,0.146-0.036,0.284-0.24,0.24   c-2.833-4.305-5.199-9.268-5.04-14.88c-0.696-2.109-1.5-3.758-1.92-6.24c-0.247-1.459,0.062-3.275-0.24-5.04   c-0.701-4.09-2.58-8.244-1.92-12.24c-0.206-0.766,0.378-0.742,0.48-1.2c-0.704-0.255-0.962-0.957-1.92-0.96   c-0.61,0.67-1.116,1.444-1.68,2.16c-0.471,7.318-0.031,16.242,2.16,23.76c2.295,2.345,3.405,5.875,5.28,8.64   c1.789,4.197,1.686,11.153-2.64,12.479c-1.939,3.216-9.389,2.905-8.88,9.36c1.567,2.409,3.186,5.146,5.52,7.44   c1.272,1.251,3.934,2.695,3.6,4.08c5.83,3.05,9.347,8.413,14.16,12.48c1.424,2.172,2.218,2.26,3.84,3.84   c-0.293,0.027-0.568,0.072-0.48,0.48c1.692-0.469,2.51,2.284,3.6,3.12c0.396,0.303,1.046,0.119,1.44,0.48   c0.787,0.722,0.9,1.766,1.92,2.64c0.167,0.143,0.982,0.466,1.2,0.72c-0.062-0.073-0.6,0.14-0.48,0.24   c0.19,0.159,0.743-0.127,0.96,0c0.994,0.581,1.671,2.125,1.68,2.4c1.795,1.133,3.946,3.028,4.56,4.56   c1.293,0.79,2.641,2.511,3.36,4.32c1.165-0.738,0.839,0.948,1.92,0.96c-1.107-11.876-6.339-17.709-10.56-27.6   c-2.304-1.851-3.099-4.489-5.28-6.48c-2.434-2.222-6.263-3.353-9.36-5.04c-1.604-0.874-2.944-2.132-4.08-2.64   c-2.872-1.284-5.407-2-6.24-5.04c0.28-0.041,0.261-0.379,0.24-0.72c2.253-0.947,4.431-1.969,6-3.6   c0.038-1.082,0.042-2.197,0.96-2.4C56.516,126.603,55.314,122.163,55.809,119.309z M54.608,114.749   c-0.723-1.962,0.411-5.195-0.48-8.4c-0.357-1.286-1.783-2.12-2.4-3.12c-0.426-0.689,0.386-1.297-0.72-1.2   C52.128,105.568,52.228,110.884,54.608,114.749z M52.448,136.589c-0.649,1.619,1.756,1.803,2.16,3.12   c5.333,0.781,8.838,5.432,12.72,5.52c-2.657-4.377-5.828-9.472-8.88-14.16C57.696,133.303,55.998,135.924,52.448,136.589z    M229.809,190.349c-0.014,0.146-0.036,0.284-0.24,0.24c-2.11-1.57-4.072-3.288-6.96-4.08c-0.029-0.691-1.023-0.417-0.96-1.2   c-7.963-3.466-15.317-8.999-24.24-11.76c-3.154-0.976-6.961-2.229-10.56-1.92c-4.855,0.417-7.555,3.213-11.761,5.04   c-3.971,1.724-7.434,3.771-10.08,5.52c-0.952,0.629-1.878,0.73-2.399,1.2c-1.651,1.488-2.917,5.173-3.601,7.44   c-0.695,2.31-2.013,5.195-2.16,7.44c-0.068,1.05,0.812,3.296,0.721,4.08c-0.348,2.949,1.101,4.626,2.16,6.96   c0.66,1.456-0.812,3.655-1.2,5.28c-1.706,7.125-1.39,12.097,0.72,18.48c0.892-0.092,0.628,0.973,1.68,0.72   c0.224-2.175-0.131-3.76,1.681-4.56c2.245,1.914,2.852,5.468,4.8,7.68c0.714-1.525,0.78-3.699,2.16-4.56   c2.854,3.262,3.506,7.457,6.96,9.84c0.409,1.991,2.151,2.648,3.12,4.08c-0.881-2.971-1.22-7.727-1.92-10.08   c0.453-0.027,0.166-0.793,0.72-0.72c2.855,1.625,3.765,5.195,6.72,6.72c1.424,3.536,3.618,6.302,6.96,7.92   c0.483-2.877-0.062-6.783,1.2-8.88c2.584,2.696,5.053,5.507,7.92,7.92c-0.258-5.498,0.883-9.967,0-14.16   c0.325-0.475,0.667-0.934,1.68-0.72c1.79,2.052,3.574,5.386,5.04,6.96c0.554-2.518-0.489-5.89-0.479-9.12   c0.003-0.992-0.216-2.608,0.96-3.12c2.855,2.264,3.334,6.906,6.48,8.88c1.303-3.916-1.23-7.061,0.96-9.84   c0.674,0.766,0.823,2.056,1.199,3.12c2.623,3.856,11.176,5.104,13.681,0.24c1.744-6.678-0.167-13.524-3.12-18   c0.419-0.221,0.529-0.75,0.479-1.44c1.504,0.471,2.928,2.008,4.32,1.2c0.652-3.938-0.165-9.824,0.72-13.44   c2.112-0.423,1.381,3.834,3.84,3.84c1.25-2.242,1.409-6.129,1.921-8.4C235.385,194.189,231.35,192.518,229.809,190.349z    M154.208,190.589c1.151,7.849-1.464,16.62-1.92,22.8c-0.311,4.208-0.168,7.878-0.479,12c-0.584,7.709-1.87,15.384-3.841,21.6   c0.41,0.416-0.037,0.629,0.24,1.44c-0.944,3.158-2.677,11.354-6.479,15.6c2.148,2.171,4.55,4.089,7.199,5.76   c6.174-0.053,10.435,0.682,15.601-0.96c1.149-2.13,3.382-3.178,4.319-5.521c-2.789-0.236-4.29,0.615-5.76,0   c0.829-3.011,3.908-3.772,4.8-6.72c-2.982-0.212-5.408-1.693-8.159-2.16c-0.972-0.165-2.648,0.646-3.12-0.96   c1.011-1.549,3.17-1.949,4.56-3.12c-2.08-4.051-7.235-3.607-8.399-8.64c1.438-1.085,3.631,0.066,5.76-0.24   c-0.778-4.663-4.401-7.758-5.04-11.76c1.41-0.62,2.368,1.101,3.6,1.44c-1.709-5.754-1.373-14.701,1.44-20.64   c-4.219-6.323-2.617-17.096,0-23.76C157.293,188.234,155.345,189.005,154.208,190.589z M106.928,251.549   c0.014-0.146,0.036-0.284,0.24-0.24c2.299,2.611,2.801,9.894-0.96,11.28c-1.359-0.127-1.521-0.127-2.88,0   c3.285,2.041,6.728,5.461,11.04,5.76c2.675,0.186,5.792-0.752,8.88-0.48c4.531,0.4,8.693-1.134,12.72-1.44   c1.914-1.274,3-1.994,4.801-4.08c4.05-4.693,4.723-10.34,6.239-16.8c1.164-4.953,2.331-9.557,2.88-14.4   c1.221-10.765,0.909-22.015,3.36-32.16c-1.069-1.926,0.193-4.371,0-7.44c-1.398-0.039-1.352,1.369-2.64,1.44   c-2.806,3.824-5.965,6.037-9.601,9.36c-2.022,1.849-3.752,4.189-5.76,6c-1.443,1.302-3.214,2.212-4.56,3.6   c-0.647,0.667-0.809,1.711-1.44,2.4c-0.975,1.063-2.515,1.6-3.6,2.64c-1.32,1.264-2.057,3.391-4.08,3.84   c-3.732,5.868-9.326,9.875-13.2,15.6c2.15,4.684,4.444,7.74,7.2,11.76c0.826,0.539,2.793,1.381,1.439,2.64   c-4.521-3.079-6.266-8.934-9.6-13.2C102.276,240.012,104.63,248.508,106.928,251.549z M254.529,222.989   c1.451-2.937,1.934-6.814,2.4-9.6c-0.331,0.764-0.238-0.848-0.24-1.2c-2.346,1.334-3.308,4.052-5.28,5.76   c-0.493-0.067-0.479-0.641-0.72-0.96c1.049-4.73,1.329-8.122,0.479-13.44c-1.404,0.675-1.433,2.727-2.88,3.36   c-0.847-0.339-0.757-1.318-0.24-1.92c-0.228-2.798-1.494-4.952-2.88-7.68c-2.36,0.201-2.723-1.597-5.04-1.44   c-0.579,3.255-1.405,7.029-2.64,9.6c-1.871-0.128-2.064-1.936-3.12-2.88c-0.808,4.084-0.35,8.054-0.72,11.76   c-1.168,0.943-2.584,0.079-3.84-0.24c2.276,4.911,5.739,16.271,0.239,20.4c-2.679,2.012-6.192,2.261-9.84,0.96   c-0.881-1.279-2.232-2.087-3.6-2.88c-0.209,3.215,0.242,6.417-1.92,7.2c-2.856-1.864-3.311-6.129-6-8.16   c-0.154,4.603,1.625,8.489-0.24,12.72c-2.049-2.111-2.9-5.419-5.521-6.96c-0.403,4.685-0.812,9.408-0.239,13.44   c-3.129,1.674-6.325-6.18-8.641-6.48c-0.165,2.217-0.234,5.581-0.96,7.92c-6.87-2.065-8.993-9.419-13.439-13.2   c0.026,4.48,0.976,6.247,1.68,10.32c-2.27,0.1-3.149-2.458-4.32-3.84c-1.284-1.517-2.797-2.97-3.84-4.56   c-1.231-1.878-1.843-4.309-3.84-5.52c-0.729,1.27-0.038,3.962-1.68,4.32c-2.983-1.907-3.273-5.037-5.28-7.92   c-0.255,1.953,0.421,3.357-0.48,4.56c-2.215-1.146-3.788-4.21-6.239-4.32c1.513,3.367,3.6,6.16,4.56,10.08   c-1.435,0.857-3.084,0.782-5.04,0.48c1.828,3.372,6.508,3.893,8.16,7.44c-0.839,1.241-2.54,1.62-3.6,2.64   c3.647,1.312,8.883,1.037,11.279,3.6c-1.546,2.054-3.743,3.457-5.279,5.52c4.083,0.226,8.434-0.611,12.239,0.48   c-1.501,2.499-4.133,3.867-5.52,6.48c7.065-0.406,14.385-1.299,21.12-0.72c0.729,1.373-0.81,2.33-1.68,2.88   c-0.337,2.181-0.457,3.33-0.961,5.04c4.146-0.509,8.41-4.479,13.44-4.56c-0.357,2.494,0.102,4.436-0.24,7.2   c3.707-1.494,4.885-5.516,8.16-7.44c0.711,1.922,1.533,4.005,2.641,6.24c2.562-2.479,4.297-5.783,7.68-7.44   c1.204,1.116,2.188,2.452,3.6,3.36c-0.158-2.481-0.395-4.885-1.2-6.72c1.235-2.011,3.852-0.242,6.24,0   c2.83,0.287,4.812-0.535,6.721-1.68c-1.494-1.466-3.259-2.661-4.561-4.32c1.146-2.265,3.991-1.809,6.72-2.4   c4.274-0.927,8.644-3.077,10.801-5.52c-1.961-1.008-6.361,0.025-6.721-3.6c1.847-0.713,2.79-2.33,5.04-2.64   c0.648-1.003,0.72-1.212,1.92-1.44c1.364-1.77,5.007-3.774,4.561-5.76c-1.178-0.025-2.554,0.295-4.561,0.24   c-0.229-0.965-0.173-0.95,0-2.16c2.678-2.624,5.889-6.316,6.24-10.56c-1.036,1.111-2.855,1.645-4.8,1.44   C251.853,225.851,253.751,224.562,254.529,222.989z M101.168,260.669c2.034,0.778,3.193,0.664,5.76,0.24   c1.426-3.62,0.024-7.757-2.16-10.08C104.707,254.267,103.256,258.001,101.168,260.669z"
       id="path7548"
       style="stroke-width:2.6;stroke-miterlimit:4;stroke-dasharray:none;stroke:#000000;stroke-opacity:1" /><path
       fill-rule="evenodd"
       clip-rule="evenodd"
       fill="#F9C9B8"
       d="M125.409,216.749c-0.461,0.772-1.127,0.096-1.68,0.96   c-1.642,1.879-3.571,3.469-5.521,5.04c-4.312,7.047-11.009,11.711-15.6,18.48c1.719,9.566,0.137,19.476-6.72,22.08   c-0.978,1.441-3.654,1.551-5.52,3.12c-1.378-1.158-4.338,0.382-6.48-0.72c-1.087-0.179,0.367,0.659-0.72,0.48   c-0.344-0.99-4.172-1.977-3.84-2.88c-5.56-0.973-7.589-5.305-11.52-6.96c-0.265-0.217-0.167-0.537,0-0.96   c-4.938-2.853-6.639-11.239-3.12-16.56c1.395-2.109,3.47-2.712,4.56-4.56c3.89-1.47,8.003-2.716,11.52-4.56   c3.897-5.703,7.983-11.217,11.04-17.76c2.986-5.273,6.72-10.437,10.56-15.84c3.184-4.48,5.896-9.601,9.12-14.16   c3.457-4.888,7.337-10.291,10.8-15.6c3.071-4.71,6.947-8.764,9.84-13.2c1.368-2.097,2.579-4.006,4.08-6   c1.396-1.853,2.381-4.098,3.84-5.76c6.417-7.306,15.392-12.295,28.8-11.76c14.85,0.593,27.438,4.306,40.561,8.4   c8.783,1.806,24.616,6.829,26.64-4.08c-0.38-0.02-0.915,0.115-0.96-0.24c-0.972,1.508-1.64,3.32-2.88,4.56   c-3.004,1.636-6.104,1.264-9.6,0.96c-6.454-0.561-12.631-2.597-19.2-5.28c-3.74-0.426-6.248-0.749-10.08-1.44   c-4.002-0.722-8.054-3.167-12-3.12c-0.381,0.004-0.878,0.463-0.72,0.48c-0.304-0.032-0.699-0.658-0.96-0.72   c-0.595-0.142-1.806-0.149-2.641-0.24c-2.99-0.323-5.524-0.231-8.64-0.48c5.211-2.022,10.756-6.978,12.72-12.24   c-1.272,0.007-1.213,1.347-1.68,2.16c-2.179,2.142-4.61,4.03-6.48,6.48c-2.5,1.371-5.596,2.036-8.399,3.6   c-4.256-0.452-8.231,1.175-12.48,2.4c2.23-11.104-1.983-19.553-4.56-29.04c2.495-1.386,4.693-1.587,7.68-2.4   c3.722-3.159,9.021-4.739,10.32-10.32c-4.593,5.521-10.598,9.68-18.96,10.8c-0.102-1.648-1.074-2.918-1.681-3.36   c3.508-3.049,6.484-9.933,4.801-15.36c0-2.345,0.032-3.529,0.479-4.8c-1.379-2.93-1.414-7.124-3.6-8.64   c-0.575,1.078,0.264,1.897,0.72,2.64c-0.082,1.812,1.239,3.438,1.44,5.28c0.189,1.741-0.561,3.765-0.48,5.52   c0.046,1.005,0.694,2.002,0.72,2.88c0.118,4.052-2.421,7.371-4.319,10.32c-5.784-6.395-10.552-14.927-19.2-19.68   c0.593,1.855,2.595,2.334,3.84,3.6c1.172,1.19,2.169,2.604,3.36,3.84c5.083,5.271,9.707,10.795,13.2,18   c2.468,11.25,7.646,19.773,4.319,31.68c-2.197,0.842-3.402,2.678-5.76,3.36c-3.824,3.912-6.495,7.984-10.8,12.24   c-0.107,0.773-0.46,1.3-0.48,2.16c-4.216,5.704-7.86,11.979-12.72,17.04c0.091,1.051-0.687,1.234-0.72,2.16   c-2.459,2.162-3.546,5.918-6.24,8.4c0,0.4,0,0.8,0,1.2c-2.163,1.558-3.327,4.374-4.561,6.24c-2.314,3.505-4.349,6.514-6.959,9.84   c0.45,0.907-1.841,2.456-1.68,3.84c-0.501-0.102-0.635,0.165-0.96,0.24c-1.648,3.214-4.872,6.931-5.76,9.36   c-1.755-0.715-1.191-2.929-1.44-4.32c-0.145-0.809-0.807-1.578-0.96-2.4c0.022,0.119,0.206-2.268,0-3.12   c-0.124-0.514-0.527-0.722-0.72-1.2c-1.154-2.861-1.371-6.795-2.16-9.84c-0.474-1.828-0.597-3.125-0.72-5.04   c-0.085-1.336-0.823-2.848-0.96-4.32c-0.071-0.762,0.305-1.572,0-2.16c-1.804-3.48-4.015-8.098-5.76-10.32   c-0.526-4.053-3.011-8.06-5.28-11.52c-1.79-2.73-4.531-4.904-6.48-7.68c-1.839-2.62-3.435-6.089-5.28-9.12   c-0.904-1.486-1.723-2.976-2.64-4.56c-1.438-2.485-3.327-4.039-3.36-7.2c-0.925-1.43-0.552-2.449-0.72-3.84   c-0.241-1.994-0.952-3.927-1.2-6c-0.371-3.098-0.19-6.017,0-9.36c0.255-4.497-0.961-9.022,0-13.44   c2.016-9.265,6.024-17.229,10.56-24.96c2.499-1.252,3.813-4.314,6.24-6.24c2.629-2.087,6.963-4.965,10.56-4.56   c2.213,0.25,4.288,3.88,6.72,0.96c-1.389-1.251-3.481-1.798-5.76-2.16c1.438-2.001,2.413-4.467,3.6-6.72   c-0.262-0.488-0.606-1.525-1.2-0.96c-1.484,3.393-2.177,4.99-4.56,7.44c-1.125,0.039-1.365,0.05-1.92,0.24   c-3.742,1.971-7.908,3.688-10.56,6.72c-0.953,1.09-1.225,2.742-2.88,3.12c-1.665,2.619-2.906,5.377-4.8,7.2   c0.252,1.133-0.412,1.348-0.96,1.68c-1.832,4.998-3.623,9.041-5.28,13.44c-1.157,5.226-1.36,9.438-1.44,15.84   c-4.529-7.306-8.613-22.576-3.6-29.76c0.428-5.01,1.763-8.486,4.08-12.96c1.25-2.413,2.23-4.735,4.08-6.24   c-0.065-0.995,0.315-0.935,0-1.68c2.177-2.677,3.667-6.071,6.48-8.4c3.998-3.31,8.532-6.659,13.44-9.6   c5.151-3.086,11.106-5.08,18.48-6c2.838,1.091,6.459,0.209,9.36,1.44c6.106-5.592,17.662-7.46,24.96-9.12   c9.741-0.462,19.067-2.045,28.08-1.44c20.054,1.346,37.93,8.778,53.76,16.08c6.431,3.891,14.663,9.917,20.641,15.84   c5.845,4.395,11.537,8.942,16.319,14.4c6.263,4.142,8.405,10.056,13.92,15.36c2.176,3.904,4.537,7.624,6.96,11.28   c1.626,4.72,4.757,9.317,6.24,14.4c3.669,12.572,6.465,27.85,6.721,40.08c0.062,2.976-0.107,5.986,0,8.88   c-0.698,1.025-1.036,2.594-0.721,4.08c-1.598,3.021-1.012,9.042-3.359,11.76c-0.43,7.61-7.187,12.728-11.521,18   c-1.428-0.062-2.233,1.759-3.36,1.2c-0.611,0.349-0.644,1.276-1.199,1.68c-2.435,0.561-4.178,2.311-6.721,2.88   c-3.32,0.744-7.223-0.057-10.319,0.72c-3.758-1.557-5.304-1.44-9.601-3.12c-2.479-0.969-2.719-1.665-4.8-2.4   c-0.103-0.457-0.517-0.603-0.479-1.2c-4.21-1.231-7.439-4.721-11.28-5.52c-2.284-2.028-5.636-3.453-8.88-5.28   c-1.484-0.835-2.894-1.518-4.32-2.16c-3.18-1.431-6.993-3.292-11.28-4.561c-3.593-1.062-7.688-2.485-12.479-1.439   c-3.514,0.767-6.192,2.741-9.12,4.32c-0.692,0.373-1.663,0.595-2.4,0.96c-0.652,0.322-1.292,0.619-1.92,0.96   c-1.439,0.782-2.452,1.795-3.84,2.64c-1.124,0.684-2.183,0.714-3.12,1.44c-2.802,2.17-6.251,4.961-8.64,7.92   c-4.275,2.285-7.446,5.674-10.32,9.36c-4.904,2.696-7.344,7.857-12.24,10.56c-1.787,2.618-4.225,5.647-7.2,7.44   C124.84,216.677,125.116,216.722,125.409,216.749z M214.449,125.549c0,0.4,0,0.8,0,1.2c4.709-1.442,7.164-1.21,11.04,1.44   c0.135-0.346,0.374-0.585,0.72-0.72C224.725,123.641,217.387,124.806,214.449,125.549z M150.848,145.949   c-0.493,2.727,3.896,4.461,6.24,4.56c1.641,0.068,4.114-0.143,4.8-1.68c-4.45,0.285-8.578-0.116-10.319-3.12   C151.528,145.988,151.189,145.969,150.848,145.949z M98.528,176.669c1.028,1.476,1.135,4.493,3.12,4.32   c-0.421-3.703-3.326-6.097-5.76-8.16C95.647,174.342,97.504,175.197,98.528,176.669z M106.449,227.789   c-1.398,1.522-1.947,2.991-3.36,4.08c-0.458,1.199-0.198,2.171-1.68,2.64c0.232,1.471-0.912,1.361-1.44,2.4   c-1.079,2.125-0.526,5.414-1.68,6.96c-1.707,2.287-6.101,1.789-6.24,5.04c1.706,0.059,1.795-0.677,2.64-1.44   c1.521-1.374,4.325-2.515,5.04-3.6c0.933-1.416,0.528-3.642,1.2-5.04c1.881-3.917,3.91-7.434,6.24-10.8   C106.862,228.016,106.836,227.721,106.449,227.789z"
       id="path7550"
       style="stroke-width:2.6;stroke-miterlimit:4;stroke-dasharray:none;stroke:#000000;stroke-opacity:1" /><path
       fill-rule="evenodd"
       clip-rule="evenodd"
       fill="#F9C9B8"
       d="M43.088,143.309c0.421-0.066,1.197,0.676,1.44,0   c0.695,0.134-0.368,0.375-0.24,0.72c1.053,1.667,3.136,2.304,3.84,4.32c0.502,0.138,0.685,0.595,1.44,0.48   c7.763,6.957,14.432,15.008,22.56,21.6c1.468,1.812,2.83,3.729,5.04,4.8c3.087,3.712,6.261,7.34,9.36,11.04   c0.238,0.722,0.178,1.743,0.96,1.92c-0.59,2.037,0.712,5.226,1.68,7.68c0.495,4.933,1.885,8.269,2.16,12.48   c0.519,0.521,0.345,0.559,0.72,1.44c-0.653,1.666-1.62,2.543-1.44,4.32c-0.509,0.371-1.069,0.69-1.68,0.96   c-1.362,4.557-5.141,6.699-6.479,11.28c-3.353,2.287-4.973,4.712-9.12,5.52c-1.628,0.317-2.786,0.096-3.6,1.68   c-0.502-0.523-0.685,0.12-1.44,0c-1.765-3.515-4.991-5.569-6.96-8.88c-3.283-2.149-4.827-6.118-8.4-8.88   c-2.442-3.967-5.21-10.492-8.88-14.16c0.261-2.006-0.98-3.722-2.4-4.8c-1.035-2.672-2.239-4.987-3.84-7.92   c-2.583-4.732-6.841-11.947-9.6-17.76c-1.809-3.81-2.644-7.829-3.84-12c-2.149-7.491-4.366-13.88-4.32-21.6   c0.018-2.954-1.098-5.951-1.2-9.12c0.506-11.114,0.974-21.289,4.8-33.36c0.185-0.904-0.293-1.147-0.24-1.92   c-0.132-0.532,0.458-0.342,0.48-0.72c-0.233-0.887-0.946-1.294-0.72-2.64c0.712-1.608,1.872-2.768,3.12-3.84   c0.828,0.212,0.808,1.271,1.68,1.44c0.355-0.125,0.605-0.355,0.96-0.48c0.129-0.849-0.388-1.052-0.72-1.44   c-0.149-0.93-0.199-0.988,0.24-1.68c-2.141-2.322-0.092-5.505,2.88-6c0.17,1.073-0.103,2.053,0.48,3.12   c2.172-2.412,0.331-7.635,3.84-8.4c1.087,1.444-0.184,3.438,0.72,4.56c0.731-2.277,0.05-10.173,5.52-8.4   c1.896,4.276-0.108,5.59-0.48,8.88c-0.374,3.308,0.221,6.59,0.24,10.08c0.032,5.895,0.332,11.516,2.4,17.04   c2.36,6.305,9.082,11.795,5.04,18.96c-0.045,0.272-0.241,0.133-0.24,0c-0.773,0.347-1.064,1.176-1.44,1.92   c-4.103,0.538-11.451,5.398-9.84,9.6c0.728,1.898,2.121,3.775,3.36,5.28C41.703,141.368,42.769,141.835,43.088,143.309z"
       id="path7552"
       style="stroke-width:2.6;stroke-miterlimit:4;stroke-dasharray:none;stroke:#000000;stroke-opacity:1" /><path
       fill-rule="evenodd"
       clip-rule="evenodd"
       fill="#F9C9B8"
       d="M57.729,129.628c-0.917,0.203-0.922,1.318-0.96,2.4   c-1.569,1.631-3.747,2.653-6,3.6c0.021,0.341,0.04,0.68-0.24,0.72c0.833,3.041,3.368,3.756,6.24,5.04   c1.136,0.508,2.476,1.767,4.08,2.64c3.097,1.687,6.926,2.817,9.36,5.04c2.181,1.991,2.976,4.63,5.28,6.48   c4.221,9.891,9.453,15.724,10.56,27.6c-1.081-0.012-0.755-1.698-1.92-0.96c-0.719-1.809-2.066-3.53-3.36-4.32   c-0.614-1.532-2.765-3.427-4.56-4.56c-0.009-0.275-0.686-1.819-1.68-2.4c-0.217-0.127-0.77,0.159-0.96,0   c-0.12-0.1,0.417-0.313,0.48-0.24c-0.218-0.254-1.033-0.577-1.2-0.72c-1.02-0.874-1.133-1.918-1.92-2.64   c-0.394-0.361-1.044-0.177-1.44-0.48c-1.09-0.836-1.908-3.589-3.6-3.12c-0.088-0.408,0.188-0.453,0.48-0.48   c-1.623-1.58-2.416-1.668-3.84-3.84c-4.812-4.067-8.33-9.43-14.16-12.48c0.334-1.385-2.328-2.829-3.6-4.08   c-2.334-2.294-3.953-5.031-5.52-7.44c-0.509-6.455,6.94-6.144,8.88-9.36c4.326-1.327,4.429-8.282,2.64-12.479   c-1.875-2.765-2.985-6.295-5.28-8.64c-2.191-7.519-2.631-16.442-2.16-23.76c0.563-0.716,1.069-1.49,1.68-2.16   c0.958,0.003,1.216,0.705,1.92,0.96c-0.102,0.458-0.686,0.435-0.48,1.2c-0.659,3.996,1.22,8.15,1.92,12.24   c0.302,1.765-0.007,3.581,0.24,5.04c0.42,2.481,1.224,4.131,1.92,6.24c-0.159,5.613,2.208,10.576,5.04,14.88   c0.204,0.044,0.227-0.094,0.24-0.24C55.314,122.163,56.516,126.603,57.729,129.628z"
       id="path7554"
       style="stroke-width:2.6;stroke-miterlimit:4;stroke-dasharray:none;stroke:#000000;stroke-opacity:1" /><path
       fill-rule="evenodd"
       clip-rule="evenodd"
       fill="#F9C9B8"
       d="M238.929,195.149c-0.512,2.271-0.671,6.158-1.921,8.4   c-2.459-0.005-1.728-4.263-3.84-3.84c-0.885,3.616-0.067,9.502-0.72,13.44c-1.393,0.808-2.816-0.729-4.32-1.2   c0.05,0.69-0.061,1.219-0.479,1.44c2.953,4.476,4.864,11.322,3.12,18c-2.505,4.864-11.058,3.616-13.681-0.24   c-0.376-1.064-0.525-2.354-1.199-3.12c-2.19,2.779,0.343,5.924-0.96,9.84c-3.146-1.974-3.625-6.616-6.48-8.88   c-1.176,0.512-0.957,2.128-0.96,3.12c-0.01,3.23,1.033,6.602,0.479,9.12c-1.466-1.575-3.25-4.909-5.04-6.96   c-1.013-0.213-1.354,0.245-1.68,0.72c0.883,4.193-0.258,8.662,0,14.16c-2.867-2.413-5.336-5.224-7.92-7.92   c-1.263,2.097-0.717,6.002-1.2,8.88c-3.342-1.618-5.536-4.384-6.96-7.92c-2.955-1.525-3.864-5.096-6.72-6.72   c-0.554-0.073-0.267,0.693-0.72,0.72c0.7,2.354,1.039,7.109,1.92,10.08c-0.969-1.432-2.711-2.089-3.12-4.08   c-3.454-2.384-4.106-6.578-6.96-9.84c-1.38,0.861-1.446,3.035-2.16,4.56c-1.948-2.211-2.555-5.766-4.8-7.68   c-1.812,0.799-1.457,2.385-1.681,4.56c-1.052,0.253-0.788-0.812-1.68-0.72c-2.109-6.383-2.426-11.354-0.72-18.48   c0.389-1.625,1.86-3.824,1.2-5.28c-1.06-2.334-2.508-4.011-2.16-6.96c0.092-0.784-0.789-3.03-0.721-4.08   c0.147-2.245,1.465-5.13,2.16-7.44c0.684-2.267,1.949-5.952,3.601-7.44c0.521-0.47,1.447-0.571,2.399-1.2   c2.646-1.748,6.109-3.795,10.08-5.52c4.206-1.827,6.905-4.624,11.761-5.04c3.599-0.309,7.405,0.944,10.56,1.92   c8.923,2.761,16.277,8.294,24.24,11.76c-0.063,0.784,0.931,0.509,0.96,1.2c2.888,0.792,4.85,2.51,6.96,4.08   c0.204,0.044,0.227-0.094,0.24-0.24C231.35,192.518,235.385,194.189,238.929,195.149z M183.249,186.509   c-3.449-0.517-6.528,1.373-9.84,2.16c-0.261-2.242,0.304-4.824-1.44-6c-0.795,0.004-0.243,1.356-0.72,1.68   c2.302,3.989,1.017,9.687-0.96,14.64c2.188-1.367,3.207-5.242,2.88-7.68c4.738-5.816,15.192-3.643,18.24,2.88   c-1.566,2.02-2.962,8.101-0.72,9.12c1.121-1.001,0.482-3.495-0.48-3.36c1.261-0.869,1.224-2.88,1.681-5.04   c3.996-4.588,9.733-7.723,16.079-5.28c-0.211-2.776-3.38-2.474-5.04-2.4c-3.477,0.155-5.49,1.721-8.399,2.88   c-0.36,1-1.231,1.488-1.92,2.16C190.093,189.822,187.631,187.166,183.249,186.509z M171.968,204.989   c0.353,5.168,4.157,6.883,6.24,10.32c0.495-2.042-0.657-5.659-1.68-7.68c1.215-1.842,4.258-3.08,4.08-5.52   C177.346,200.957,174.343,203.039,171.968,204.989z M163.088,219.149c7.667,1.618,8.233-9.977,1.2-8.88   C159.77,210.973,158.51,218.183,163.088,219.149z M223.088,233.549c7.32-0.58,8.356-12.072,5.04-17.76   c-2.565,0.613-4.782,2.313-5.04,4.56c-0.204,1.784,3.766,7.897-0.479,8.16c-1.551,0.096-0.887-1.283-2.4-1.68   C216.689,230.189,222.986,232.77,223.088,233.549z M189.008,228.269c2.016,1.75,5.118,2.293,7.92,0.96   C203.216,221.447,184.895,217.051,189.008,228.269z"
       id="path7556"
       style="stroke-width:2.6;stroke-miterlimit:4;stroke-dasharray:none;stroke:#000000;stroke-opacity:1" /><path
       fill-rule="evenodd"
       clip-rule="evenodd"
       fill="#F9C9B8"
       d="M107.409,237.629c3.334,4.266,5.078,10.121,9.6,13.2   c1.354-1.258-0.613-2.101-1.439-2.64c-2.756-4.02-5.05-7.076-7.2-11.76c3.874-5.726,9.468-9.732,13.2-15.6   c2.023-0.449,2.76-2.576,4.08-3.84c1.085-1.041,2.625-1.577,3.6-2.64c0.632-0.688,0.793-1.733,1.44-2.4   c1.346-1.388,3.116-2.298,4.56-3.6c2.008-1.811,3.737-4.151,5.76-6c3.636-3.323,6.795-5.536,9.601-9.36   c1.288-0.071,1.241-1.479,2.64-1.44c0.193,3.069-1.069,5.514,0,7.44c-2.451,10.145-2.14,21.396-3.36,32.16   c-0.549,4.843-1.716,9.447-2.88,14.4c-1.517,6.46-2.189,12.107-6.239,16.8c-1.801,2.086-2.887,2.806-4.801,4.08   c-4.026,0.306-8.188,1.84-12.72,1.44c-3.088-0.272-6.205,0.666-8.88,0.48c-4.312-0.298-7.755-3.719-11.04-5.76   c1.359-0.127,1.521-0.127,2.88,0c3.761-1.387,3.259-8.669,0.96-11.28c-0.204-0.044-0.227,0.094-0.24,0.24   C104.63,248.508,102.276,240.012,107.409,237.629z"
       id="path7558"
       style="stroke-width:2.6;stroke-miterlimit:4;stroke-dasharray:none;stroke:#000000;stroke-opacity:1" /><path
       fill-rule="evenodd"
       clip-rule="evenodd"
       fill="#BF7B12"
       d="M252.609,228.269c1.944,0.205,3.764-0.329,4.8-1.44   c-0.352,4.244-3.562,7.936-6.24,10.56c-0.173,1.21-0.229,1.195,0,2.16c2.007,0.055,3.383-0.265,4.561-0.24   c0.446,1.986-3.196,3.99-4.561,5.76c-1.2,0.228-1.271,0.437-1.92,1.44c-2.25,0.31-3.193,1.927-5.04,2.64   c0.359,3.625,4.76,2.592,6.721,3.6c-2.157,2.443-6.526,4.593-10.801,5.52c-2.729,0.591-5.573,0.135-6.72,2.4   c1.302,1.659,3.066,2.854,4.561,4.32c-1.908,1.145-3.891,1.967-6.721,1.68c-2.389-0.242-5.005-2.011-6.24,0   c0.806,1.835,1.042,4.238,1.2,6.72c-1.412-0.908-2.396-2.244-3.6-3.36c-3.383,1.657-5.118,4.961-7.68,7.44   c-1.107-2.234-1.93-4.318-2.641-6.24c-3.275,1.924-4.453,5.946-8.16,7.44c0.342-2.765-0.117-4.707,0.24-7.2   c-5.03,0.082-9.294,4.051-13.44,4.56c0.504-1.71,0.624-2.859,0.961-5.04c0.87-0.55,2.409-1.507,1.68-2.88   c-6.735-0.579-14.055,0.314-21.12,0.72c1.387-2.613,4.019-3.981,5.52-6.48c-3.806-1.091-8.156-0.254-12.239-0.48   c1.536-2.063,3.733-3.466,5.279-5.52c-2.396-2.563-7.632-2.288-11.279-3.6c1.06-1.02,2.761-1.399,3.6-2.64   c-1.652-3.547-6.332-4.068-8.16-7.44c1.956,0.302,3.605,0.377,5.04-0.48c-0.96-3.92-3.047-6.713-4.56-10.08   c2.451,0.11,4.024,3.174,6.239,4.32c0.901-1.203,0.226-2.607,0.48-4.56c2.007,2.884,2.297,6.013,5.28,7.92   c1.642-0.358,0.95-3.05,1.68-4.32c1.997,1.211,2.608,3.642,3.84,5.52c1.043,1.59,2.556,3.043,3.84,4.56   c1.171,1.382,2.051,3.94,4.32,3.84c-0.704-4.073-1.653-5.84-1.68-10.32c4.446,3.781,6.569,11.135,13.439,13.2   c0.726-2.34,0.795-5.703,0.96-7.92c2.315,0.3,5.512,8.154,8.641,6.48c-0.573-4.032-0.164-8.755,0.239-13.44   c2.62,1.541,3.472,4.849,5.521,6.96c1.865-4.231,0.086-8.117,0.24-12.72c2.689,2.031,3.144,6.296,6,8.16   c2.162-0.783,1.711-3.985,1.92-7.2c1.367,0.792,2.719,1.601,3.6,2.88c3.647,1.301,7.161,1.052,9.84-0.96   c5.5-4.128,2.037-15.489-0.239-20.4c1.256,0.319,2.672,1.183,3.84,0.24c0.37-3.706-0.088-7.675,0.72-11.76   c1.056,0.944,1.249,2.751,3.12,2.88c1.234-2.571,2.061-6.345,2.64-9.6c2.317-0.157,2.68,1.641,5.04,1.44   c1.386,2.729,2.652,4.882,2.88,7.68c-0.517,0.602-0.606,1.581,0.24,1.92c1.447-0.633,1.476-2.685,2.88-3.36   c0.85,5.318,0.569,8.709-0.479,13.44c0.241,0.319,0.227,0.893,0.72,0.96c1.973-1.708,2.935-4.425,5.28-5.76   c0.002,0.352-0.091,1.964,0.24,1.2c-0.467,2.786-0.949,6.663-2.4,9.6C253.751,224.562,251.853,225.851,252.609,228.269z"
       id="path7560"
       style="stroke-width:2.6;stroke-miterlimit:4;stroke-dasharray:none;stroke:#000000;stroke-opacity:1" /><path
       fill-rule="evenodd"
       clip-rule="evenodd"
       d="M180.609,202.109c0.178,2.44-2.865,3.678-4.08,5.52   c1.022,2.021,2.175,5.638,1.68,7.68c-2.083-3.437-5.888-5.151-6.24-10.32C174.343,203.039,177.346,200.957,180.609,202.109z"
       id="path7562"
       style="stroke-width:2.6;stroke-miterlimit:4;stroke-dasharray:none;stroke:#000000;stroke-opacity:1" /><path
       fill-rule="evenodd"
       clip-rule="evenodd"
       d="M226.208,127.469c-0.346,0.134-0.585,0.374-0.72,0.72   c-3.876-2.65-6.331-2.882-11.04-1.44c0-0.4,0-0.8,0-1.2C217.387,124.806,224.725,123.641,226.208,127.469z"
       id="path7564"
       style="stroke-width:2.6;stroke-miterlimit:4;stroke-dasharray:none;stroke:#000000;stroke-opacity:1" /><path
       fill-rule="evenodd"
       clip-rule="evenodd"
       d="M192.609,192.269c0.688-0.671,1.56-1.16,1.92-2.16   c2.909-1.159,4.923-2.726,8.399-2.88c1.66-0.074,4.829-0.375,5.04,2.4c-6.346-2.443-12.083,0.692-16.079,5.28   c-0.457,2.16-0.42,4.171-1.681,5.04c0.963-0.135,1.602,2.358,0.48,3.36c-2.242-1.02-0.847-7.101,0.72-9.12   c-3.048-6.523-13.502-8.696-18.24-2.88c0.327,2.438-0.692,6.313-2.88,7.68c1.977-4.954,3.262-10.651,0.96-14.64   c0.477-0.324-0.075-1.676,0.72-1.68c1.744,1.176,1.18,3.758,1.44,6c3.312-0.787,6.391-2.677,9.84-2.16   C187.631,187.166,190.093,189.822,192.609,192.269z"
       id="path7566"
       style="stroke-width:2.6;stroke-miterlimit:4;stroke-dasharray:none;stroke:#000000;stroke-opacity:1" /><path
       fill-rule="evenodd"
       clip-rule="evenodd"
       d="M164.289,210.269c7.033-1.096,6.467,10.499-1.2,8.88   C158.51,218.183,159.77,210.973,164.289,210.269z M165.249,211.709c-4.602-0.897-5.33,6.707,0.96,6   C169.012,216.192,167.351,212.119,165.249,211.709z"
       id="path7568"
       style="stroke-width:2.6;stroke-miterlimit:4;stroke-dasharray:none;stroke:#000000;stroke-opacity:1" /></g><g
     id="g7570"
     style="stroke:#000000;stroke-opacity:1;stroke-width:2.4;stroke-miterlimit:4;stroke-dasharray:none"><path
       fill-rule="evenodd"
       clip-rule="evenodd"
       d="M108.838,526.91c2.54,2.073,4.312,4.284,7.92,4.8c0,0.4,0,0.8,0,1.2   c-3.191,0.489-6.462-2.472-8.88-4.8C107.565,527.076,108.56,527.35,108.838,526.91z"
       id="path7572"
       style="stroke:#000000;stroke-opacity:1;stroke-width:2.4;stroke-miterlimit:4;stroke-dasharray:none" /><path
       fill-rule="evenodd"
       clip-rule="evenodd"
       d="M127.318,421.549c2.684,0.871,6.758,3.445,8.4,6.72   c0.703,1.404,1.76,4.301,0,5.04c-0.222-6.233-4.124-8.264-8.641-10.8C126.977,422.008,127.243,421.874,127.318,421.549z"
       id="path7574"
       style="stroke:#000000;stroke-opacity:1;stroke-width:2.4;stroke-miterlimit:4;stroke-dasharray:none" /><path
       fill-rule="evenodd"
       clip-rule="evenodd"
       d="M151.559,465.469c-0.229-1.749,0.539-2.5,0.96-3.6   c4.833-2.867,8.396,2.262,8.64,6.72c-0.81,2.794-3.494,2.957-4.8,2.4C153.994,469.981,154.188,466.25,151.559,465.469z    M153.479,463.549c0.822,2.857,0.989,6.371,4.8,6.24C161.659,466.766,157.208,459.982,153.479,463.549z"
       id="path7576"
       style="stroke:#000000;stroke-opacity:1;stroke-width:2.4;stroke-miterlimit:4;stroke-dasharray:none" /><path
       fill-rule="evenodd"
       clip-rule="evenodd"
       fill="#BF7376"
       d="M158.279,469.79c-3.811,0.131-3.978-3.383-4.8-6.24   C157.208,459.982,161.659,466.766,158.279,469.79z M157.319,467.629c1.035-0.597,0.897-2.746-0.24-3.12   C153.839,464.326,154.552,467.77,157.319,467.629z"
       id="path7578"
       style="stroke:#000000;stroke-opacity:1;stroke-width:2.4;stroke-miterlimit:4;stroke-dasharray:none" /><path
       fill-rule="evenodd"
       clip-rule="evenodd"
       d="M157.079,464.509c1.138,0.374,1.275,2.523,0.24,3.12   C154.552,467.77,153.839,464.326,157.079,464.509z"
       id="path7580"
       style="stroke:#000000;stroke-opacity:1;stroke-width:2.4;stroke-miterlimit:4;stroke-dasharray:none" /><path
       fill-rule="evenodd"
       clip-rule="evenodd"
       fill="#F9C9B8"
       d="M182.039,357.469c1.119,0.562,1.609,1.751,2.16,2.88   c0.915-0.191,1.579-0.375,1.68,0.72c-1.729-0.208-2.913,0.127-3.359,1.2c-0.376,2.821,1.731,4.966,0.96,6.96   C180.194,367.254,177.313,359.649,182.039,357.469z"
       id="path7582"
       style="stroke:#000000;stroke-opacity:1;stroke-width:2.4;stroke-miterlimit:4;stroke-dasharray:none" /><path
       fill-rule="evenodd"
       clip-rule="evenodd"
       d="M200.519,365.629c-0.971-3.725,4.443-6.499,7.439-3.6   c0.447,0.432,1.519,2.669,1.44,3.6C209.065,369.612,201.724,370.256,200.519,365.629z M206.999,364.189   c-0.316-1.24-2.13-1.952-4.08-1.439C199.298,366.634,208.259,369.121,206.999,364.189z"
       id="path7584"
       style="stroke:#000000;stroke-opacity:1;stroke-width:2.4;stroke-miterlimit:4;stroke-dasharray:none" /><path
       fill-rule="evenodd"
       clip-rule="evenodd"
       d="M202.918,362.75c1.95-0.513,3.764,0.199,4.08,1.439   C208.259,369.121,199.298,366.634,202.918,362.75z"
       id="path7586"
       style="stroke:#000000;stroke-opacity:1;stroke-width:2.4;stroke-miterlimit:4;stroke-dasharray:none" /><path
       fill-rule="evenodd"
       clip-rule="evenodd"
       d="M210.119,391.549c2.653-3.706,14.433-4.562,17.761,0.72   c-0.071,0.489-0.649,0.471-0.721,0.96c-2.747-1.392-4.855-3.385-8.16-3.6c-3.395-0.221-5.378,1.608-8.399,2.4   C210.687,391.621,210.412,391.577,210.119,391.549z"
       id="path7588"
       style="stroke:#000000;stroke-opacity:1;stroke-width:2.4;stroke-miterlimit:4;stroke-dasharray:none" /><path
       fill-rule="evenodd"
       clip-rule="evenodd"
       fill="#BF7376"
       d="M211.799,482.509c1.265-2.069,5.946-3.569,7.68-1.68   c0.27,2.063-0.551,2.721-1.92,3.6c-0.551-0.489,0.331-1.574,0.72-1.92c-1.745-3.327-5.864,0.338-2.399,2.16   C213.74,484.729,212.5,483.888,211.799,482.509z"
       id="path7590"
       style="stroke:#000000;stroke-opacity:1;stroke-width:2.4;stroke-miterlimit:4;stroke-dasharray:none" /><path
       fill-rule="evenodd"
       clip-rule="evenodd"
       d="M222.359,364.429c3.271,2.03,7.84,4.706,7.2,9.12   c-2.936,0.776-4.172,4.425-6.96,4.56c-0.664-2.755,1.922-3.446,2.399-5.76C223.833,370.045,221.801,367.699,222.359,364.429z"
       id="path7592"
       style="stroke:#000000;stroke-opacity:1;stroke-width:2.4;stroke-miterlimit:4;stroke-dasharray:none" /><path
       fill-rule="evenodd"
       clip-rule="evenodd"
       d="M237.958,362.269c0.158,1.931,1.521,1.826,1.44,3.601   c-0.112,2.448-3.544,4.115-5.52,3.84c-2.314-0.323-4.846-3.589-3.36-6C231.875,361.506,235.31,361.356,237.958,362.269z    M237.958,366.349c-0.163-3.596-4.333-3.87-6-1.439C232.592,367.72,235.963,368.896,237.958,366.349z"
       id="path7594"
       style="stroke:#000000;stroke-opacity:1;stroke-width:2.4;stroke-miterlimit:4;stroke-dasharray:none" /><path
       fill-rule="evenodd"
       clip-rule="evenodd"
       d="M231.958,364.91c1.667-2.431,5.837-2.156,6,1.439   C235.963,368.896,232.592,367.72,231.958,364.91z"
       id="path7596"
       style="stroke:#000000;stroke-opacity:1;stroke-width:2.4;stroke-miterlimit:4;stroke-dasharray:none" /><path
       fill-rule="evenodd"
       clip-rule="evenodd"
       d="M116.999,614.99c-5.261-1.503-10.747-2.062-15.6-3.601   c-1.354-0.429-2.393-1.385-3.84-1.68c-3.138-0.639-5.212-1.789-8.16-3.36c-3.146-1.676-5.297-5.811-9.36-7.92   c-1.686-2.987-4.319-7.383-6.96-10.8c0.081-1.568-0.58-1.849-1.44-2.88c-1.324-5.723-2.109-10.473-2.64-15.12   c0.693-7.356-0.133-14.468,3.12-20.4c1.923-8.027,6.584-14.547,6.96-23.52c0.1-2.372-0.018-5.967,0.48-9.12   c0.3-1.902,0.82-4.155,1.199-6.96c0.574-4.237,2.496-8.88,3.12-13.2c0.245-1.693,0.496-2.313,0.96-3.6   c1.866-5.17,3.068-10.407,5.521-15.12c3.427-6.586,7.049-12.947,10.8-18.48c1.185-1.747,1.965-3.816,3.12-5.279   c0.487-0.617,1.373-0.829,1.92-1.44c0.938-1.046,1.453-2.724,2.4-4.08c0.519-0.744,1.442-1.229,1.92-1.92   c0.428-0.619,0.478-1.568,0.96-2.16c0.295-0.362,0.935-0.335,1.199-0.72c0.325-0.472,0.203-1.186,0.48-1.68   c0.428-0.764,1.414-1.062,1.92-1.681c1.548-1.893,2.576-4.202,4.32-5.76c-3.303-5.737-7.475-10.605-11.521-15.6   c-4.285-4.115-9.28-7.521-13.2-12c-3.044-1.426-7.003-2.311-9.6-0.48c-0.607,0.428-0.927,1.393-1.68,2.4   c-0.991,1.325-2.187,1.806-2.4,3.84c-0.679-0.038-0.559,0.721-1.2,0.72c-1.933,4.708-5.344,7.936-6.72,13.2   c-0.558,0.162-0.643,0.798-1.2,0.96c-0.97,4.806-3.56,9.396-3.359,13.92c-1.911,3.329,0.848,11.084,1.68,15.36   c1.129,5.809,2.376,12.018-1.44,15.84c-1.535-0.001-3.496,0.696-4.56-0.24c-2.701,4.934-6.78,11.089-14.4,10.32   c-3.82-0.386-6.795-2.622-9.359-4.8c-2.58-0.634-5.847-2.624-7.921-4.561c-0.673,0.004,0.572,0.655-0.479,0.48   c-3.281-3.476-7.745-7.55-8.16-13.44c-0.592-8.401,4.726-15.719,12.24-17.76c4.775-5.138,4.748-13.761,8.639-19.92   c3.186-12.306,6.571-22.835,12.721-32.4c2.173-5.026,4.939-9.46,8.399-13.2c1.2-3.133,3.36-5.429,5.521-6.96   c2.408-6.363,7.959-10.951,16.56-14.64c0.188,0.395,0.15,0.672,0.72,0c4.669,0.11,5.56,0.748,9.841,1.44   c3.112,2.623,7.548,3.979,10.08,6c0.43,0.03,0.506-0.294,0.96-0.24c8.913,5.486,17.941,10.858,27.12,16.08   c0.89-0.17,1.029,0.41,1.92,0.239c1.777,1.422,4.242,2.157,6.239,3.36c0.775-0.215,0.338,0.783,0.721,0.96   c0.529-0.899,0.312,0.277,0.96-0.24c2.366,0.758,4.278,2.287,6.479,3.841c2.066,1.458,4.644,2.27,6.721,3.6   c0.802,0.514,1.184,1.422,1.92,1.92c0.483,0.327,1.328,0.267,1.92,0.72c1.886,1.446,2.697,4.475,6,4.801   c2.58,0.254,5.986-1.21,8.16-0.96c-1.87-1.971-3.617-4.064-5.04-6.48c-1.32,1.242-1.991,4.407-4.08,4.08   c-1.396-2.037,0.632-5.229-0.96-8.16c-1.621,1.419-1.397,4.683-3.36,5.76c-2.325-2.553-1.636-5.53-2.161-9.84   c-1.652,1.308-2.352,3.568-3.84,5.04c-3.463-5.039-1.913-10.199-0.96-14.64c-2.742-0.262-4.465,2.574-7.44,2.88   c-0.226-3.519,2.526-6.104,4.32-8.4c0.076-2.34,0.926-3.244,1.68-5.279c-3.073,0.796-4.699,4.22-8.159,3.84   c1.317-6.246,4.533-9.116,7.199-13.92c-3.025-1.032-5.804,0.286-9.359,0c0.677-2.266,3.532-2.427,5.52-3.841   c2.732-1.944,4.66-4.229,6.72-6.72c-2.747-1.525-6.657-0.49-10.079,0.24c-0.034-2.721,3.676-3.284,4.8-5.04   c4.148-1.673,7.331-3.315,10.56-6.72c0.766-4.881-2.187-7.984-5.76-9.841c1.187-1.541,4.566-1.182,6.96-0.96   c2.975,0.276,5.765,1.009,7.68,2.16c3.181-2.781,5.218-7.148,4.801-12.24c3.125-0.469,3.982,3.148,5.279,5.28   c2.981-2.859,4.263-7.417,6.24-11.28c1.603,0.38,1.782,2.499,2.4,4.08c0.968,2.48,2.03,4.811,1.68,7.44   c4.308-1.853,7.058-5.263,10.08-8.4c2.228,1.983,2.797,5.223,2.16,8.4c3.806-1.324,6.984-4.454,8.16-5.28   c0.297-1.022,1.233-3.159,2.64-3.84c1.715,2.395,2.081,5.798,2.64,9.12c6.935-0.217,11.533-3.733,18.721-3.36   c-1.172,2.749-4.447,3.394-5.761,6c4.91,1.087,8.637,2.034,13.2,2.641c-0.038,0.281-0.438,0.202-0.72,0.239   c1.542,0.187,1.459,0.236,3.12,0.48c-0.126,2.008-2.117,1.567-3.601,2.16c-0.669,0.267-3.6,2.083-3.6,2.399   c0,0.145,2.013,1.622,2.64,1.92c1.218,0.58,3.271,0.851,5.04,1.681c2.505,1.175,4.258,2.946,6,4.319   c5.777-1.799,6.797-5.24,12.96-5.52c3.515-0.159,8.66,0.293,11.041,2.16c2.387,1.871,5.049,6.423,4.561,11.52   c-0.264,2.747-1.482,4.737-2.641,6.721c-1.199,2.055-1.904,4.256-1.439,6.479c3.949,4.559,7.949,8.716,12,13.201   c0.398,0.441,1.021,0.529,1.439,0.96c3.291,3.391,4.59,8.843,8.4,11.76c2.525,5.075,6.027,9.173,9.359,13.44   c4.279,9.358,9.398,18.545,12,29.04c1.246,5.345,1.807,9.65,3.361,14.4c0.904,2.771,1.656,7.361-0.721,9.6   c-1.119,1.053-3.65,1.749-5.76,2.64c-3.414,1.441-7.609,3.054-11.041,3.601c-1.947,0.31-4.213,0.547-5.76,0.72   c-7.752,0.867-14.664,1.272-22.32,1.44c-6.902,0.15-13.434-0.215-18.719-2.16c-6.112-0.248-12.639-3.387-19.44-2.641   c-2.938,0.323-4.347,1.97-6.96,2.88c-0.06,0.021-0.368,0.402-0.48,0.48c-2.989,2.09-3.717,5.829-5.76,9.12   c-0.382,4.207-1.769,8.841-2.399,14.88c-0.291,2.782-0.161,5.168-1.681,6.72c0.229,3.781-1.964,7.132-2.16,11.28   c-1.73,2.749-3.247,5.712-4.8,8.64c0.045,2.013,1.369,3.704,1.92,5.761c2.553,9.524,1.316,22.282,2.16,34.079   c0.252,3.519,0.777,8.848,0.72,12.48c-0.079,5.114-0.817,10.113-0.72,14.88c0.117,5.672,1.112,9.765,1.681,14.16   c2.166-1.811,4.481-2.691,6.72-0.96c2.135-0.851,3.241-0.173,4.56,0.96c1.198-0.722,2.404-1.437,4.561-1.2   c0.712,0.488,0.896,1.504,1.68,1.92c2.057-0.746,4.396-2.653,7.68-0.96c0.382,0.819,0.496,1.905,0.721,2.88   c0.931-0.859,2.258-0.666,2.88-2.159c2.531-1.399,7.349-1.259,9.359,0.479c1.398,2.197-0.594,6.036-2.159,7.92   c-1.162,1.398-1.797,1.546-3.12,2.641c-1.001,0.827-1.299,2.07-2.16,3.119c-1.554,1.893-3.924,3.367-5.521,5.28   c-2.154,2.582-3.689,5.438-6,6.48c-4.209,5.495-9.826,9.812-16.56,12.239c-3.669,2.326-8.231,6.717-12.96,10.32   c-2.488,1.896-4.72,4.091-8.4,3.84c-2.451-0.167-6.298-1.181-7.439-1.92c-4.406-2.851-9.024-10.273-5.28-18   c-0.817-2.812,2.983-7.604,3.36-12.72c0.246-3.358-0.539-6.283-1.2-9.84c-3.766,5.834-4.827,14.372-9.12,19.68   c-0.129,0.991-0.352,1.889-0.48,2.88c-2.618,3.462-4.294,7.866-7.439,10.8c0.253,1.214-0.547,1.373-0.48,2.4   c-0.388,0.067-0.413-0.227-0.72-0.24c0.289,1.535-2.032,2.415-2.16,4.32c-0.457,0.103-0.603,0.517-1.2,0.48   c-4.024,7.175-9.942,12.457-15.359,18.239c-0.98,2.796-2.669,4.476-4.561,6.96c-1.279,1.682-2.487,3.463-4.08,4.32   c-1.076,3.351-5.188,5.453-6.479,9.36c-3.384,4.217-5.491,9.709-8.88,13.92c-2.37,1.191-3.811,3.998-6.961,5.04   c-2.088,1.992-4.795,3.364-7.439,4.8c-3.166,2.914-6.068,6.092-8.88,9.36c-0.408,0.088-0.453-0.188-0.48-0.48   c-0.704,0.204,0.312,0.604,0,1.2c-6.599,8.426-13.916,14.694-22.08,21.6c-3.784,5.576-10.156,8.564-15.12,12.96   c-1.859,0.767-4.168,1.712-6.239,3.36c-1.198,0.953-2.155,2.165-4.561,2.64c-1.26,0.249-2.837-0.031-4.319,0.24   c-1.346,0.246-2.683,0.967-4.08,1.2c-2.186,0.365-4.689-0.019-6.961,0.48c-2.742,0.602-5.228,2.014-7.199,2.159   c-1.739,0.129-4.897-1.096-6.96-1.439c-6.056-1.01-10.859,3.877-14.641,1.92c-0.795-0.411-2.408-2.387-2.64-2.88   c-1.062-2.27,0.406-4.558,1.2-6.48c2.54-1.237,4.385-0.595,7.92-1.439c4.508-2.556,7.744-8.595,8.64-13.2   c0.204-0.044,0.227,0.094,0.24,0.24c0.464-1.348,1.549-5.66,3.36-6.24c0.325-4.264,5.05-6.099,8.64-8.4   c7.67-1.168,19.229,4.137,21.12-6.72c0.928,0.124,0.946-1.383,1.68-0.72c1.471-4.975,4.757-9.028,6.96-13.92   c1.602-3.557,2.192-7.672,5.28-9.841c1.202-2.798,3.152-4.848,4.32-7.68c2.227-2.564,3.771-5.389,5.76-7.92   c0.812-1.034,1.7-1.659,2.64-2.64c1.312-1.371,3.133-2.498,4.801-4.08c0.967-0.917,2.027-2.758,2.88-4.08   c1.634-2.537,3.614-5.275,4.56-8.16c0.844-0.082,0.879-1.826,1.68-1.2C108.504,637.563,114.729,627.21,116.999,614.99z    M14.518,749.629c0.943,5.725,8.848,0.699,13.44,0.48c1.931-0.092,3.591,0.608,5.28,0.96c4.716,0.98,7.704-1.075,12-1.68   c2.234-0.315,4.5-0.117,6.72-0.48c1.959-0.32,3.811-1.029,5.76-1.2c4.257-0.372,5.423-2.116,8.641-4.08   c2.693-1.644,5.521-2.975,8.64-5.04c3.542-2.345,6.299-4.886,8.64-7.439c1.438-1.567,2.771-2.24,4.08-3.36   c4.552-3.891,8.639-9.175,12.96-11.76c0.667-1.509,2.8-4.314,4.32-5.04c0.994-2.14,2.682-4.038,4.08-5.52   c0.503-0.533,1.475-0.91,1.92-1.44c0.543-0.645,0.652-1.72,1.2-2.4c3.119-3.871,8.248-5.102,11.76-8.64   c3.096-1.338,5.032-3.248,7.44-5.28c1.837-3.913,4.83-6.632,5.76-10.319c4.461-6.762,9.414-11.66,14.16-18.24   c0.336-1.185,1.172-1.869,1.439-3.12c0.766-0.275,1.095-0.986,1.921-1.2c-0.312-1.212,1.905-2.642,2.399-3.12   c7.392-9.297,15.309-16.71,20.641-27.84c0.824-0.188,1.327-1.381,1.92-2.4c2.495-4.291,5.736-11.99,7.199-15.12   c1.747-3.956,2.949-9.024,5.04-13.199c-2.482-10.276-4.85-18.465-7.439-28.32c-6.171,10.815-9.238,22.236-15.12,32.4   c-3.581,3.272-7.009,6.789-12.24,9.119c-4.898,2.183-10.209,4.396-15.359,6.24c-8.051,2.884-15.703,2.156-23.28,2.16   c-2.443,8.863-5.136,16.567-8.4,24c-2.467,5.616-4.737,10.609-7.439,15.36c-1.312,2.305-3.177,4.197-4.561,6.479   c-1.533,2.529-2.688,3.471-4.8,5.28c-1.451,1.244-2.455,2.755-4.08,3.6c-1.97,3.013-3.823,5.979-5.76,9.12   c-1.859,3.016-4.353,5.766-6.24,8.88c-1.283,2.117-1.898,4.508-2.88,6.961c-2.364,5.907-6.376,11.206-8.88,17.04   c-0.446,0.193-0.97,0.31-1.2,0.72c-0.919,3.562-3.933,5.027-7.44,6c-1.888-1.014-2.621-0.029-5.04-0.24   c-3.006-0.263-4.567-1.393-8.16-0.479c-11.618,2.95-10.609,19.27-18.239,25.68c-2.69,2.26-6.442,2.728-9.84,3.12   C14.944,747.551,14.246,747.972,14.518,749.629z M245.879,345.709c-0.722,0.093,0.919,2.045,1.199,3.12   c0.571,2.188,0.347,5.302,0.96,7.68c2.938,1.948,7.871,1.587,10.08,4.8c2.384,3.467,2.952,9.094,4.32,13.92   c1.444,5.093,3.619,11.163,5.04,16.561c0.65,2.473,2.133,5.254,2.88,7.439c3.133,9.165,5.841,17.979,9.839,26.641   c1.689,2.071,4.301,3.219,6,5.28c-1.076,0.948-4.359-1.773-3.84-2.4c-0.457-0.45-0.602-0.026-1.199,0   c-3.391-3.41-3.811-7.209-6.24-11.76c-14.272-1.154-23.438-13.178-38.88-11.521c-3.294,1.9-6.503,5.563-11.279,6.96   c-5.856,1.713-14.776,2.291-20.16,0.96c-0.104,0.537-1.183,0.098-1.681,0.24c-9.38-3.135-17.923-9.092-24.72-15.6   c-2.459,1.244-5.197,0.99-8.399,1.68c2.386,3.543,3.375,6.444,4.8,10.56c-0.396,0.862-1.585,1.467-2.641,0.96   c0.938-1.135,0.198-1.73,0.48-2.88c-1.606-1.844-2.293-4.448-3.12-6.479c-13.314-15.919-35.528-21.361-53.521-33.12   c-0.075-0.325-0.341-0.459-0.239-0.96c-4.154-1.416-6.203-3.567-10.32-4.8c-4.875-2.763-9.133-6.465-16.561-6   c-8.405,3.035-14.315,8.565-18.239,16.08c-2.514,1.786-3.424,5.401-6.24,7.44c-1.011,3.069-3.004,5.156-4.561,7.68   c-8.896,15.423-14.06,35.86-20.159,53.28c-1.509,2.203-4.355,2.114-6.48,3.36c-4.506,2.643-9.241,10.809-7.44,17.28   c0.771,2.771,4.627,8.747,7.44,10.56c2.95,1.901,7.461,3.647,10.8,5.521c2.367,1.327,4.792,2.804,7.2,2.88   c5.208,0.165,10.767-5.17,11.76-10.08c-1.349-2.314-3.416-5.004-4.56-7.92c-0.3-0.764-0.159-1.657-0.48-2.4   c-0.958-2.217-3.885-3.293-3.359-5.52c5.006,3.726,6.026,11.271,9.84,15.6c1.377,0.863,4.336,0.377,4.8-0.24   c1.479-2.661,1.238-6.393,0.72-10.08c-0.64-4.553-3.416-9.085-2.399-12.96c-0.87,0.23-0.244-1.036-0.721-1.2   c0.916-1.63-0.112-5.292,0.72-7.68c0.317,0.003,0.219,0.421,0.479,0.48c-0.343-2.104,0.743-5.742,1.681-7.44   c0.422-1.38,1.858-7.053,3.6-7.92c0.69-2.484,2.642-6.23,4.8-8.64c2.737-5.129,5.247-11.68,12.48-11.521   c3.63,0.868,5.833,3.505,8.399,6c2.048,1.99,4.647,3.372,6.721,5.28c5.902,5.433,10.256,12.177,14.88,18.72   c2.585,3.101,5.967,6.666,6.96,10.561c-0.418-0.019-0.747,0.053-0.96,0.239c-0.569-0.785-1.357-3.438-2.641-3.359   c0.244,0.976,1.39,2.875,0,3.359c-1.626-3.075-1.247-5.7-3.6-8.399c-9.462,11.017-17.732,23.228-25.679,35.76   c0.221,1.102-0.601,1.159-0.48,2.16c-10.204,16.674-12.583,39.757-15.12,62.64c-7.038,10.764-10.284,27.419-7.439,42.24   c0.636,3.315,1.817,6.819,3.359,9.36c0.471,0.774,1.412,1.355,1.92,2.159c1.401,2.216,2.189,4.341,3.601,6.001   c1.999,2.351,5.118,4.151,6.479,6.96c4.997,3.369,13.047,6.551,18.721,6.96c7.054,4.029,15.112,2.809,23.279,3.6   c17.768-2.786,38.854-9.076,44.16-27.36c0.536-0.104,0.856-0.424,0.96-0.96c0.46-0.026-0.281-0.804,0-1.439   c2.381-5.903,6.04-11.065,7.681-18.48c1.16-0.68,1.366-2.313,2.16-3.359c-1.038-5.351-3.693-12.164-3.601-18.961   c-0.938-3.449-2.575-10.632-1.92-14.399c-0.103,0.603-0.517-0.399-0.479-0.72c-0.107-1.609,0.752-1.624,0-2.16   c0.61-1.863,1.775-3.629,2.88-5.521c0.71-1.217,1.088-2.936,2.16-3.12c0.409,3.459-2.926,5.513-3.601,8.641   c-0.574,2.662,0.504,5.527,0.72,8.16c-0.119,2.063,0.259,2.471,0,3.84c0.003-0.242,0.421-0.302,0.48,0   c0.767,7.756,2.042,16.234,4.8,23.279c0,0.721,0,1.44,0,2.16c3.175,9.882,5.805,21.684,8.641,33.601   c0.7,2.944,1.843,5.812,1.68,8.64c-0.285,4.937-4.479,10.063-5.04,16.32c-0.87,9.709,5.512,16.693,15.84,14.4   c6.367-2.713,10.021-8.761,16.08-11.28c0.161-1.256,0.964-0.442,1.2-1.44c0.755-0.274,0.583,0.377,0.96,0.48   c0.271-0.754-0.069-0.635,0.24-1.2c1.635-0.365,2.776-1.223,3.84-2.16c2.897-0.421,4.283-3.231,6.479-3.6   c2.991-3.22,5.951-7.482,9.12-9.12c2.12-2.737,3.66-5.203,6.24-8.16c3.318-3.805,9.495-6.544,8.16-12.48   c-4.958-2.654-10.126,1.046-12.48,5.04c-0.512-0.664-1.307,0.444-1.439-0.479c1.084-1.571,2.246-4.039,1.2-5.76   c-4.19-1.189-5.939,2.029-7.921,3.84c-1.055-1.082,0.2-1.813,0-3.36c-0.476-0.163-0.549-0.73-0.96-0.96   c-2.528-0.448-2.361,1.798-4.08,2.16c-1.041-0.719-0.904-2.615-2.88-2.4c-0.986,0.214-0.631,1.77-1.68,1.92   c-0.811-1.131-0.829-2.378-2.88-2.64c-1.741,0.457-1.72,2.053-2.64,3.12c-0.228,0.264-0.767,0.189-0.96,0.479   c-0.998,1.497-1.467,3.84-2.881,5.28c-0.295,0.301-0.908,0.272-1.199,0.48c-1.229,0.877-1.836,2.701-3.601,3.12   c0.191,1.336-1.068,2.028-1.68,2.88c-1.287,1.79-1.756,4.053-3.601,5.279c-1.001-1.312,0.274-1.811,0.721-2.64   c0.215-0.398,0.083-1.19,0.24-1.44c1.293-2.062,3.712-4.993,5.76-6.96c2.098-2.015,4.5-2.903,4.8-6.239   c0.41-4.566-0.996-7.934-1.2-12.24c-0.394-8.302,0.768-20.226,0.24-29.521c-0.094-1.648-1.006-3.062,0-4.56   c-1.569-5.74,0.015-12.559-0.72-18.96c-0.325-2.834-0.896-4.599-1.2-6c-0.928-4.267-1.269-9.339-2.88-13.44   c-0.425-0.45-0.701,0.286-1.2-0.24c-2.224-6.488-10.248-11.421-16.08-14.159c-11.688-5.488-19.034,5.837-26.641,10.8   c-3.386,4.534-9.053,6.787-13.199,10.56c-2.689,1.271-4.418,2.917-6.721,4.561c-4.995,3.564-9.319,7.472-14.159,10.8   c-1.316,0.905-2.856,1.438-4.08,2.4c-2.149,1.688-3.91,3.87-6.24,5.52c-2.434,1.722-4.511,4.014-6.72,5.521   c-1.157,1.772-2.241,3.312-3.841,4.079c-1.239,2.601-2.83,4.851-4.319,7.2c-0.498,1.663-0.335,3.985-1.92,4.561   c1.099-7.153,5.097-11.864,9.6-17.04c-4.269-0.383-8.183,0.288-10.56,1.2c-2.377,0.911-4.575,3.04-6.96,2.64   c2.094-1.542,4.358-3.521,7.439-3.36c2.015-1.592,8.542-3.143,11.76-1.68c2.468-2.652,5.33-4.911,8.4-6.96   c-6.596-1.683-13.79-7.228-16.32-14.16c4.662,4.7,8.005,11.993,16.561,12c-0.175,0.655,0.477,0.483,0.479,0.96   c2.051-0.835,3.15-2.323,4.8-2.88c-0.109-0.379,1.448-1.811,2.16-1.44c1.867-2.772,5.664-3.616,7.44-6.479   c3.329-1.412,5.914-4.802,8.399-5.04c1.49-2.27,4.348-4.391,7.44-5.76c5.974-4.747,12.106-9.334,17.521-14.641   c0.578,0.099,0.521-0.438,1.199-0.239c-0.008-0.986,1.363-1.997,1.681-1.2c0.271-0.754-0.069-0.634,0.239-1.2   c2.969-2.353,9.648-4.844,14.16-2.88c0.769-0.438,2.669,0.044,2.88,0.96c7.176,3.106,13.99,7.258,17.521,14.64   c3.009-4.068,4.475-8.283,6.24-13.68c0.331-4.944,2.247-8.275,1.68-12.479c2.354-9.68,3.198-20.046,10.8-25.2   c3.506-2.378,6.95-1.772,10.8-1.44c0.03,0.003,0.365-0.476,0.721-0.479c3.591-0.043,7.256,1.724,10.8,2.399   c2.78,0.184,5.241,0.292,8.16,1.68c6.196,0.466,11.884,0.761,16.8,0.721c0.791,0.16,6.848-0.976,9.6-0.24   c1.084-1.438,2.82-0.387,3.6-0.48c0.479-0.057,0.928-0.629,1.441-0.72c5.41-0.955,11.854-0.705,17.52-2.399   c2.85-0.854,5.174-2.54,7.68-3.601c0.412-1.427,1.416-2.264,2.4-3.12c0.602-7.049-2.67-10.507-3.361-18.239   c-0.521-0.729-1.547-1.103-0.719-1.921c-1.521-3.093-1.818-6.295-2.881-10.08c-1.605-2.044-2.969-4.678-4.08-7.439   c-1.369-3.404-2.812-6.957-4.08-9.84c-4.719-5.479-8.553-11.366-12.479-17.28c-3.225-4.855-5.85-8.711-9.361-12.48   c-3.822-4.104-7.943-7.485-10.561-12.48c-0.322-1.051,0.355-1.854,0-3.12c1.781-3.374,4.295-6.968,4.561-11.04   c0.162-2.47-2.354-7.488-4.799-8.88c-2.213-1.258-6.272-1.561-8.881-1.44c-4.752,0.22-8.927,3.009-12.239,5.28   c-0.261,0.614,0.729,1.145,0,1.44c-2.15,0.001-5.609,1.209-6,4.08c-0.22,1.609,2.641,3.192,2.399,5.76   c3.847,1.759,8.27,4.203,8.4,8.88c-2.479-2.705-3.812-5.42-7.68-6.96c-0.806,0.715-0.235,2.805-2.16,2.4   C248.734,348.294,247.208,347.1,245.879,345.709z M150.838,349.309c0.551-0.312-1.112,0.847-0.479,0.96   c2.755,0.268,3.925-0.489,6.479,0c-1.696,5.343-5.758,8.321-7.439,13.681c2.571-0.562,4.777-3.532,8.16-4.08   c0.286,4.368-2.677,8.992-4.801,12.479c2.49-0.55,4.178-1.902,6.48-2.64c-0.288,4.369-3.404,10.392-0.72,15.12   c1.811-1.63,2.534-4.347,4.8-5.521c0.142,4.006-0.031,6.454,0.96,10.801c0.956-0.484,0.769-2.112,1.68-2.641   c0.348-1.255,0.76-4.519,2.4-5.28c1.013,3.4,0.896,7.316,1.44,10.561c0.641-1.631,2.62-3.566,3.359-6.24   c0.359-1.299-0.378-3.361,1.44-3.6c0.765,2.274,2.044,4.035,3.12,6c0.237-3.695,0.136-7.954-0.24-11.761   c-0.491-0.25-1.278-1.582-0.24-1.92c1.621,0.699,2.487,2.153,5.04,1.92c-1.564-3.221-5.22-5.904-6.72-10.08   c-2.479-6.896-2.779-14.482,4.319-17.52c3.547,0.773,6.19,2.45,7.921,5.04c0.099-3.551-0.902-5.806-0.48-8.88   c2.642,0.479,3.563,2.676,6.24,3.12c-1.686-3.327-3.33-8.268,0-11.04c2.534,2.266,4.954,4.646,8.399,6   c-0.398-2.879-1.395-6.746-0.479-7.681c3.288,3.433,6.299,7.141,9.6,10.561c-0.011-4.205-1.605-8.783-2.16-12.48   c-0.121-0.811-0.456-2.496,0.721-2.88c2.441,2.639,5.312,5.408,8.16,7.2c-0.567-0.604-0.187-2.815-0.48-4.32   c4.579,2.914,5.839,8.828,8.64,12.96c2.48-3.178,2.391-5.204,3.36-10.319c3.338,3.42,2.816,7.024,5.04,11.76   c1.041-2.26,1.818-5.682,2.4-8.4c2.015,2.065,2.674,5.486,4.08,8.16c1.976-1.307-0.146-4.751,1.92-6.24   c2.585,1.415,4.564,3.436,6.96,5.04c-0.144-0.427,0.703-0.996,0-1.199c-0.475,1.432,0.418-1.764-0.48-0.24   c-0.422-5.188-3.961-7.269-5.52-11.521c2.092-0.884,5.976-0.37,7.92,0c-3.19-4.066-10.441-5.138-14.641-8.88   c1.981-2.596,4.639-2.259,6.48-4.32c-1.904,0.387-5.156-2.268-5.76-0.96c-2.488-1.057-6.561-0.465-9.12-1.92   c0.405-2.049,3.507-3.332,4.56-5.52c-5.601,1.314-10.961,2.911-16.56,3.6c-0.137-3.024-0.608-5.033-1.681-7.92   c-1.454,0.783-2.396,2.534-3.84,3.84c-2.096,1.896-6.645,5.005-9.359,3.601c1.178-1.65,1.424-4.535,0.479-6.48   c-2.965,3.836-7.375,6.225-12.479,7.92c0.904-3.44,1.14-8.259-0.96-10.56c-1.846,4.326-3.587,8.079-7.921,10.8   c-0.303-1.947-0.803-4.255-2.159-5.76c-1.49,3.869-2.199,10.383-6.96,11.76c-2.75-2.336-6.907-2.781-10.561-2.88   c2.082,2.398,3.973,4.987,3.361,10.08c-1.581,1.62-3.37,3.031-5.041,4.56c-3.441,0.64-5.966,2.194-8.16,4.08   c2.667-0.031,6.204-0.415,8.16,1.2C157.87,344.307,153.809,347.621,150.838,349.309z M216.839,339.229   c-2.507-1.413-4.185-3.655-6.48-5.279c0.001-0.134-0.194-0.272-0.24,0c1.307,5.004,2.643,11.802,2.16,16.319   c-3.471-3.249-5.275-8.164-9.6-10.56c-0.505,2.632,1.688,4.692,0.72,6.24c-4.123-1.237-6.419-4.302-9.84-6.24   c-2.906,4.628,2.087,7.846,2.16,11.52c-2.804-0.797-5.002-2.198-7.2-3.6c-0.827,2.982,2.438,7.062-0.24,9.84   c-1.803-2.774-4.006-6.1-7.92-6c-3.002,1.797-5.142,4.562-5.28,7.92c-0.06,1.446,0.896,2.979,1.44,4.8   c0.486,1.628,0.596,3.419,1.2,4.561c1.99,3.765,5.922,6.299,6.96,10.08c-2.752,0.026-4.051-0.294-5.761-0.96   c0.25,3.909,0.282,6.736,0.24,10.08c-0.02,1.536-0.113,3.651-1.439,4.8c-1.09-2.11-1.677-4.724-3.36-6.24   c-0.76,0.675-0.438,1.279-0.96,2.64c0.629,0.252,0.998,0.762,1.439,1.2c0.387,1.134,1.223,1.818,1.44,3.12   c7.318,7.572,16.854,16.479,29.04,18.72c7.708,1.419,13.176-0.213,20.4-1.199c5.048-3.955,10.453-6.213,14.16-9.841   c3.292-3.222,5.906-7.601,6.72-12.72c0.428-2.692,0.988-6.231,0.479-9.12c-0.59-3.355-3.821-6.928-3.84-9.84   c-0.014-2.176,1.68-4.571,2.16-6.96c0.577-2.87,0.003-5.145,0.72-7.441c-0.49-2.667-1.263-3.958-1.68-5.039   c-0.352-0.912,0.083-2.722-1.68-3.12c-0.359,2.041-1.085,3.715-2.16,5.04c-1.51-0.062-0.799-2.07-0.96-2.881   c-0.378-1.898-1.374-3.932-1.92-5.52c-2.267,1.733-1.038,6.962-4.08,7.92c-1.319-3.626-1.328-8.197-3.84-12   c-0.488,4.674-1.799,7.802-4.801,10.32c-0.561-3.263-2.472-6.224-3.6-9.601c-1.356,0.094-0.953-2.411-2.64-2.64   c-0.208,1.152,0.479,3.2-0.48,3.6C217.494,341.186,216.934,340.487,216.839,339.229z M271.079,404.99   c-2.367-2.858-1.934-4.957-3.6-9.12c-0.024-0.27,0.35-0.374,0-0.48c-1.159-0.551-1.239-3.854-1.92-5.52   c-0.334-0.817-1.285-1.635-1.44-2.641c-0.525-3.404-1.597-6.62-2.64-10.08c-1.709-5.668-2.896-11.35-5.04-15.6   c-2.401-1.449-6.644-2.302-8.88-3.121c-0.278,3.743-1.338,7.411-2.641,11.281c1.455,0.322,1.044,1.763,1.44,2.88   c1.285,3.618,3.392,8.163,2.88,12.72c-0.086,0.765-0.719,1.082-0.96,1.92c-0.736,2.558-0.475,6.089-1.92,8.4   c-2.595,2.94-5.242,6.786-8.16,8.64c12.803-2.108,24.306,11.629,36,10.561C273.431,412.801,270.97,408.451,271.079,404.99z    M245.879,335.389c0.596,1.004,0.994,2.205,2.159,2.64c0.434-1.326,2.036-1.484,2.4-2.88   C249.544,335.201,246.845,334.271,245.879,335.389z"
       id="path7598"
       style="stroke:#000000;stroke-opacity:1;stroke-width:2.4;stroke-miterlimit:4;stroke-dasharray:none" /><path
       fill-rule="evenodd"
       clip-rule="evenodd"
       fill="#F9C9B8"
       d="M15.479,746.27c3.397-0.393,7.149-0.86,9.84-3.12   c7.63-6.41,6.621-22.729,18.239-25.68c3.593-0.913,5.154,0.217,8.16,0.479c2.419,0.211,3.152-0.773,5.04,0.24   c3.508-0.973,6.521-2.438,7.44-6c0.23-0.41,0.754-0.526,1.2-0.72c2.504-5.834,6.516-11.133,8.88-17.04   c0.981-2.453,1.597-4.844,2.88-6.961c1.888-3.114,4.381-5.864,6.24-8.88c1.937-3.142,3.79-6.107,5.76-9.12   c1.625-0.845,2.629-2.355,4.08-3.6c2.111-1.81,3.267-2.751,4.8-5.28c1.384-2.282,3.249-4.175,4.561-6.479   c2.702-4.751,4.973-9.744,7.439-15.36c3.265-7.433,5.957-15.137,8.4-24c7.577-0.004,15.229,0.724,23.28-2.16   c5.15-1.845,10.461-4.058,15.359-6.24c5.231-2.33,8.659-5.847,12.24-9.119c5.882-10.164,8.949-21.585,15.12-32.4   c2.59,9.855,4.957,18.044,7.439,28.32c-2.091,4.175-3.293,9.243-5.04,13.199c-1.463,3.13-4.704,10.829-7.199,15.12   c-0.593,1.02-1.096,2.213-1.92,2.4c-5.332,11.13-13.249,18.543-20.641,27.84c-0.494,0.479-2.711,1.908-2.399,3.12   c-0.826,0.214-1.155,0.925-1.921,1.2c-0.268,1.251-1.104,1.936-1.439,3.12c-4.746,6.58-9.699,11.479-14.16,18.24   c-0.93,3.688-3.923,6.406-5.76,10.319c-2.408,2.032-4.345,3.942-7.44,5.28c-3.512,3.538-8.641,4.769-11.76,8.64   c-0.548,0.681-0.657,1.756-1.2,2.4c-0.445,0.53-1.417,0.907-1.92,1.44c-1.398,1.481-3.086,3.38-4.08,5.52   c-1.521,0.726-3.653,3.531-4.32,5.04c-4.321,2.585-8.408,7.869-12.96,11.76c-1.31,1.12-2.643,1.793-4.08,3.36   c-2.341,2.554-5.098,5.095-8.64,7.439c-3.118,2.065-5.946,3.396-8.64,5.04c-3.218,1.964-4.384,3.708-8.641,4.08   c-1.949,0.171-3.801,0.88-5.76,1.2c-2.22,0.363-4.485,0.165-6.72,0.48c-4.296,0.604-7.284,2.66-12,1.68   c-1.689-0.352-3.35-1.052-5.28-0.96c-4.593,0.219-12.497,5.244-13.44-0.48C14.246,747.972,14.944,747.551,15.479,746.27z    M110.039,680.27c1.043,1.798,0.662,3.534,1.44,5.52c1.534,1.266,3.642,1.958,5.279,3.12c3.337,0.312,6.505-0.672,9.36-0.96   c1.062-1.099,3.305-1.016,3.12-3.36c-2.567,0.594-5.81,2.753-9.36,2.641c-2.299-0.073-6.498-1.277-7.439-3.12   c-1.371-2.683-0.633-5.767-1.44-9.12C109.27,675.658,110.698,679.123,110.039,680.27z"
       id="path7600"
       style="stroke:#000000;stroke-opacity:1;stroke-width:2.4;stroke-miterlimit:4;stroke-dasharray:none" /><path
       fill-rule="evenodd"
       clip-rule="evenodd"
       fill="#F9C9B8"
       d="M249.719,350.029c1.925,0.404,1.354-1.686,2.16-2.4   c3.868,1.54,5.201,4.255,7.68,6.96c-0.131-4.677-4.554-7.121-8.4-8.88c0.241-2.567-2.619-4.15-2.399-5.76   c0.391-2.871,3.85-4.079,6-4.08c0.729-0.296-0.261-0.826,0-1.44c3.312-2.271,7.487-5.061,12.239-5.28   c2.609-0.12,6.668,0.183,8.881,1.44c2.445,1.392,4.961,6.41,4.799,8.88c-0.266,4.072-2.779,7.666-4.561,11.04   c0.355,1.266-0.322,2.069,0,3.12c2.617,4.995,6.738,8.376,10.561,12.48c3.512,3.77,6.137,7.625,9.361,12.48   c3.926,5.914,7.76,11.801,12.479,17.28c1.268,2.883,2.711,6.436,4.08,9.84c1.111,2.762,2.475,5.396,4.08,7.439   c1.062,3.785,1.359,6.987,2.881,10.08c-0.828,0.818,0.197,1.191,0.719,1.921c0.691,7.732,3.963,11.19,3.361,18.239   c-0.984,0.856-1.988,1.693-2.4,3.12c-2.506,1.061-4.83,2.747-7.68,3.601c-5.666,1.694-12.109,1.444-17.52,2.399   c-0.514,0.091-0.963,0.663-1.441,0.72c-0.779,0.094-2.516-0.957-3.6,0.48c-2.752-0.735-8.809,0.4-9.6,0.24   c-4.916,0.04-10.604-0.255-16.8-0.721c-2.919-1.388-5.38-1.496-8.16-1.68c-3.544-0.676-7.209-2.442-10.8-2.399   c-0.355,0.004-0.69,0.482-0.721,0.479c-3.85-0.332-7.294-0.938-10.8,1.44c-7.602,5.154-8.445,15.521-10.8,25.2   c0.567,4.204-1.349,7.535-1.68,12.479c-1.766,5.396-3.231,9.611-6.24,13.68c-3.53-7.382-10.345-11.533-17.521-14.64   c-0.211-0.916-2.111-1.398-2.88-0.96c-4.512-1.964-11.191,0.527-14.16,2.88c-0.309,0.566,0.032,0.446-0.239,1.2   c-0.317-0.797-1.688,0.214-1.681,1.2c-0.678-0.198-0.621,0.338-1.199,0.239c-5.414,5.307-11.547,9.894-17.521,14.641   c-3.093,1.369-5.95,3.49-7.44,5.76c-2.485,0.238-5.07,3.628-8.399,5.04c-1.776,2.863-5.573,3.707-7.44,6.479   c-0.712-0.37-2.27,1.062-2.16,1.44c-1.649,0.557-2.749,2.045-4.8,2.88c-0.003-0.477-0.654-0.305-0.479-0.96   c-8.556-0.007-11.898-7.3-16.561-12c2.53,6.933,9.725,12.478,16.32,14.16c-3.07,2.049-5.933,4.308-8.4,6.96   c-3.218-1.463-9.745,0.088-11.76,1.68c-3.081-0.16-5.346,1.818-7.439,3.36c2.385,0.4,4.583-1.729,6.96-2.64   c2.377-0.912,6.291-1.583,10.56-1.2c-4.503,5.176-8.501,9.887-9.6,17.04c1.585-0.575,1.422-2.897,1.92-4.561   c1.489-2.35,3.08-4.6,4.319-7.2c1.6-0.768,2.684-2.307,3.841-4.079c2.209-1.507,4.286-3.799,6.72-5.521   c2.33-1.649,4.091-3.832,6.24-5.52c1.224-0.962,2.764-1.495,4.08-2.4c4.84-3.328,9.164-7.235,14.159-10.8   c2.303-1.644,4.031-3.289,6.721-4.561c4.146-3.772,9.813-6.025,13.199-10.56c7.606-4.963,14.953-16.288,26.641-10.8   c5.832,2.738,13.856,7.671,16.08,14.159c0.499,0.526,0.775-0.21,1.2,0.24c1.611,4.102,1.952,9.174,2.88,13.44   c0.305,1.401,0.875,3.166,1.2,6c0.734,6.401-0.85,13.22,0.72,18.96c-1.006,1.497-0.094,2.911,0,4.56   c0.527,9.295-0.634,21.219-0.24,29.521c0.204,4.307,1.61,7.674,1.2,12.24c-0.3,3.336-2.702,4.225-4.8,6.239   c-2.048,1.967-4.467,4.897-5.76,6.96c-0.157,0.25-0.025,1.042-0.24,1.44c-0.446,0.829-1.722,1.327-0.721,2.64   c1.845-1.227,2.313-3.489,3.601-5.279c0.611-0.852,1.871-1.544,1.68-2.88c1.765-0.419,2.371-2.243,3.601-3.12   c0.291-0.208,0.904-0.18,1.199-0.48c1.414-1.44,1.883-3.783,2.881-5.28c0.193-0.29,0.732-0.216,0.96-0.479   c0.92-1.067,0.898-2.663,2.64-3.12c2.051,0.262,2.069,1.509,2.88,2.64c1.049-0.15,0.693-1.706,1.68-1.92   c1.976-0.215,1.839,1.682,2.88,2.4c1.719-0.362,1.552-2.608,4.08-2.16c0.411,0.229,0.484,0.797,0.96,0.96   c0.2,1.547-1.055,2.278,0,3.36c1.981-1.811,3.73-5.029,7.921-3.84c1.046,1.721-0.116,4.188-1.2,5.76   c0.133,0.924,0.928-0.185,1.439,0.479c2.354-3.994,7.522-7.694,12.48-5.04c1.335,5.937-4.842,8.676-8.16,12.48   c-2.58,2.957-4.12,5.423-6.24,8.16c-3.169,1.638-6.129,5.9-9.12,9.12c-2.196,0.368-3.582,3.179-6.479,3.6   c-1.063,0.938-2.205,1.795-3.84,2.16c-0.31,0.565,0.031,0.446-0.24,1.2c-0.377-0.104-0.205-0.755-0.96-0.48   c-0.236,0.998-1.039,0.185-1.2,1.44c-6.059,2.52-9.713,8.567-16.08,11.28c-10.328,2.293-16.71-4.691-15.84-14.4   c0.561-6.257,4.755-11.384,5.04-16.32c0.163-2.827-0.979-5.695-1.68-8.64c-2.836-11.917-5.466-23.719-8.641-33.601   c0-0.72,0-1.439,0-2.16c-2.758-7.045-4.033-15.523-4.8-23.279c-0.06-0.302-0.478-0.242-0.48,0c0.259-1.369-0.119-1.776,0-3.84   c-0.216-2.633-1.294-5.498-0.72-8.16c0.675-3.128,4.01-5.182,3.601-8.641c-1.072,0.185-1.45,1.903-2.16,3.12   c-1.104,1.892-2.27,3.657-2.88,5.521c0.752,0.536-0.107,0.551,0,2.16c-0.037,0.32,0.377,1.322,0.479,0.72   c-0.655,3.768,0.981,10.95,1.92,14.399c-0.093,6.797,2.562,13.61,3.601,18.961c-0.794,1.046-1,2.68-2.16,3.359   c-1.641,7.415-5.3,12.577-7.681,18.48c-0.281,0.636,0.46,1.413,0,1.439c-0.104,0.536-0.424,0.855-0.96,0.96   c-5.307,18.284-26.393,24.574-44.16,27.36c-8.167-0.791-16.226,0.43-23.279-3.6c-5.674-0.409-13.724-3.591-18.721-6.96   c-1.361-2.809-4.48-4.609-6.479-6.96c-1.411-1.66-2.199-3.785-3.601-6.001c-0.508-0.804-1.449-1.385-1.92-2.159   c-1.542-2.541-2.724-6.045-3.359-9.36c-2.845-14.821,0.401-31.477,7.439-42.24c2.537-22.883,4.916-45.966,15.12-62.64   c-0.12-1.001,0.701-1.059,0.48-2.16c7.947-12.532,16.217-24.743,25.679-35.76c2.354,2.699,1.974,5.324,3.6,8.399   c1.39-0.484,0.244-2.384,0-3.359c1.284-0.079,2.072,2.574,2.641,3.359c0.213-0.187,0.542-0.258,0.96-0.239   c-0.994-3.895-4.375-7.46-6.96-10.561c-4.624-6.543-8.978-13.287-14.88-18.72c-2.073-1.908-4.673-3.29-6.721-5.28   c-2.566-2.495-4.77-5.132-8.399-6c-7.233-0.159-9.743,6.392-12.48,11.521c-2.158,2.409-4.109,6.155-4.8,8.64   c-1.741,0.867-3.178,6.54-3.6,7.92c-0.938,1.698-2.023,5.337-1.681,7.44c-0.261-0.06-0.162-0.478-0.479-0.48   c-0.832,2.388,0.196,6.05-0.72,7.68c0.477,0.164-0.149,1.431,0.721,1.2c-1.017,3.875,1.76,8.407,2.399,12.96   c0.519,3.688,0.76,7.419-0.72,10.08c-0.464,0.617-3.423,1.104-4.8,0.24c-3.813-4.328-4.834-11.874-9.84-15.6   c-0.525,2.227,2.401,3.303,3.359,5.52c0.321,0.743,0.181,1.637,0.48,2.4c1.144,2.916,3.211,5.605,4.56,7.92   c-0.993,4.91-6.552,10.245-11.76,10.08c-2.408-0.076-4.833-1.553-7.2-2.88c-3.339-1.873-7.85-3.619-10.8-5.521   c-2.813-1.812-6.669-7.788-7.44-10.56c-1.801-6.472,2.935-14.638,7.44-17.28c2.125-1.246,4.971-1.157,6.48-3.36   c6.1-17.42,11.263-37.857,20.159-53.28c1.557-2.523,3.55-4.61,4.561-7.68c2.816-2.039,3.727-5.654,6.24-7.44   c3.924-7.515,9.834-13.045,18.239-16.08c7.428-0.465,11.686,3.238,16.561,6c4.117,1.232,6.166,3.384,10.32,4.8   c-0.102,0.501,0.164,0.635,0.239,0.96c17.993,11.759,40.207,17.201,53.521,33.12c0.827,2.031,1.514,4.636,3.12,6.479   c-0.282,1.149,0.458,1.745-0.48,2.88c1.056,0.507,2.245-0.098,2.641-0.96c-1.425-4.115-2.414-7.017-4.8-10.56   c3.202-0.689,5.94-0.436,8.399-1.68c6.797,6.508,15.34,12.465,24.72,15.6c0.498-0.143,1.577,0.297,1.681-0.24   c5.384,1.331,14.304,0.753,20.16-0.96c4.776-1.396,7.985-5.06,11.279-6.96c15.442-1.657,24.608,10.366,38.88,11.521   c2.43,4.551,2.85,8.35,6.24,11.76c0.598-0.026,0.742-0.45,1.199,0c-0.52,0.627,2.764,3.349,3.84,2.4   c-1.699-2.062-4.311-3.209-6-5.28c-3.998-8.662-6.707-17.476-9.839-26.641c-0.747-2.186-2.229-4.967-2.88-7.439   c-1.421-5.397-3.596-11.468-5.04-16.561c-1.368-4.826-1.937-10.453-4.32-13.92c-2.209-3.213-7.142-2.852-10.08-4.8   c-0.613-2.378-0.389-5.492-0.96-7.68c-0.28-1.075-1.921-3.027-1.199-3.12C247.208,347.1,248.734,348.294,249.719,350.029z    M107.878,528.11c2.418,2.328,5.688,5.289,8.88,4.8c0-0.4,0-0.8,0-1.2c-3.607-0.516-5.38-2.727-7.92-4.8   C108.56,527.35,107.565,527.076,107.878,528.11z M127.078,422.509c4.517,2.536,8.419,4.566,8.641,10.8   c1.76-0.739,0.703-3.636,0-5.04c-1.643-3.274-5.717-5.849-8.4-6.72C127.243,421.874,126.977,422.008,127.078,422.509z    M156.359,470.99c1.306,0.557,3.99,0.394,4.8-2.4c-0.244-4.458-3.807-9.587-8.64-6.72c-0.421,1.1-1.189,1.851-0.96,3.6   C154.188,466.25,153.994,469.981,156.359,470.99z M217.319,417.709c-1.388,0.372-2.059,1.462-2.88,2.4   c-1.809,0.352-2.333,1.987-2.88,3.6c-1.254,0.701-2.72,2.352-2.16,4.08c3.261-3.38,5.123-8.157,10.08-9.84   c-0.099-0.578,0.438-0.521,0.24-1.2c-0.27-0.051-0.374-0.267-0.48-0.48C218.054,416.431,216.95,417.314,217.319,417.709z    M209.879,482.99c1.255,1.295,1.92,2.942,3.6,3.359c4.93,1.226,8.934-3.317,6.479-7.92   C214.896,478.543,211.27,479.761,209.879,482.99z"
       id="path7602"
       style="stroke:#000000;stroke-opacity:1;stroke-width:2.4;stroke-miterlimit:4;stroke-dasharray:none" /><path
       fill-rule="evenodd"
       clip-rule="evenodd"
       fill="#BF7B12"
       d="M159.479,340.429c-1.956-1.615-5.493-1.231-8.16-1.2   c2.194-1.886,4.719-3.44,8.16-4.08c1.671-1.528,3.46-2.939,5.041-4.56c0.612-5.093-1.279-7.682-3.361-10.08   c3.654,0.099,7.811,0.544,10.561,2.88c4.761-1.377,5.47-7.891,6.96-11.76c1.356,1.505,1.856,3.812,2.159,5.76   c4.334-2.721,6.075-6.474,7.921-10.8c2.1,2.301,1.864,7.119,0.96,10.56c5.104-1.695,9.515-4.084,12.479-7.92   c0.944,1.945,0.698,4.83-0.479,6.48c2.715,1.404,7.264-1.705,9.359-3.601c1.444-1.306,2.386-3.057,3.84-3.84   c1.072,2.887,1.544,4.896,1.681,7.92c5.599-0.688,10.959-2.285,16.56-3.6c-1.053,2.188-4.154,3.471-4.56,5.52   c2.56,1.455,6.632,0.863,9.12,1.92c0.604-1.308,3.855,1.347,5.76,0.96c-1.842,2.062-4.499,1.725-6.48,4.32   c4.199,3.742,11.45,4.813,14.641,8.88c-1.944-0.37-5.828-0.884-7.92,0c1.559,4.252,5.098,6.332,5.52,11.521   c0.898-1.523,0.006,1.672,0.48,0.24c0.703,0.203-0.144,0.772,0,1.199c-2.396-1.604-4.375-3.625-6.96-5.04   c-2.065,1.489,0.056,4.934-1.92,6.24c-1.406-2.674-2.065-6.095-4.08-8.16c-0.582,2.719-1.359,6.141-2.4,8.4   c-2.224-4.735-1.702-8.34-5.04-11.76c-0.97,5.115-0.88,7.142-3.36,10.319c-2.801-4.132-4.061-10.046-8.64-12.96   c0.294,1.505-0.087,3.716,0.48,4.32c-2.849-1.792-5.719-4.562-8.16-7.2c-1.177,0.384-0.842,2.069-0.721,2.88   c0.555,3.697,2.149,8.275,2.16,12.48c-3.301-3.42-6.312-7.128-9.6-10.561c-0.915,0.935,0.081,4.802,0.479,7.681   c-3.445-1.354-5.865-3.734-8.399-6c-3.33,2.772-1.686,7.713,0,11.04c-2.677-0.444-3.599-2.642-6.24-3.12   c-0.422,3.074,0.579,5.329,0.48,8.88c-1.73-2.59-4.374-4.267-7.921-5.04c-7.099,3.038-6.798,10.624-4.319,17.52   c1.5,4.176,5.155,6.859,6.72,10.08c-2.553,0.233-3.419-1.221-5.04-1.92c-1.038,0.338-0.251,1.67,0.24,1.92   c0.376,3.807,0.478,8.065,0.24,11.761c-1.076-1.965-2.355-3.726-3.12-6c-1.818,0.238-1.081,2.301-1.44,3.6   c-0.739,2.674-2.719,4.609-3.359,6.24c-0.545-3.244-0.428-7.16-1.44-10.561c-1.641,0.762-2.053,4.025-2.4,5.28   c-0.911,0.528-0.724,2.156-1.68,2.641c-0.991-4.347-0.818-6.795-0.96-10.801c-2.266,1.174-2.99,3.891-4.8,5.521   c-2.685-4.729,0.432-10.751,0.72-15.12c-2.303,0.737-3.99,2.09-6.48,2.64c2.124-3.487,5.087-8.111,4.801-12.479   c-3.383,0.548-5.589,3.518-8.16,4.08c1.682-5.36,5.743-8.338,7.439-13.681c-2.555-0.489-3.725,0.268-6.479,0   c-0.633-0.113,1.03-1.272,0.479-0.96C153.809,347.621,157.87,344.307,159.479,340.429z"
       id="path7604"
       style="stroke:#000000;stroke-opacity:1;stroke-width:2.4;stroke-miterlimit:4;stroke-dasharray:none" /><path
       fill-rule="evenodd"
       clip-rule="evenodd"
       fill="#F9C9B8"
       d="M218.279,341.148c0.96-0.399,0.272-2.447,0.48-3.6   c1.687,0.229,1.283,2.733,2.64,2.64c1.128,3.377,3.039,6.338,3.6,9.601c3.002-2.519,4.312-5.646,4.801-10.32   c2.512,3.803,2.521,8.374,3.84,12c3.042-0.958,1.813-6.187,4.08-7.92c0.546,1.588,1.542,3.621,1.92,5.52   c0.161,0.811-0.55,2.818,0.96,2.881c1.075-1.325,1.801-2.999,2.16-5.04c1.763,0.398,1.328,2.208,1.68,3.12   c0.417,1.081,1.189,2.372,1.68,5.039c-0.717,2.296-0.143,4.571-0.72,7.441c-0.48,2.389-2.174,4.784-2.16,6.96   c0.019,2.912,3.25,6.484,3.84,9.84c0.509,2.889-0.052,6.428-0.479,9.12c-0.813,5.119-3.428,9.498-6.72,12.72   c-3.707,3.628-9.112,5.886-14.16,9.841c-7.225,0.986-12.692,2.618-20.4,1.199c-12.186-2.241-21.722-11.147-29.04-18.72   c-0.218-1.302-1.054-1.986-1.44-3.12c-0.441-0.438-0.811-0.948-1.439-1.2c0.521-1.36,0.2-1.965,0.96-2.64   c1.684,1.517,2.271,4.13,3.36,6.24c1.326-1.148,1.42-3.264,1.439-4.8c0.042-3.344,0.01-6.171-0.24-10.08   c1.71,0.666,3.009,0.986,5.761,0.96c-1.038-3.781-4.97-6.315-6.96-10.08c-0.604-1.142-0.714-2.933-1.2-4.561   c-0.545-1.821-1.5-3.354-1.44-4.8c0.139-3.359,2.278-6.124,5.28-7.92c3.914-0.1,6.117,3.226,7.92,6   c2.679-2.778-0.587-6.857,0.24-9.84c2.198,1.401,4.396,2.803,7.2,3.6c-0.073-3.674-5.066-6.892-2.16-11.52   c3.421,1.938,5.717,5.003,9.84,6.24c0.969-1.548-1.225-3.608-0.72-6.24c4.324,2.396,6.129,7.311,9.6,10.56   c0.482-4.518-0.854-11.315-2.16-16.319c0.046-0.272,0.241-0.134,0.24,0c2.296,1.624,3.974,3.866,6.48,5.279   C216.934,340.487,217.494,341.186,218.279,341.148z M180.359,366.83c0.201,1.588,1.773,3.804,3.12,5.04   c1.033-0.646,1.101-2.26,2.16-2.88c-1.604-2.764-2.963-8.066,1.439-6c1.821-3.615-3.012-5.646-5.76-6.96   C177.227,357.147,177.884,365.095,180.359,366.83z M209.399,365.629c0.078-0.931-0.993-3.168-1.44-3.6   c-2.996-2.899-8.41-0.125-7.439,3.6C201.724,370.256,209.065,369.612,209.399,365.629z M210.599,392.03   c3.021-0.792,5.005-2.621,8.399-2.4c3.305,0.215,5.413,2.208,8.16,3.6c0.071-0.489,0.649-0.471,0.721-0.96   c-3.328-5.282-15.107-4.426-17.761-0.72C210.412,391.577,210.687,391.621,210.599,392.03z M224.999,372.349   c-0.478,2.313-3.063,3.005-2.399,5.76c2.788-0.135,4.024-3.783,6.96-4.56c0.64-4.414-3.929-7.09-7.2-9.12   C221.801,367.699,223.833,370.045,224.999,372.349z M230.519,363.709c-1.485,2.411,1.046,5.677,3.36,6   c1.976,0.275,5.407-1.392,5.52-3.84c0.081-1.774-1.282-1.67-1.44-3.601C235.31,361.356,231.875,361.506,230.519,363.709z"
       id="path7606"
       style="stroke:#000000;stroke-opacity:1;stroke-width:2.4;stroke-miterlimit:4;stroke-dasharray:none" /><path
       fill-rule="evenodd"
       clip-rule="evenodd"
       d="M219.239,416.269c0.106,0.214,0.211,0.43,0.48,0.48   c0.198,0.679-0.339,0.622-0.24,1.2c-4.957,1.683-6.819,6.46-10.08,9.84c-0.56-1.729,0.906-3.379,2.16-4.08   c0.547-1.612,1.071-3.248,2.88-3.6c0.821-0.938,1.492-2.028,2.88-2.4C216.95,417.314,218.054,416.431,219.239,416.269z"
       id="path7608"
       style="stroke:#000000;stroke-opacity:1;stroke-width:2.4;stroke-miterlimit:4;stroke-dasharray:none" /><path
       fill-rule="evenodd"
       clip-rule="evenodd"
       d="M110.999,674.99c0.808,3.354,0.069,6.438,1.44,9.12   c0.941,1.843,5.141,3.047,7.439,3.12c3.551,0.112,6.793-2.047,9.36-2.641c0.185,2.345-2.059,2.262-3.12,3.36   c-2.855,0.288-6.023,1.271-9.36,0.96c-1.638-1.162-3.745-1.854-5.279-3.12c-0.778-1.985-0.397-3.722-1.44-5.52   C110.698,679.123,109.27,675.658,110.999,674.99z"
       id="path7610"
       style="stroke:#000000;stroke-opacity:1;stroke-width:2.4;stroke-miterlimit:4;stroke-dasharray:none" /><path
       fill-rule="evenodd"
       clip-rule="evenodd"
       d="M181.319,356.029c2.748,1.314,7.581,3.345,5.76,6.96   c-4.402-2.066-3.044,3.236-1.439,6c-1.06,0.62-1.127,2.233-2.16,2.88c-1.347-1.236-2.919-3.452-3.12-5.04   C177.884,365.095,177.227,357.147,181.319,356.029z M183.479,369.229c0.771-1.994-1.336-4.139-0.96-6.96   c0.446-1.073,1.631-1.408,3.359-1.2c-0.101-1.095-0.765-0.911-1.68-0.72c-0.551-1.129-1.041-2.319-2.16-2.88   C177.313,359.649,180.194,367.254,183.479,369.229z"
       id="path7612"
       style="stroke:#000000;stroke-opacity:1;stroke-width:2.4;stroke-miterlimit:4;stroke-dasharray:none" /><path
       fill-rule="evenodd"
       clip-rule="evenodd"
       d="M219.958,478.429c2.454,4.603-1.55,9.146-6.479,7.92   c-1.68-0.417-2.345-2.064-3.6-3.359C211.27,479.761,214.896,478.543,219.958,478.429z M215.879,484.669   c-3.465-1.822,0.654-5.487,2.399-2.16c-0.389,0.346-1.271,1.431-0.72,1.92c1.369-0.879,2.189-1.536,1.92-3.6   c-1.733-1.89-6.415-0.39-7.68,1.68C212.5,483.888,213.74,484.729,215.879,484.669z"
       id="path7614"
       style="stroke:#000000;stroke-opacity:1;stroke-width:2.4;stroke-miterlimit:4;stroke-dasharray:none" /></g></svg>