<?xml version="1.0" encoding="UTF-8" standalone="no"?>
<!-- Generator: Adobe Illustrator 15.0.0, SVG Export Plug-In . SVG Version: 6.00 Build 0)  -->

<svg
   xmlns:dc="http://purl.org/dc/elements/1.1/"
   xmlns:cc="http://creativecommons.org/ns#"
   xmlns:rdf="http://www.w3.org/1999/02/22-rdf-syntax-ns#"
   xmlns:svg="http://www.w3.org/2000/svg"
   xmlns="http://www.w3.org/2000/svg"
   xmlns:xlink="http://www.w3.org/1999/xlink"
   xmlns:sodipodi="http://sodipodi.sourceforge.net/DTD/sodipodi-0.dtd"
   xmlns:inkscape="http://www.inkscape.org/namespaces/inkscape"
   version="1.1"
   id="Layer_1"
   x="0px"
   y="0px"
   width="340"
   height="340"
   viewBox="0 0 340 339.99999"
   enable-background="new 0 0 595.279 841.89"
   xml:space="preserve"
   inkscape:version="0.91 r13725"
   sodipodi:docname="lava.svg"><metadata
     id="metadata4477"><rdf:RDF><cc:Work
         rdf:about=""><dc:format>image/svg+xml</dc:format><dc:type
           rdf:resource="http://purl.org/dc/dcmitype/StillImage" /><dc:title></dc:title></cc:Work></rdf:RDF></metadata><defs
     id="defs4475" /><sodipodi:namedview
     pagecolor="#ffffff"
     bordercolor="#666666"
     borderopacity="1"
     objecttolerance="10"
     gridtolerance="10"
     guidetolerance="10"
     inkscape:pageopacity="0"
     inkscape:pageshadow="2"
     inkscape:window-width="1366"
     inkscape:window-height="731"
     id="namedview4473"
     showgrid="false"
     fit-margin-top="0"
     fit-margin-left="0"
     fit-margin-right="0"
     fit-margin-bottom="0"
     inkscape:zoom="1.1212866"
     inkscape:cx="199.49029"
     inkscape:cy="191.68966"
     inkscape:window-x="0"
     inkscape:window-y="0"
     inkscape:window-maximized="1"
     inkscape:current-layer="Layer_1" /><g
     id="g4421"
     transform="scale(0.99954137,0.99953554)"><g
       id="g4423"><defs
         id="defs4425"><rect
           id="SVGID_1_"
           x="0"
           width="340.15601"
           height="170.07899"
           y="0" /></defs><clipPath
         id="SVGID_2_"><use
           xlink:href="#SVGID_1_"
           overflow="visible"
           id="use4429"
           style="overflow:visible"
           x="0"
           y="0"
           width="100%"
           height="100%" /></clipPath><g
         clip-path="url(#SVGID_2_)"
         id="g4431"><rect
           x="339.883"
           y="2.382"
           width="12.248"
           height="51.969002"
           id="rect4433"
           style="fill:#e94d1d" /><rect
           x="337.12601"
           y="54.352001"
           width="12.23"
           height="58.946999"
           id="rect4435"
           style="fill:#bf3918" /><rect
           x="337.12601"
           y="113.299"
           width="12.23"
           height="58.944"
           id="rect4437"
           style="fill:#932f14" /><rect
           x="-9.2799997"
           y="1.631"
           width="12.229"
           height="47.200001"
           id="rect4439"
           style="fill:#e94d1d" /><rect
           x="-8.3970003"
           y="54.352001"
           width="12.229"
           height="58.946999"
           id="rect4441"
           style="fill:#bf3918" /><g
           id="g4443"><path
             d="m 1.048,172.922 c 1.226,-19.353 -2.336,-36.773 -0.732,-56.909 36.306,-4.93 66.65,-15.888 94.853,-32.83 19.129,-11.489 39.82,-21.605 62.022,-27.737 35.801,-9.871 74.644,8.696 99.226,21.896 26.125,14.018 47.948,34.99 86.1,37.932 -0.913,19.244 0.156,34.468 -0.727,56.185 -27.519,4.514 -68.97,1.411 -98.504,1.462 -80.047,0.141 -159.067,1.195 -242.238,0.001 z"
             id="path4445"
             inkscape:connector-curvature="0"
             style="fill:#932f14" /><path
             d="m 1.048,6.567 c 11.607,-1.042 22.898,-1.4 35.754,-0.726 19.216,0.999 37.865,5.079 60.565,10.212 8.86,2 16.886,6.496 25.523,8.025 38.643,6.843 75.75,-3.095 112.363,-6.566 10.26,-0.975 20.028,-3.405 29.922,-4.378 13.591,-1.339 28.884,-4.132 43.768,-5.832 10.788,-1.231 22.655,-3.202 33.571,1.447 -0.732,13.475 1.409,33.57 0,43.789 C 328.39,45.373 315.089,42.019 299.458,36.485 281.478,30.103 265.871,25.588 244.02,24.803 c -11.042,-0.385 -23.373,-0.737 -35.765,0 -15.234,0.922 -36.463,3.255 -51.065,7.299 -16.884,4.679 -32.512,13.645 -50.341,17.516 C 86.878,53.95 65.194,52.97 44.1,57.642 35.557,59.532 3.538,56.768 -0.411,47.421 -1.935,43.825 0.401,38.211 0.315,34.291 0.118,24.545 -3.122,15.063 1.048,6.567 Z"
             id="path4447"
             inkscape:connector-curvature="0"
             style="fill:#e94d1d" /><path
             d="m -0.41,110.907 c -0.158,-17.442 -0.222,-40.342 -0.723,-55.46 11.025,8.924 31.763,4.949 48.141,7.301 30.857,-4.996 62.911,-9.143 91.213,-17.513 2.524,-0.748 4.146,-2.77 6.562,-3.645 6.367,-2.289 14.134,-2.201 20.436,-3.646 6.174,-1.43 10.778,-4.208 16.051,-5.114 9.274,-1.587 19.58,-2.439 29.185,-2.185 5.673,0.157 11.374,1.857 17.513,2.185 12.281,0.68 23.768,0.337 36.474,1.461 26.311,2.327 50.48,14.633 76.609,22.618 4.102,17.757 0.075,35.512 2.192,53.262 -21,1.023 -37.924,-8.14 -53.985,-17.5 -18.69,-10.913 -37.21,-21.59 -57.641,-32.107 -7.782,-4.009 -18.153,-7.703 -27.725,-10.945 -19.574,-6.648 -41.638,-2.629 -61.291,3.644 -7.727,2.466 -15.996,8.513 -24.814,13.135 -4.406,2.313 -8.884,4.376 -13.133,6.565 -4.588,2.375 -7.937,5.974 -11.671,8.024 -6.053,3.334 -11.082,2.404 -15.327,8.761 -13.942,5.167 -29.634,13.129 -45.961,16.777 -10.933,2.446 -21.865,5.524 -32.105,4.382 z"
             id="path4449"
             inkscape:connector-curvature="0"
             style="fill:#bf3918" /></g><path
           d="m 342.372,16.97 0,-2.949 c -0.031,0.969 -0.031,1.955 0,2.949 z"
           id="path4451"
           inkscape:connector-curvature="0"
           style="fill:#932f14" /><path
           d="m 345.438,0 c -35.556,-2.218 -68.167,5.791 -100.698,12.407 -9.485,1.929 -20.08,2.988 -29.904,4.369 -15.9,2.252 -31.751,4.887 -48.158,3.657 C 139.321,18.387 111.735,13.199 84.233,5.106 63.334,2.701 38.987,0.058 17.827,0.724 9.826,0.989 1.187,-0.607 -5.515,2.919 c 0.068,1.086 0.138,2.189 0.202,3.29 l 10.745,0 0,0 c 10.096,-0.755 20.13,-0.951 31.37,-0.367 19.216,0.998 37.865,5.078 60.565,10.211 8.86,2 16.886,6.496 25.523,8.025 38.643,6.843 75.75,-3.095 112.363,-6.566 10.26,-0.975 20.028,-3.405 29.922,-4.378 13.591,-1.339 28.884,-4.132 43.768,-5.832 10.788,-1.231 22.655,-3.202 33.571,1.447 0,0.057 0,0.117 -0.007,0.174 l 4.104,0 C 347.121,5.895 347.596,3.477 345.438,0 Z"
           id="path4453"
           inkscape:connector-curvature="0"
           style="fill:#932f14" /><path
           d="m -1.128,55.71 c -0.001,-0.09 -0.004,-0.174 -0.005,-0.263 0.099,0.096 0.217,0.17 0.329,0.263 l 0.022,0 0,0.008 c 11.108,8.557 31.581,4.699 47.789,7.03 30.857,-4.996 62.911,-9.143 91.213,-17.513 2.524,-0.748 4.146,-2.77 6.562,-3.645 6.367,-2.289 14.134,-2.201 20.436,-3.646 6.174,-1.43 10.778,-4.208 16.051,-5.114 9.274,-1.587 19.58,-2.439 29.185,-2.185 5.673,0.157 11.374,1.857 17.513,2.185 12.281,0.68 23.768,0.337 36.474,1.461 26.311,2.327 50.48,14.633 76.609,22.618 0.038,0.112 0.055,0.226 0.075,0.342 l 5.055,0 c 0,-1.513 -0.007,-3.037 -0.013,-4.583 l -3.795,0 0,-0.212 C 328.309,45.356 315.027,42.003 299.46,36.485 281.48,30.103 265.873,25.588 244.022,24.803 c -11.042,-0.385 -23.373,-0.737 -35.765,0 -15.234,0.922 -36.463,3.255 -51.065,7.299 C 140.308,36.781 124.68,45.747 106.851,49.618 86.879,53.95 65.195,52.97 44.101,57.642 35.558,59.532 3.539,56.768 -0.41,47.421 -0.577,47.037 -0.689,46.622 -0.768,46.185 l -3.466,0 c -0.081,3.218 -0.209,6.391 -0.391,9.525 l 3.497,0 z"
           id="path4455"
           inkscape:connector-curvature="0"
           style="fill:#932f14" /><rect
           x="-4.8660002"
           y="115.003"
           width="20.672001"
           height="59.557999"
           id="rect4457"
           style="fill:#932f14" /><g
           id="g4459"><path
             d="m 346.115,171.572 -4.152,0 0,-5.358 c -0.039,1.713 -0.111,3.459 -0.174,5.247 -27.519,4.514 -68.97,1.411 -98.504,1.462 -79.854,0.139 -158.67,1.177 -241.627,0.004 l 0,0.139 -3.606,0 c 0.029,1.148 0.062,2.317 0.078,3.509 19.28,1.211 46.481,2.974 66.396,0 13.69,2.312 30.411,1.394 41.588,-0.735 7.96,2.04 15.618,0.872 22.62,0.735 71.729,-1.419 130.489,1.528 209.393,1.449 -0.205,1.494 2.129,-0.142 2.197,-0.723 2.105,-0.094 4.779,0.4 5.843,-0.727 -0.02,-1.69 -0.037,-3.363 -0.052,-5.002 z"
             id="path4461"
             inkscape:connector-curvature="0"
             style="fill:#932f14" /><path
             d="m 0.312,116.086 c 0,-0.022 0.001,-0.051 0.003,-0.072 36.306,-4.93 66.65,-15.888 94.853,-32.83 19.129,-11.489 39.82,-21.605 62.022,-27.737 35.801,-9.871 74.644,8.696 99.226,21.896 26.001,13.953 47.736,34.789 85.547,37.89 l 0,-0.091 4.01,0 c 0.006,-1.589 0.033,-3.182 0.04,-4.762 l -5.167,0 0,-0.161 c -19.899,0.233 -36.146,-8.546 -51.589,-17.548 -18.69,-10.913 -37.21,-21.59 -57.641,-32.107 -7.782,-4.009 -18.153,-7.703 -27.725,-10.945 -19.574,-6.648 -41.638,-2.629 -61.291,3.644 -7.727,2.466 -15.996,8.513 -24.814,13.135 -4.406,2.313 -8.884,4.376 -13.133,6.565 -4.588,2.375 -7.937,5.974 -11.671,8.024 C 86.929,84.321 81.9,83.391 77.656,89.748 63.713,94.915 48.021,102.877 31.694,106.525 20.761,108.972 9.83,112.05 -0.41,110.908 -0.516,98.687 -0.583,83.798 -0.781,70.775 l 0,40.378 -3.604,0 c -0.083,1.657 -0.167,3.299 -0.231,4.933 l 4.928,0 z"
             id="path4463"
             inkscape:connector-curvature="0"
             style="fill:#932f14" /></g><rect
           x="-3.165"
           y="67.949997"
           width="6.1139998"
           height="43.202999"
           id="rect4465"
           style="fill:#bf3918" /><rect
           x="339.285"
           y="9.632"
           width="6.1370001"
           height="29.472"
           id="rect4467"
           style="fill:#e94d1d" /></g></g></g><rect
     x="0"
     y="170"
     width="170"
     height="170"
     id="rect4469"
     style="fill:#932f14" /><rect
     x="0"
     y="132.021"
     width="170"
     height="170"
     id="rect4471"
     style="fill:#932f14" /></svg>