<?xml version="1.0" encoding="UTF-8" standalone="no"?>
<!-- Generator: Adobe Illustrator 15.0.0, SVG Export Plug-In . SVG Version: 6.00 Build 0)  -->

<svg
   xmlns:dc="http://purl.org/dc/elements/1.1/"
   xmlns:cc="http://creativecommons.org/ns#"
   xmlns:rdf="http://www.w3.org/1999/02/22-rdf-syntax-ns#"
   xmlns:svg="http://www.w3.org/2000/svg"
   xmlns="http://www.w3.org/2000/svg"
   xmlns:xlink="http://www.w3.org/1999/xlink"
   xmlns:sodipodi="http://sodipodi.sourceforge.net/DTD/sodipodi-0.dtd"
   xmlns:inkscape="http://www.inkscape.org/namespaces/inkscape"
   version="1.1"
   id="Layer_1"
   x="0px"
   y="0px"
   width="64"
   height="64.000198"
   viewBox="0 0 64 64.000198"
   enable-background="new 0 0 612 792"
   xml:space="preserve"
   inkscape:version="0.91 r13725"
   sodipodi:docname="block_wall.svg"><metadata
     id="metadata6465"><rdf:RDF><cc:Work
         rdf:about=""><dc:format>image/svg+xml</dc:format><dc:type
           rdf:resource="http://purl.org/dc/dcmitype/StillImage" /><dc:title></dc:title></cc:Work></rdf:RDF></metadata><defs
     id="defs6463"><clipPath
       id="SVGID_2_-3"><rect
         height="329.07501"
         width="329.07401"
         y="150.58501"
         x="127.509"
         id="use6443-7" /></clipPath><clipPath
       id="SVGID_2_-7"><rect
         height="329.07501"
         width="329.07401"
         y="150.58501"
         x="127.509"
         id="use6443-77" /></clipPath><clipPath
       id="SVGID_2_-3-9"><rect
         height="329.07501"
         width="329.07401"
         y="150.58501"
         x="127.509"
         id="use6443-7-8" /></clipPath></defs><sodipodi:namedview
     pagecolor="#ffffff"
     bordercolor="#666666"
     borderopacity="1"
     objecttolerance="10"
     gridtolerance="10"
     guidetolerance="10"
     inkscape:pageopacity="0"
     inkscape:pageshadow="2"
     inkscape:window-width="1366"
     inkscape:window-height="731"
     id="namedview6461"
     showgrid="false"
     fit-margin-top="0"
     fit-margin-left="0"
     fit-margin-right="0"
     fit-margin-bottom="0"
     inkscape:zoom="2.3838384"
     inkscape:cx="49.924091"
     inkscape:cy="51.193055"
     inkscape:window-x="0"
     inkscape:window-y="0"
     inkscape:window-maximized="1"
     inkscape:current-layer="Layer_1" /><rect
     style="opacity:1;fill:#f6a862;fill-opacity:1;stroke:#00ff00;stroke-width:0.03777126;stroke-linejoin:round;stroke-miterlimit:4;stroke-dasharray:none;stroke-opacity:1"
     id="rect7191"
     width="63.962227"
     height="63.962227"
     x="0.018885631"
     y="0.019085798" /><g
     id="g6435"
     transform="matrix(0.19448513,0,0,0.19448513,-24.798605,-29.286545)"><g
       id="g6437"><defs
         id="defs6439"><rect
           id="SVGID_1_"
           x="127.509"
           y="150.58501"
           width="329.07401"
           height="329.07501" /></defs><clipPath
         id="SVGID_2_"><use
           xlink:href="#SVGID_1_"
           overflow="visible"
           id="use6443"
           style="overflow:visible"
           x="0"
           y="0"
           width="100%"
           height="100%" /></clipPath><g
         clip-path="url(#SVGID_2_)"
         id="g6445"><g
           id="g6447"><path
             d="m 451.875,160.791 c -0.15,44.041 -0.431,101.41 0.348,147.979 -93.589,2.603 -226.501,-0.733 -316.437,-1.385 -3.821,-61.347 1.044,-103.047 -0.345,-147.979 41.489,-4.92 84.265,-1.293 137.03,-0.727 51.899,0.556 124.969,-5.35 179.404,2.112 z"
             id="path6449"
             inkscape:connector-curvature="0"
             style="clip-rule:evenodd;fill:#f6a862;fill-rule:evenodd" /><path
             d="m 447.685,320.94 c 7.025,9.362 4.408,25.026 4.149,38.504 -0.751,39.216 1.371,78.402 -5.446,117.64 -50.227,-2.314 -100.521,1.051 -143.826,-0.881 -2.866,-49.896 -1.259,-112.413 -1.385,-157.6 54.867,2.483 98.376,2.214 146.508,2.337 z"
             id="path6451"
             inkscape:connector-curvature="0"
             style="clip-rule:evenodd;fill:#f6a862;fill-rule:evenodd" /><path
             d="m 290.18,319.585 c 1.996,49.715 1.231,107.758 0.112,154.821 -20.885,2.455 -51.08,1.896 -74.035,1.541 -33.959,-0.525 -59.18,1.396 -83.381,-5.627 2.18,-49.906 -0.44,-99.744 2.487,-150.623 47.412,-5.114 96.149,-0.842 154.817,-0.112 z"
             id="path6453"
             inkscape:connector-curvature="0"
             style="clip-rule:evenodd;fill:#f6a862;fill-rule:evenodd" /></g><rect
           x="121.808"
           y="307.43201"
           width="37.998001"
           height="166.17101"
           id="rect6455"
           style="clip-rule:evenodd;fill:#f6a862;fill-rule:evenodd" /><rect
           x="420.74399"
           y="314.75699"
           width="38.001999"
           height="166.172"
           id="rect6457"
           style="clip-rule:evenodd;fill:#f6a862;fill-rule:evenodd" /><path
           d="m 437.77,477.084 0,-0.338 c -47.337,-1.6 -94.381,1.283 -135.208,-0.543 -2.866,-49.896 -1.259,-112.413 -1.385,-157.6 51.138,2.313 92.415,2.238 136.76,2.32 l 20.837,0 c -0.064,-33.062 0.171,-65.673 0.495,-96.854 0.256,-24.686 5.326,-69.348 -8.24,-78.379 -100.106,5.473 -227.408,0.931 -323.421,2.48 -6.138,55.502 1.263,95.425 -2.528,151.991 1.556,6.875 -4.415,5.674 -4.483,10.806 3.125,1.211 4.654,3.917 5.098,7.636 l 21.925,0 c 43.611,-3.29 88.935,0.31 142.561,0.982 1.996,49.715 1.231,107.758 0.112,154.821 -20.885,2.455 -51.08,1.896 -74.035,1.541 -33.959,-0.525 -59.18,1.396 -83.381,-5.627 0.007,-0.125 0.01,-0.244 0.017,-0.367 l -11.274,0 c -0.085,4.254 0.519,8.4 2.62,12.395 8.25,-1.107 19.072,4.961 17.79,0.619 89.235,-4.389 214.815,3.23 320.589,0.156 -0.106,-2 -0.198,-4.029 -0.304,-6.039 l -24.545,0 z m -301.984,-169.7 c -3.821,-61.347 1.044,-103.047 -0.345,-147.979 41.489,-4.92 84.265,-1.293 137.03,-0.727 51.898,0.556 124.969,-5.35 179.403,2.112 -0.15,44.041 -0.431,101.41 0.348,147.979 -93.588,2.604 -226.5,-0.733 -316.436,-1.385 z"
           id="path6459"
           inkscape:connector-curvature="0"
           style="clip-rule:evenodd;fill-rule:evenodd" /></g></g></g></svg>