<?xml version="1.0" encoding="UTF-8" standalone="no"?>
<!-- Created with Inkscape (http://www.inkscape.org/) -->

<svg
   xmlns:dc="http://purl.org/dc/elements/1.1/"
   xmlns:cc="http://creativecommons.org/ns#"
   xmlns:rdf="http://www.w3.org/1999/02/22-rdf-syntax-ns#"
   xmlns:svg="http://www.w3.org/2000/svg"
   xmlns="http://www.w3.org/2000/svg"
   xmlns:xlink="http://www.w3.org/1999/xlink"
   xmlns:sodipodi="http://sodipodi.sourceforge.net/DTD/sodipodi-0.dtd"
   xmlns:inkscape="http://www.inkscape.org/namespaces/inkscape"
   width="340"
   height="340"
   viewBox="0 0 340 340.00001"
   id="svg5440"
   version="1.1"
   inkscape:version="0.91 r13725"
   inkscape:export-filename="/home/sam/Development/Games/pls-no-more-water/src/assets/ground-good_32x32.png"
   inkscape:export-xdpi="16.941177"
   inkscape:export-ydpi="16.941177"
   sodipodi:docname="block_ground.svg">
  <defs
     id="defs5442">
    <clipPath
       id="SVGID_8_">
      <use
         height="100%"
         width="100%"
         y="0"
         x="0"
         style="overflow:visible"
         xlink:href="#SVGID_7_"
         overflow="visible"
         id="use4592" />
    </clipPath>
    <clipPath
       id="SVGID_6_">
      <use
         height="100%"
         width="100%"
         y="0"
         x="0"
         style="overflow:visible"
         xlink:href="#SVGID_5_"
         overflow="visible"
         id="use4552" />
    </clipPath>
    <clipPath
       id="SVGID_4_">
      <use
         height="100%"
         width="100%"
         y="0"
         x="0"
         style="overflow:visible"
         xlink:href="#SVGID_3_"
         overflow="visible"
         id="use4526" />
    </clipPath>
    <clipPath
       id="clipPath5313">
      <use
         height="100%"
         width="100%"
         y="0"
         x="0"
         style="overflow:visible"
         xlink:href="#SVGID_3_"
         overflow="visible"
         id="use5315" />
    </clipPath>
    <clipPath
       id="clipPath5317">
      <use
         height="100%"
         width="100%"
         y="0"
         x="0"
         style="overflow:visible"
         xlink:href="#SVGID_3_"
         overflow="visible"
         id="use5319" />
    </clipPath>
    <clipPath
       id="clipPath5321">
      <use
         height="100%"
         width="100%"
         y="0"
         x="0"
         style="overflow:visible"
         xlink:href="#SVGID_3_"
         overflow="visible"
         id="use5323" />
    </clipPath>
    <clipPath
       id="SVGID_2_">
      <use
         height="100%"
         width="100%"
         y="0"
         x="0"
         style="overflow:visible"
         xlink:href="#SVGID_1_"
         overflow="visible"
         id="use4488" />
    </clipPath>
    <clipPath
       id="clipPath5327">
      <use
         height="100%"
         width="100%"
         y="0"
         x="0"
         style="overflow:visible"
         xlink:href="#SVGID_1_"
         overflow="visible"
         id="use5329" />
    </clipPath>
    <clipPath
       id="clipPath5331">
      <use
         height="100%"
         width="100%"
         y="0"
         x="0"
         style="overflow:visible"
         xlink:href="#SVGID_1_"
         overflow="visible"
         id="use5333" />
    </clipPath>
    <clipPath
       id="clipPath5335">
      <use
         height="100%"
         width="100%"
         y="0"
         x="0"
         style="overflow:visible"
         xlink:href="#SVGID_1_"
         overflow="visible"
         id="use5337" />
    </clipPath>
    <clipPath
       id="clipPath5339">
      <use
         height="100%"
         width="100%"
         y="0"
         x="0"
         style="overflow:visible"
         xlink:href="#SVGID_1_"
         overflow="visible"
         id="use5341" />
    </clipPath>
    <clipPath
       id="clipPath5343">
      <use
         height="100%"
         width="100%"
         y="0"
         x="0"
         style="overflow:visible"
         xlink:href="#SVGID_1_"
         overflow="visible"
         id="use5345" />
    </clipPath>
    <clipPath
       id="clipPath5347">
      <use
         height="100%"
         width="100%"
         y="0"
         x="0"
         style="overflow:visible"
         xlink:href="#SVGID_1_"
         overflow="visible"
         id="use5349" />
    </clipPath>
    <clipPath
       id="clipPath5351">
      <use
         height="100%"
         width="100%"
         y="0"
         x="0"
         style="overflow:visible"
         xlink:href="#SVGID_1_"
         overflow="visible"
         id="use5353" />
    </clipPath>
    <clipPath
       id="clipPath5355">
      <use
         height="100%"
         width="100%"
         y="0"
         x="0"
         style="overflow:visible"
         xlink:href="#SVGID_1_"
         overflow="visible"
         id="use5357" />
    </clipPath>
    <clipPath
       id="clipPath5359">
      <use
         height="100%"
         width="100%"
         y="0"
         x="0"
         style="overflow:visible"
         xlink:href="#SVGID_1_"
         overflow="visible"
         id="use5361" />
    </clipPath>
  </defs>
  <sodipodi:namedview
     id="base"
     pagecolor="#ffffff"
     bordercolor="#666666"
     borderopacity="1.0"
     inkscape:pageopacity="0.0"
     inkscape:pageshadow="2"
     inkscape:zoom="0.89116252"
     inkscape:cx="95.113654"
     inkscape:cy="182.89536"
     inkscape:document-units="px"
     inkscape:current-layer="layer1"
     showgrid="false"
     units="px"
     fit-margin-top="0"
     fit-margin-left="0"
     fit-margin-right="0"
     fit-margin-bottom="0"
     inkscape:window-width="1366"
     inkscape:window-height="731"
     inkscape:window-x="0"
     inkscape:window-y="0"
     inkscape:window-maximized="1" />
  <metadata
     id="metadata5445">
    <rdf:RDF>
      <cc:Work
         rdf:about="">
        <dc:format>image/svg+xml</dc:format>
        <dc:type
           rdf:resource="http://purl.org/dc/dcmitype/StillImage" />
        <dc:title></dc:title>
      </cc:Work>
    </rdf:RDF>
  </metadata>
  <g
     inkscape:label="Layer 1"
     inkscape:groupmode="layer"
     id="layer1"
     transform="translate(4.1601563e-6,-712.3622)">
    <rect
       style="opacity:1;fill:#b9b9b9;fill-opacity:1;stroke:#00ff00;stroke-width:0.08855961;stroke-linejoin:round;stroke-miterlimit:4;stroke-dasharray:none;stroke-opacity:1"
       id="rect6194"
       width="339.91144"
       height="339.91144"
       x="0.044275641"
       y="712.40649" />
    <g
       transform="matrix(0.99998824,0,0,1,-145.8683,512.95919)"
       id="g4482">
      <defs
         id="defs4484">
        <rect
           id="SVGID_1_"
           x="315.87201"
           y="369.40302"
           width="170.002"
           height="170" />
      </defs>
      <clipPath
         id="clipPath5366">
        <use
           height="100%"
           width="100%"
           y="0"
           x="0"
           style="overflow:visible"
           xlink:href="#SVGID_1_"
           overflow="visible"
           id="use5368" />
      </clipPath>
      <g
         clip-path="url(#SVGID_2_)"
         id="g4490">
        <path
           style="clip-rule:evenodd;fill:#b9b9b9;fill-rule:evenodd"
           inkscape:connector-curvature="0"
           d="m 480.528,372.462 c 0.78,14.614 1.793,37.769 -1.391,55.499 -1.605,1.407 -2.95,-1.655 -5.549,-1.39 -3.897,4.748 -2.232,13.011 -11.795,11.795 -0.308,2.195 -1.478,2.968 -0.697,6.25 -10.824,0.71 -16.867,4.383 -24.28,0 -2.813,0.188 -2.859,3.15 -4.859,4.159 -5.176,0.124 -8.737,-2.793 -12.489,-2.083 -1.253,3.369 -4.856,4.391 -7.628,6.242 -19.324,0.19 -35.42,1.045 -57.583,0.692 0.5,-5.582 -5.279,-4.897 -7.635,-7.624 -1.867,-1.951 1.233,-2.852 0.695,-5.558 -3.468,-1.398 -6.433,1.88 -11.796,0.693 -0.377,-3.781 -3.42,-4.901 -2.78,-9.708 3.077,-1.548 6.371,-2.889 7.635,-6.246 -1.164,-3.457 -6.954,-2.295 -8.319,-5.545 4.52,-3.241 1.832,-8.878 -0.693,-12.497 0.799,-1.73 1.967,-3.112 2.769,-4.852 -1.488,-2.673 -2.63,-5.694 -4.159,-8.325 0.588,-1.806 3.045,1.332 4.159,-0.693 -2.208,-8.085 -15.008,-8.538 -11.099,-18.731 46.015,-2.074 103.896,-1.177 157.494,-2.078 z"
           id="path4492" />
        <path
           style="clip-rule:evenodd;fill:#68b42e;fill-rule:evenodd"
           inkscape:connector-curvature="0"
           d="m 321.646,386.333 c 2.587,0.419 4.289,1.718 5.549,3.47 -1.444,4.61 0.653,6.956 2.085,10.405 -3.805,3.793 -0.825,9.587 1.389,13.186 -0.288,2.481 -2.65,2.9 -2.778,5.549 0.417,3.748 4.188,4.134 4.852,7.629 -2.134,0.863 -3.719,2.295 -4.852,4.162 0.942,4.466 3.99,7.463 1.39,11.791 1.63,3.233 6.847,2.868 11.794,2.785 2.901,0.564 2.015,4.923 5.549,4.852 -2.069,2.025 -3.603,0.863 -5.549,3.466 -7.441,0.507 -12.739,-1.142 -20.123,-0.692 1.155,-25.241 0.484,-42.634 0.694,-66.603 z"
           id="path4494" />
        <path
           style="clip-rule:evenodd;fill:#68b42e;fill-rule:evenodd"
           inkscape:connector-curvature="0"
           d="m 474.976,432.813 c 2.485,-0.133 3.968,4.312 5.553,2.78 1.81,22.063 0.693,41.985 0.693,70.075 -1.444,2.254 -3.208,4.191 -4.159,6.939 -2.527,-2.104 2.088,-11.348 -3.474,-10.413 1.104,-3.366 2.76,-8.492 -2.083,-9.019 0.058,-2.947 3.719,-2.3 4.864,-4.168 -0.208,-3.951 -2.52,-5.811 -2.781,-9.707 1.979,-2.42 5.155,-3.636 5.549,-7.633 -3.37,-2.843 -5.573,1.046 -10.404,-0.689 0.107,-2.216 1.572,-3.055 1.386,-5.553 -1.9,-2.863 -6.338,-0.473 -9.716,-0.697 0.913,-3.914 -2.752,-3.258 -2.769,-6.242 -1.884,0.432 -1.73,2.901 -4.163,2.776 -0.228,-1.64 -2.153,-1.552 -2.776,-2.776 -1.436,2.963 -3.158,5.628 -4.163,9.019 -2.162,-3.669 -4.776,-8.836 -9.026,-8.325 -1.81,0.489 -1.361,3.258 -2.769,4.167 -1.378,-0.013 -0.884,-1.897 -2.78,-1.391 -1.441,0.179 -0.188,3.055 -1.383,3.47 -5.777,-1.166 -5.943,-7.936 -11.106,-9.712 0.764,-2.478 2.387,-4.101 4.864,-4.856 2.645,1.744 6.416,2.366 10.405,2.769 0.801,-1.73 1.972,-3.112 2.769,-4.852 5.055,2.274 7.255,3.274 13.189,4.159 1.444,-3.798 9.555,-2.508 11.791,-3.466 2.562,-1.101 1.225,-5.034 2.088,-6.242 5.399,2.37 5.757,-3.757 10.401,-4.159 0,-2.088 0,-4.171 0,-6.254 z"
           id="path4496" />
        <path
           style="clip-rule:evenodd;fill:#b9b9b9;fill-rule:evenodd"
           inkscape:connector-curvature="0"
           d="m 401.435,456.408 c -0.046,31.912 2.104,52.714 -1.391,79.787 -3.063,1.407 -8.952,0.356 -11.099,-1.391 -1.846,0.236 -2.432,1.735 -4.166,2.079 -20.8,0.594 -42.271,-0.021 -63.134,-0.688 2.241,-4.977 -1.7,-9.517 -1.384,-14.572 0.18,-2.889 1.965,-5.388 2.076,-8.325 0.173,-4.329 -1.369,-8.758 -1.388,-13.187 -0.066,-16.485 1.011,-28.55 0.695,-42.325 1.677,-1.316 3.966,1.174 6.939,0.701 0.664,-1.188 2.177,-1.523 3.472,-2.079 15.566,0.34 47.818,-0.182 69.38,0 z"
           id="path4498" />
        <path
           style="clip-rule:evenodd;fill:#b9b9b9;fill-rule:evenodd"
           inkscape:connector-curvature="0"
           d="m 432.649,473.056 c 1.631,-3.686 6.524,-4.117 6.251,-9.708 5.304,0.478 3.424,8.135 8.325,9.015 2.038,-1.432 2.324,-4.615 3.47,-6.936 1.204,-1.668 5.558,4.499 6.242,-0.697 2.466,1.092 0.142,2.955 1.387,5.553 3.677,0.901 3.544,-2.008 6.939,-1.39 -0.59,4.013 -0.374,10.206 5.553,6.939 -0.681,3.021 -0.058,6.956 1.378,9.72 -0.755,2.47 -3.723,2.744 -4.158,5.549 -0.166,3.172 0.938,5.076 2.78,6.242 -1.179,3.836 -1.253,4.554 -1.386,9.016 0.83,2.805 2.369,0.867 4.158,2.083 -0.224,4.358 -1.295,7.749 -0.697,12.497 1.125,-0.203 1.199,0.651 2.084,0.685 3.403,-0.987 3.81,-4.972 5.553,-7.628 1.553,7.951 1.627,14.426 -0.697,22.2 -27.355,1.556 -45.02,-0.232 -72.848,0.688 -1.062,-17.826 -1.47,-39.74 -1.386,-59.666 0.024,-7.01 0.248,-14.394 1.386,-20.117 3.138,-0.598 4.325,0.764 4.856,2.777 11.746,-3.067 13.083,9.957 20.81,13.178 z"
           id="path4500" />
      </g>
      <rect
         style="clip-rule:evenodd;fill:#b9b9b9;fill-rule:evenodd"
         x="317.98401"
         y="454.33701"
         clip-path="url(#SVGID_2_)"
         width="22.896"
         height="84.501999"
         id="rect4502" />
      <rect
         style="clip-rule:evenodd;fill:#b9b9b9;fill-rule:evenodd"
         x="476.146"
         y="514.01599"
         clip-path="url(#SVGID_2_)"
         width="9.2180004"
         height="24.521"
         id="rect4504" />
      <path
         style="clip-rule:evenodd;fill-rule:evenodd"
         inkscape:connector-curvature="0"
         clip-path="url(#SVGID_2_)"
         d="m 479.831,536.195 c -27.355,1.556 -45.02,-0.232 -72.848,0.688 -1.062,-17.826 -1.47,-39.74 -1.386,-59.666 0.024,-7.01 0.248,-14.394 1.386,-20.117 3.138,-0.598 4.325,0.764 4.856,2.777 11.745,-3.067 13.082,9.957 20.81,13.178 1.631,-3.686 6.524,-4.117 6.251,-9.708 5.304,0.478 3.424,8.135 8.325,9.015 2.038,-1.432 2.324,-4.615 3.47,-6.936 1.204,-1.668 5.558,4.499 6.242,-0.697 2.466,1.092 0.142,2.955 1.387,5.553 3.677,0.901 3.544,-2.008 6.939,-1.39 -0.59,4.013 -0.374,10.206 5.553,6.939 -0.681,3.021 -0.058,6.956 1.378,9.72 -0.755,2.47 -3.723,2.744 -4.158,5.549 -0.166,3.172 0.938,5.076 2.78,6.242 -1.179,3.836 -1.253,4.554 -1.386,9.016 0.83,2.805 2.369,0.867 4.158,2.083 -0.224,4.358 -1.295,7.749 -0.697,12.497 1.125,-0.203 1.199,0.651 2.084,0.685 2.9,-0.843 3.627,-3.852 4.855,-6.375 l 0,-0.365 0.191,0 c 0.157,-0.308 0.323,-0.61 0.506,-0.888 0.059,0.299 0.1,0.58 0.158,0.888 l 4.092,0 c 0.125,-7.483 0.424,-14.908 0.606,-22.399 0.107,-4.591 -1.951,-9.048 -2.084,-13.875 -0.207,-7.607 1.752,-15.261 1.391,-22.894 -0.54,-11.127 -2.603,-26.587 2.079,-35.382 -3.802,-1.885 -3.482,-5.902 -3.47,-13.19 0.021,-11.521 1.079,-26.081 1.391,-38.154 -46.53,-3.872 -103.029,2.117 -151.253,0 -5.982,-0.262 -12.308,-1.581 -14.565,0.693 -3.728,3.76 0.67,12.613 0.691,19.428 0.056,17.423 -0.169,42.878 -0.379,67.847 l 11.497,0 c 0.459,-0.179 0.926,-0.354 1.374,-0.548 15.564,0.34 47.816,-0.183 69.378,0 -0.046,31.912 2.104,52.714 -1.391,79.787 -3.063,1.407 -8.952,0.356 -11.099,-1.391 -1.846,0.236 -2.432,1.735 -4.166,2.079 -17.35,0.502 -35.166,0.154 -52.706,-0.373 l 0,0.008 -14.161,0 c 0.236,1.025 0.552,1.868 0.963,2.449 2.415,3.411 16.914,1.552 25.666,1.391 10.768,-0.191 20.168,0 27.756,0 48.235,0 79.895,-0.184 113.09,-0.697 -0.096,-1.171 -0.154,-2.312 -0.225,-3.466 l -5.329,0 z m 1.391,-30.526 c -1.444,2.254 -3.208,4.191 -4.159,6.939 -2.527,-2.104 2.088,-11.348 -3.474,-10.413 1.104,-3.366 2.76,-8.492 -2.083,-9.019 0.058,-2.947 3.719,-2.3 4.864,-4.168 -0.208,-3.951 -2.52,-5.811 -2.781,-9.707 1.979,-2.42 5.155,-3.636 5.549,-7.633 -3.37,-2.843 -5.573,1.046 -10.404,-0.689 0.107,-2.216 1.572,-3.055 1.386,-5.553 -1.9,-2.863 -6.338,-0.473 -9.716,-0.697 0.913,-3.914 -2.752,-3.258 -2.769,-6.242 -1.884,0.432 -1.73,2.901 -4.163,2.776 -0.228,-1.64 -2.153,-1.552 -2.776,-2.776 -1.436,2.963 -3.158,5.628 -4.163,9.019 -2.162,-3.669 -4.776,-8.836 -9.026,-8.325 -1.81,0.489 -1.361,3.258 -2.769,4.167 -1.378,-0.013 -0.884,-1.897 -2.78,-1.391 -1.441,0.179 -0.188,3.055 -1.383,3.47 -5.777,-1.166 -5.943,-7.936 -11.106,-9.712 0.764,-2.478 2.387,-4.101 4.864,-4.856 2.645,1.744 6.416,2.366 10.405,2.769 0.801,-1.73 1.972,-3.112 2.769,-4.852 5.055,2.274 7.255,3.274 13.189,4.159 1.444,-3.798 9.555,-2.508 11.791,-3.466 2.562,-1.101 1.225,-5.034 2.088,-6.242 5.399,2.37 5.757,-3.757 10.401,-4.159 0,-2.088 0,-4.171 0,-6.254 2.485,-0.133 3.968,4.312 5.553,2.78 1.809,22.063 0.693,41.985 0.693,70.075 z M 341.073,453.627 c -7.441,0.507 -12.739,-1.142 -20.123,-0.692 1.157,-25.239 0.485,-42.633 0.695,-66.602 2.587,0.419 4.289,1.718 5.549,3.47 -1.444,4.61 0.653,6.956 2.085,10.405 -3.805,3.793 -0.825,9.587 1.389,13.186 -0.288,2.481 -2.65,2.9 -2.778,5.549 0.417,3.748 4.188,4.134 4.852,7.629 -2.134,0.863 -3.719,2.295 -4.852,4.162 0.942,4.466 3.99,7.463 1.39,11.791 1.63,3.233 6.847,2.868 11.794,2.785 2.901,0.564 2.015,4.923 5.549,4.852 -2.07,2.025 -3.603,0.862 -5.55,3.465 z m 13.184,0 c 0.5,-5.582 -5.279,-4.897 -7.635,-7.624 -1.867,-1.951 1.233,-2.852 0.695,-5.558 -3.468,-1.398 -6.433,1.88 -11.796,0.693 -0.377,-3.781 -3.42,-4.901 -2.78,-9.708 3.077,-1.548 6.371,-2.889 7.635,-6.246 -1.164,-3.457 -6.954,-2.295 -8.319,-5.545 4.52,-3.241 1.832,-8.878 -0.693,-12.497 0.799,-1.73 1.967,-3.112 2.769,-4.852 -1.488,-2.673 -2.63,-5.694 -4.159,-8.325 0.588,-1.806 3.045,1.332 4.159,-0.693 -2.208,-8.085 -15.008,-8.538 -11.099,-18.731 46.016,-2.075 103.896,-1.179 157.495,-2.08 0.78,14.614 1.793,37.769 -1.391,55.499 -1.605,1.407 -2.95,-1.655 -5.549,-1.39 -3.897,4.748 -2.232,13.011 -11.795,11.795 -0.308,2.195 -1.478,2.968 -0.697,6.25 -10.824,0.71 -16.867,4.383 -24.28,0 -2.813,0.188 -2.859,3.15 -4.859,4.159 -5.176,0.124 -8.737,-2.793 -12.489,-2.083 -1.253,3.369 -4.856,4.391 -7.628,6.242 -19.325,0.192 -35.421,1.046 -57.584,0.694 z"
         id="path4506" />
      <rect
         style="clip-rule:evenodd;fill-rule:evenodd"
         x="483.052"
         y="368.75601"
         clip-path="url(#SVGID_2_)"
         width="15.286"
         height="145.25999"
         id="rect4508" />
      <rect
         style="clip-rule:evenodd;fill-rule:evenodd"
         x="308.82599"
         y="368.75601"
         clip-path="url(#SVGID_2_)"
         width="11.77"
         height="88.199997"
         id="rect4510" />
      <rect
         style="clip-rule:evenodd;fill-rule:evenodd"
         x="480.86899"
         y="535.755"
         clip-path="url(#SVGID_2_)"
         width="17.788"
         height="6.1680002"
         id="rect4512" />
      <rect
         style="clip-rule:evenodd;fill:#b9b9b9;fill-rule:evenodd"
         x="480.65701"
         y="514.01599"
         clip-path="url(#SVGID_2_)"
         width="20.079"
         height="22.004999"
         id="rect4514" />
      <rect
         style="clip-rule:evenodd;fill:#b9b9b9;fill-rule:evenodd"
         x="298.789"
         y="456.95599"
         clip-path="url(#SVGID_2_)"
         width="20.077999"
         height="80.168999"
         id="rect4516" />
      <rect
         style="clip-rule:evenodd;fill-rule:evenodd"
         x="302.75299"
         y="536.51898"
         clip-path="url(#SVGID_2_)"
         width="17.788"
         height="6.533"
         id="rect4518" />
    </g>
    <g
       transform="translate(-315.87299,556.8962)"
       id="g4520">
      <defs
         id="defs4522">
        <rect
           id="SVGID_3_"
           x="315.87299"
           y="155.466"
           width="170"
           height="170" />
      </defs>
      <clipPath
         id="clipPath5388">
        <use
           height="100%"
           width="100%"
           y="0"
           x="0"
           style="overflow:visible"
           xlink:href="#SVGID_3_"
           overflow="visible"
           id="use5390" />
      </clipPath>
      <g
         clip-path="url(#SVGID_4_)"
         id="g4528">
        <path
           style="clip-rule:evenodd;fill:#b9b9b9;fill-rule:evenodd"
           inkscape:connector-curvature="0"
           d="m 483.168,157.358 c -0.378,25.923 1.727,55.154 -1.138,81.447 -14.439,-0.577 -23.167,-0.423 -36.116,0.125 -1.723,-0.863 -2.931,-2.258 -4.969,-2.81 -13.352,4.565 -21.021,-9.135 -31.198,-9.812 -1.158,-0.315 -1.146,3.864 0.013,3.541 -2.312,1.818 -4.453,-2.594 -7.094,-2.81 -3.232,0.37 -0.477,2.3 -2.107,4.259 -3.96,-2.046 -8.127,-2.586 -12.045,0.041 -3.586,-0.884 -3.354,-5.624 -9.223,-4.217 -2.93,0.374 -0.215,6.375 -2.092,7.799 -22.175,-2.748 -36.174,6.74 -58.076,1.619 -0.502,-22.159 -0.436,-54.449 -0.27,-78.617 48.983,-1.262 108.516,-0.079 164.315,-0.565 z"
           id="path4530" />
        <path
           style="clip-rule:evenodd;fill:#68b42e;fill-rule:evenodd"
           inkscape:connector-curvature="0"
           d="m 382.861,233.485 c 6.607,5.424 13.986,-1.909 20.548,3.474 1.241,-0.656 2.457,-1.328 2.112,-3.557 2.773,1.245 4.566,3.465 8.513,3.52 1.831,-0.913 2.221,-1.469 1.407,-3.548 4.831,1.291 8.554,3.706 9.944,8.467 2.415,-0.635 5.346,-1.146 7.081,0.685 -2.74,5.665 -12.41,0.208 -15.564,5.01 -0.444,3.05 2.905,2.282 2.146,5.661 -3.125,2.137 -7.89,-1.278 -12.032,2.166 0.682,5.931 4.093,9.135 5.711,14.141 -0.473,1.652 -2.345,1.905 -2.822,3.553 1.047,9.227 3.026,16.021 5.749,23.354 -2.781,-1.64 -2.628,0.875 -5.665,0.726 -0.918,1.672 -0.278,4.897 -1.395,6.379 -2.623,-5.645 0.194,-16.776 -7.845,-16.971 -0.622,-5.296 -3.648,-8.172 -3.59,-14.153 -3.724,-2.573 -6.329,-3.428 -11.348,-3.503 -1.166,-1.1 0.237,-2.769 0.693,-4.25 -0.714,-1.884 -2.864,-2.333 -4.259,-3.528 0.98,-2.087 3.445,-2.689 3.52,-5.678 -2.017,-3.889 -6.254,-5.549 -12.766,-4.918 -0.291,-1.706 1.29,-1.54 0.697,-3.544 -2.719,-2.495 -9.547,-0.602 -14.17,-1.366 0.216,-1.656 1.378,-2.93 -0.017,-4.25 -2.167,-1.884 -3.271,-0.457 -6.375,-1.395 9.347,-0.693 18.108,-1.722 27.616,-0.805 1.575,-1.026 0.965,-4.214 2.111,-5.67 z"
           id="path4532" />
        <path
           style="clip-rule:evenodd;fill:#68b42e;fill-rule:evenodd"
           inkscape:connector-curvature="0"
           d="m 441.672,241.781 c -4.562,2.262 -5.686,-2.747 0,0 l 0,0 z"
           id="path4534" />
        <path
           style="clip-rule:evenodd;fill:#b9b9b9;fill-rule:evenodd"
           inkscape:connector-curvature="0"
           d="m 356,249.165 c 3.465,-0.49 3.328,-0.141 7.08,-0.025 2.25,5.59 12.202,4.636 17.017,5.603 1.983,2.482 -3.163,2.603 -3.52,4.968 1.47,3.491 4.673,5.234 4.283,10.613 2.32,2.399 6.18,3.25 11.339,2.793 3.686,7.782 1.021,17.572 9.28,20.503 -0.946,11.123 5.919,17.439 2.935,29.737 -25.338,0.203 -53.138,1.142 -84.282,-0.419 -0.208,-25.895 -1.851,-51.312 -0.274,-78.617 11.721,-4.739 24.679,-0.365 34,-0.116 0.415,1.951 1.768,2.955 2.142,4.96 z"
           id="path4536" />
        <path
           style="clip-rule:evenodd;fill:#b9b9b9;fill-rule:evenodd"
           inkscape:connector-curvature="0"
           d="m 483.462,243.056 c -0.149,33.328 0.627,58.683 -1.142,80.036 -25.03,2.079 -48.625,0.369 -72.947,0.249 -2.141,-9.239 -0.519,-15.547 6.309,-18.436 -0.29,-1.838 -2.116,-2.125 -2.137,-4.238 3.881,-0.153 4.499,1.872 7.794,0.681 -3.706,-9.782 -6.163,-17.323 -7.176,-26.895 5.819,-5.756 -1.138,-10.417 -2.183,-16.987 1.938,-1.204 8.549,1.299 11.33,-0.747 1.444,-2.822 -1.236,-4.607 -1.444,-7.786 4.35,2.208 8.396,-2.565 12.044,0.672 2.375,0 1.901,-2.818 2.814,-4.267 2.606,0.22 3.926,1.731 6.383,2.104 2.922,-0.162 1.715,-4.416 4.234,-4.972 14.074,-1.585 25.459,0.088 36.121,0.586 z"
           id="path4538" />
      </g>
      <rect
         style="clip-rule:evenodd;fill:#b9b9b9;fill-rule:evenodd"
         x="464.51599"
         y="241.063"
         clip-path="url(#SVGID_4_)"
         width="23.059999"
         height="83.813004"
         id="rect4540" />
      <rect
         style="clip-rule:evenodd;fill:#b9b9b9;fill-rule:evenodd"
         x="315.87299"
         y="241.661"
         clip-path="url(#SVGID_4_)"
         width="23.061001"
         height="83.817001"
         id="rect4542" />
      <path
         style="clip-rule:evenodd;fill-rule:evenodd"
         inkscape:connector-curvature="0"
         clip-path="url(#SVGID_4_)"
         d="m 488.608,323.818 -10.288,0 0,-0.436 c -23.554,1.606 -45.929,0.071 -68.947,-0.042 -2.141,-9.239 -0.519,-15.547 6.309,-18.436 -0.29,-1.838 -2.116,-2.125 -2.137,-4.238 3.881,-0.153 4.499,1.872 7.794,0.681 -3.706,-9.782 -6.163,-17.323 -7.176,-26.895 5.819,-5.756 -1.138,-10.417 -2.183,-16.987 1.938,-1.204 8.549,1.299 11.33,-0.747 1.444,-2.822 -1.236,-4.607 -1.444,-7.786 4.35,2.208 8.396,-2.565 12.044,0.672 2.375,0 1.901,-2.818 2.814,-4.267 2.606,0.22 3.926,1.731 6.383,2.104 2.922,-0.162 1.715,-4.416 4.234,-4.972 11.845,-1.333 21.772,-0.365 30.986,0.278 l 9.438,0 c 0.184,-1.569 0.391,-3.125 0.64,-4.673 -1.22,-0.27 -1.81,1.066 -2.125,0.013 2.885,-23.126 0.05,-56.524 0.423,-84.282 -37.66,1.104 -79.666,-0.656 -118.995,-1.009 -10.874,-0.095 -21.985,2.606 -31.867,1.523 -7.421,-0.813 -14.277,-2.42 -21.25,-0.635 -0.087,27.177 0.444,65.759 0.901,90.437 l 4.926,0 c 11.571,-4.383 24.268,-0.166 33.439,0.083 0.416,1.951 1.769,2.955 2.143,4.96 3.465,-0.49 3.328,-0.141 7.08,-0.025 2.25,5.59 12.202,4.636 17.017,5.603 1.983,2.482 -3.163,2.603 -3.52,4.968 1.47,3.491 4.673,5.234 4.283,10.613 2.32,2.399 6.18,3.25 11.339,2.793 3.686,7.782 1.021,17.572 9.28,20.503 -0.946,11.123 5.919,17.439 2.935,29.737 -25.338,0.203 -53.138,1.142 -84.282,-0.419 l -4.192,0 c -0.635,2.237 -1.087,3.561 2.084,6.387 3.935,-1.349 7.952,-2.067 12.036,-2.175 52.718,-1.366 105.942,0.726 158.653,0.872 0.348,-1.281 0.224,-2.729 -0.105,-4.203 z m -46.936,-82.037 c -4.562,2.262 -5.686,-2.747 0,0 l 0,0 z M 319.123,236.54 c -0.502,-22.159 -0.436,-54.449 -0.27,-78.617 48.982,-1.262 108.516,-0.079 164.314,-0.564 -0.378,25.923 1.727,55.154 -1.138,81.447 -14.439,-0.577 -23.167,-0.423 -36.116,0.125 -1.723,-0.863 -2.931,-2.258 -4.969,-2.81 -13.352,4.565 -21.021,-9.135 -31.198,-9.812 -1.158,-0.315 -1.146,3.864 0.013,3.541 -2.312,1.818 -4.453,-2.594 -7.094,-2.81 -3.232,0.37 -0.477,2.3 -2.107,4.259 -3.96,-2.046 -8.127,-2.586 -12.045,0.041 -3.586,-0.884 -3.354,-5.624 -9.223,-4.217 -2.93,0.374 -0.215,6.375 -2.092,7.799 -22.174,-2.749 -36.173,6.739 -58.075,1.618 z m 81.626,50.003 c -0.622,-5.296 -3.648,-8.172 -3.59,-14.153 -3.724,-2.573 -6.329,-3.428 -11.348,-3.503 -1.166,-1.1 0.237,-2.769 0.693,-4.25 -0.714,-1.884 -2.864,-2.333 -4.259,-3.528 0.98,-2.087 3.445,-2.689 3.52,-5.678 -2.017,-3.889 -6.254,-5.549 -12.766,-4.918 -0.291,-1.706 1.29,-1.54 0.697,-3.544 -2.719,-2.495 -9.547,-0.602 -14.17,-1.366 0.216,-1.656 1.378,-2.93 -0.017,-4.25 -2.167,-1.884 -3.271,-0.457 -6.375,-1.395 9.347,-0.693 18.108,-1.722 27.616,-0.805 1.573,-1.025 0.963,-4.213 2.109,-5.669 6.607,5.424 13.986,-1.909 20.548,3.474 1.241,-0.656 2.457,-1.328 2.112,-3.557 2.773,1.245 4.566,3.465 8.513,3.52 1.831,-0.913 2.221,-1.469 1.407,-3.548 4.831,1.291 8.554,3.706 9.944,8.467 2.415,-0.635 5.346,-1.146 7.081,0.685 -2.74,5.665 -12.41,0.208 -15.564,5.01 -0.444,3.05 2.905,2.282 2.146,5.661 -3.125,2.137 -7.89,-1.278 -12.032,2.166 0.682,5.931 4.093,9.135 5.711,14.141 -0.473,1.652 -2.345,1.905 -2.822,3.553 1.047,9.227 3.026,16.021 5.749,23.354 -2.781,-1.64 -2.628,0.875 -5.665,0.726 -0.918,1.672 -0.278,4.897 -1.395,6.379 -2.621,-5.645 0.196,-16.777 -7.843,-16.972 z"
         id="path4544" />
    </g>
    <g
       transform="translate(-75.083,726.8962)"
       id="g4546">
      <defs
         id="defs4548">
        <rect
           id="SVGID_5_"
           x="75.083"
           y="155.466"
           width="170"
           height="170" />
      </defs>
      <clipPath
         id="clipPath5404">
        <use
           height="100%"
           width="100%"
           y="0"
           x="0"
           style="overflow:visible"
           xlink:href="#SVGID_5_"
           overflow="visible"
           id="use5406" />
      </clipPath>
      <g
         clip-path="url(#SVGID_6_)"
         id="g4554">
        <g
           id="g4556">
          <path
             style="clip-rule:evenodd;fill:#68b42e;fill-rule:evenodd"
             inkscape:connector-curvature="0"
             d="m 133.933,157.616 c -0.514,3.104 -0.964,6.271 -2.209,8.616 -1.855,-1.27 -2.947,-3.279 -5.003,-4.329 -3.931,0.348 -3.98,4.644 -7.218,5.694 -2.862,-0.311 0.245,-2.46 -2.142,-3.614 -4.416,-1.084 -9.245,-1.81 -10.012,-6.508 5.994,0.959 16.812,-0.631 26.584,0.141 z"
             id="path4558" />
          <path
             style="clip-rule:evenodd;fill:#b9b9b9;fill-rule:evenodd"
             inkscape:connector-curvature="0"
             d="m 155.494,157.74 c 6.614,5.321 4.022,13.438 6.348,20.856 5.697,-2.192 5.846,-9.995 10.854,-12.862 3.518,-0.639 2.725,3.021 5.731,2.885 2.425,0.07 3.129,-1.652 4.323,-2.843 3.644,1.166 3.921,5.645 7.147,7.238 2.043,-1.32 3.897,-2.801 3.635,-6.454 5.039,0.801 7.585,2.021 12.193,4.366 4.526,0.98 3.383,-3.814 7.909,-2.831 2.395,2.457 0.209,3.491 0.675,8.629 0.092,1.548 1.807,1.535 3.6,1.46 -1.617,2.959 -3.94,9.778 -1.521,12.933 4.136,0.319 4.809,-2.847 7.214,-4.283 4.355,0.693 3.198,6.844 4.268,10.799 4.518,1.204 4.439,-2.225 7.909,-2.121 1.982,3.408 -1.658,8.628 0.652,12.232 1.934,2.498 3.283,-4.305 5.756,-1.424 -1.141,10.355 -0.361,15.995 -0.865,29.48 -18.683,0.315 -33.098,-0.374 -47.436,-0.27 -13.225,0.129 -31.908,-0.158 -47.439,1.925 -24.163,-4.133 -50.786,3.728 -68.975,-2.511 -0.21,-23.42 0.109,-50.614 0.404,-76.891 5.599,-1.734 15.477,0.059 20.119,-0.618 3.316,6.006 9.266,9.434 16.462,11.592 1.189,3.233 0.901,3.508 1.403,7.18 5.983,0.287 5.62,-5.869 9.379,-7.844 3.024,1.054 2.949,5.184 4.991,7.197 5.581,-3.287 4.192,-13.597 8.735,-17.926 6.94,-0.122 9.723,-0.205 16.529,0.106 z"
             id="path4560" />
          <path
             style="clip-rule:evenodd;fill:#68b42e;fill-rule:evenodd"
             inkscape:connector-curvature="0"
             d="m 243.159,158.176 c -0.39,12.376 -1.45,27.144 -0.911,38.101 -1.476,0.424 -0.23,3.64 -2.895,2.852 0.942,-5.47 -1.079,-7.981 -3.544,-10.086 -1.631,0.989 -2.787,2.475 -4.333,3.586 0.473,-5.134 -2.064,-9.292 -4.964,-12.958 -4.512,-0.477 -3.188,4.96 -7.218,4.989 1.575,-4.432 6.306,-11.891 -1.357,-12.945 3.918,-7.084 -7.319,-13.194 -10.762,-5.101 -1.523,-2.569 -5.288,-4.951 -9.32,-2.897 -1.446,-1.582 -0.913,-2.918 -4.295,-3.627 -2.028,0.838 -2.196,3.541 -2.908,5.719 -2.924,-1.378 -3.924,-4.681 -7.155,-5.761 -2.075,0.283 -3.272,1.494 -3.603,3.558 -1.97,-1.636 -3.567,-3.62 -5.007,-5.782 27.446,0.443 43.106,0.406 68.272,0.352 z"
             id="path4562" />
          <path
             style="clip-rule:evenodd;fill:#68b42e;fill-rule:evenodd"
             inkscape:connector-curvature="0"
             d="m 164.121,157.777 c 2.137,0.009 4.295,0.017 6.45,0.029 -0.679,4.357 -2.777,7.296 -4.356,10.762 -2.667,-2.585 1.485,-7.275 -2.094,-10.791 z"
             id="path4564" />
          <path
             style="clip-rule:evenodd;fill:#b9b9b9;fill-rule:evenodd"
             inkscape:connector-curvature="0"
             d="m 241.285,240.819 c -1.44,25.147 -0.597,57.234 -3.312,83.344 -23.678,-1.303 -52.512,2.739 -67.527,-3.956 -0.702,-4.2 0.33,-9.994 -2.793,-15.812 -3.433,-2.179 -1.683,3.673 -5.051,3.582 -1.507,-3.055 -3.237,-5.874 -4.985,-8.679 -0.329,-19.702 0.146,-41.5 1.744,-58.89 23.055,0.278 59.003,0.021 81.924,0.411 z"
             id="path4566" />
          <path
             style="clip-rule:evenodd;fill:#b9b9b9;fill-rule:evenodd"
             inkscape:connector-curvature="0"
             d="m 154.336,241.101 c -1.338,19.44 2.499,43.089 -5.343,57.454 -3.341,-1.942 -6.113,-4.433 -10.743,-5.101 -2.987,0.44 -2.547,5.736 -0.756,7.209 -1.168,1.054 -3.457,-0.49 -5.04,1.394 -0.172,4.205 0.495,7.612 2.091,10.082 -1.54,2.179 -3.03,-1.718 -5.009,-1.469 -4.503,0.983 -6.396,4.619 -9.38,7.143 -6.541,-3.419 -17.436,-4.644 -17.996,4.938 -8.82,0.615 -15.699,-0.635 -23.703,-0.128 -2.577,-26.002 -0.545,-54.997 -1.027,-81.207 24.115,-0.904 52.683,-0.996 76.906,-0.315 z"
             id="path4568" />
          <path
             style="clip-rule:evenodd;fill:#68b42e;fill-rule:evenodd"
             inkscape:connector-curvature="0"
             d="m 141.084,299.941 c 0.481,0 0.965,0 1.434,0.003 4.777,0.776 3.557,7.45 7.865,8.654 3.285,-1.894 1.648,-4.362 2.912,-7.866 3.158,4.973 4.401,11.833 7.817,16.569 2.596,-0.261 2.646,-1.929 5.041,-0.68 -0.01,2.158 -0.021,4.312 -0.029,6.466 -8.035,2.32 -27.233,-1.211 -33.072,1.245 -2.291,-2.038 -5.031,-1.158 -10.055,-1.489 0.753,-3.557 3.904,-4.715 6.512,-6.446 2.58,0.793 4.582,2.138 5.728,4.375 6.003,-0.913 1.162,-8.562 2.928,-10.779 2.326,-0.862 0.53,2.337 2.856,1.47 0.956,-0.266 1.144,-1.275 2.181,-1.444 -1.229,-4.421 -2.041,-5.28 -2.118,-10.078 z"
             id="path4570" />
          <path
             style="clip-rule:evenodd;fill:#68b42e;fill-rule:evenodd"
             inkscape:connector-curvature="0"
             d="m 110.788,321.341 c 2.21,-0.502 2.623,0.768 4.312,0.763 -0.014,1.071 -5.33,1.532 -4.312,-0.763 z"
             id="path4572" />
        </g>
        <rect
           style="clip-rule:evenodd;fill:#b9b9b9;fill-rule:evenodd"
           x="71.276001"
           y="240.645"
           width="24.146999"
           height="83.688004"
           id="rect4574" />
        <path
           style="clip-rule:evenodd;fill-rule:evenodd"
           inkscape:connector-curvature="0"
           d="m 243.476,235.809 c 1.518,-25.45 1.588,-55.44 2.58,-80.484 -25.773,-2.839 -55.53,-0.323 -86.955,-2.623 -1.478,0.714 -2.843,1.465 -4.321,2.137 1.048,-1.236 0.668,-1.635 -1.428,-1.419 -29.449,-0.449 -55.085,-0.054 -81.922,-0.44 4.318,22.752 0.799,55.756 0.99,86.224 0.004,0.709 0.015,1.386 0.021,2.062 l 9.126,0 0,0.004 c 23.205,-0.768 49.906,-0.818 72.769,-0.17 -1.338,19.44 2.499,43.089 -5.343,57.454 -3.341,-1.942 -6.113,-4.433 -10.743,-5.101 -2.987,0.44 -2.547,5.736 -0.756,7.209 -1.168,1.054 -3.457,-0.49 -5.04,1.394 -0.172,4.205 0.495,7.612 2.091,10.082 -1.54,2.179 -3.03,-1.718 -5.009,-1.469 -4.503,0.983 -6.396,4.619 -9.38,7.143 -6.541,-3.419 -17.436,-4.644 -17.996,4.938 -7.651,0.544 -13.852,-0.323 -20.592,-0.252 l 0,0.489 -10.356,0 c -0.208,0.829 -0.432,1.656 -0.687,2.465 8.643,3 20.922,2.722 31.611,3.029 10.942,0.312 22.972,-1.39 35.214,-1.236 30.537,0.377 69.123,1.859 105.642,0.543 -0.057,-1.183 -0.083,-2.37 -0.131,-3.594 l -4.894,0 0,-0.034 c -23.676,-1.303 -52.511,2.739 -67.523,-3.956 -0.702,-4.2 0.33,-9.994 -2.793,-15.812 -3.433,-2.179 -1.683,3.673 -5.051,3.582 -1.507,-3.055 -3.237,-5.874 -4.985,-8.679 -0.329,-19.702 0.146,-41.5 1.744,-58.89 21.975,0.27 55.659,0.042 78.608,0.37 l 6.141,0 c 0.031,-0.461 0.046,-0.938 0.061,-1.362 0.079,-1.88 2.815,-1.008 2.895,-2.888 -1.052,-0.379 -3.72,0.828 -3.588,-0.716 z m -132.688,85.532 c 2.21,-0.502 2.623,0.768 4.312,0.763 -0.014,1.071 -5.33,1.532 -4.312,-0.763 z m 59.783,-163.534 c -0.679,4.357 -2.777,7.296 -4.356,10.762 -2.667,-2.585 1.485,-7.276 -2.094,-10.792 2.137,0.009 4.296,0.017 6.45,0.03 z m -36.638,-0.191 c -0.514,3.104 -0.964,6.271 -2.209,8.616 -1.855,-1.27 -2.947,-3.279 -5.003,-4.329 -3.931,0.348 -3.98,4.644 -7.218,5.694 -2.862,-0.311 0.245,-2.46 -2.142,-3.614 -4.416,-1.084 -9.245,-1.81 -10.012,-6.508 5.994,0.959 16.812,-0.631 26.584,0.141 z m 27.179,159.686 c 2.596,-0.261 2.646,-1.929 5.041,-0.68 -0.01,2.158 -0.021,4.312 -0.029,6.466 -8.035,2.32 -27.233,-1.211 -33.072,1.245 -2.291,-2.038 -5.031,-1.158 -10.055,-1.489 0.753,-3.557 3.904,-4.715 6.512,-6.446 2.58,0.793 4.582,2.138 5.728,4.375 6.003,-0.913 1.162,-8.562 2.928,-10.779 2.326,-0.862 0.53,2.337 2.856,1.47 0.956,-0.266 1.144,-1.275 2.181,-1.444 -1.229,-4.42 -2.04,-5.279 -2.117,-10.077 0.481,0 0.965,0 1.434,0.003 4.777,0.776 3.557,7.45 7.865,8.654 3.285,-1.894 1.648,-4.362 2.912,-7.866 3.157,4.972 4.4,11.832 7.816,16.568 z m 80.211,-81.501 c -18.683,0.315 -33.098,-0.374 -47.436,-0.27 -13.225,0.129 -31.908,-0.158 -47.439,1.925 -24.163,-4.133 -50.786,3.728 -68.975,-2.511 -0.21,-23.42 0.109,-50.614 0.404,-76.891 5.599,-1.734 15.477,0.059 20.119,-0.618 3.316,6.006 9.266,9.434 16.462,11.592 1.189,3.233 0.901,3.508 1.403,7.18 5.983,0.287 5.62,-5.869 9.379,-7.844 3.024,1.054 2.949,5.184 4.991,7.197 5.581,-3.287 4.192,-13.597 8.735,-17.926 6.938,-0.125 9.72,-0.207 16.527,0.104 6.614,5.321 4.022,13.438 6.348,20.856 5.697,-2.192 5.846,-9.995 10.854,-12.862 3.518,-0.639 2.725,3.021 5.731,2.885 2.425,0.07 3.129,-1.652 4.323,-2.843 3.644,1.166 3.921,5.645 7.147,7.238 2.043,-1.32 3.897,-2.801 3.635,-6.454 5.039,0.801 7.585,2.021 12.193,4.366 4.526,0.98 3.383,-3.814 7.909,-2.831 2.395,2.457 0.209,3.491 0.675,8.629 0.092,1.548 1.807,1.535 3.6,1.46 -1.617,2.959 -3.94,9.778 -1.521,12.933 4.136,0.319 4.809,-2.847 7.214,-4.283 4.355,0.693 3.198,6.844 4.268,10.799 4.518,1.204 4.439,-2.225 7.909,-2.121 1.982,3.408 -1.658,8.628 0.652,12.232 1.934,2.498 3.283,-4.305 5.756,-1.424 -1.14,10.357 -0.36,15.997 -0.863,29.482 z m 0.925,-39.525 c -1.476,0.424 -0.23,3.64 -2.895,2.852 0.942,-5.47 -1.079,-7.981 -3.544,-10.086 -1.631,0.989 -2.787,2.475 -4.333,3.586 0.473,-5.134 -2.064,-9.292 -4.964,-12.958 -4.512,-0.477 -3.188,4.96 -7.218,4.989 1.575,-4.432 6.306,-11.891 -1.357,-12.945 3.918,-7.084 -7.319,-13.194 -10.762,-5.101 -1.523,-2.569 -5.288,-4.951 -9.32,-2.897 -1.446,-1.582 -0.913,-2.918 -4.295,-3.627 -2.028,0.838 -2.196,3.541 -2.908,5.719 -2.924,-1.378 -3.924,-4.681 -7.155,-5.761 -2.075,0.283 -3.272,1.494 -3.603,3.558 -1.97,-1.636 -3.567,-3.62 -5.007,-5.782 27.446,0.443 43.106,0.407 68.271,0.353 -0.389,12.376 -1.45,27.143 -0.91,38.1 z"
           id="path4576" />
        <rect
           style="clip-rule:evenodd;fill:#b9b9b9;fill-rule:evenodd"
           x="222.108"
           y="240.645"
           width="24.146999"
           height="83.688004"
           id="rect4578" />
        <rect
           style="clip-rule:evenodd;fill-rule:evenodd"
           x="146.616"
           y="153.03799"
           width="20.738001"
           height="2.267"
           id="rect4580" />
        <rect
           style="clip-rule:evenodd;fill-rule:evenodd"
           x="242.864"
           y="155.304"
           width="2.2520001"
           height="85.103996"
           id="rect4582" />
        <rect
           style="clip-rule:evenodd;fill-rule:evenodd"
           x="204.886"
           y="323.345"
           width="51.501999"
           height="4.1789999"
           id="rect4584" />
      </g>
    </g>
    <g
       transform="translate(94.917,342.95919)"
       id="g4586">
      <defs
         id="defs4588">
        <rect
           id="SVGID_7_"
           x="75.083"
           y="369.40302"
           width="170"
           height="170" />
      </defs>
      <clipPath
         id="clipPath5427">
        <use
           height="100%"
           width="100%"
           y="0"
           x="0"
           style="overflow:visible"
           xlink:href="#SVGID_7_"
           overflow="visible"
           id="use5429" />
      </clipPath>
      <g
         clip-path="url(#SVGID_8_)"
         id="g4594">
        <g
           id="g4596">
          <path
             style="clip-rule:evenodd;fill:#b9b9b9;fill-rule:evenodd"
             inkscape:connector-curvature="0"
             d="m 241.438,374.359 c 1.129,24.737 0.332,50.166 0.72,76.521 -47.049,0.884 -114.64,0.395 -162.982,0 -2.266,-24.828 -0.506,-48.323 -0.687,-77.276 56.696,-0.071 109.469,-2.686 162.949,0.755 z"
             id="path4598" />
          <path
             style="clip-rule:evenodd;fill:#b9b9b9;fill-rule:evenodd"
             inkscape:connector-curvature="0"
             d="m 158.532,456.541 c 0.808,26.251 1.812,57.482 0,81.488 -24.031,-0.245 -42.859,-0.228 -63.758,-0.751 -6.323,-0.162 -10.644,1.44 -16.284,-1.387 -0.232,-24.429 -0.31,-50.277 0,-78.658 26.807,-2.842 46.248,-0.173 80.042,-0.692 z"
             id="path4600" />
          <path
             style="clip-rule:evenodd;fill:#b9b9b9;fill-rule:evenodd"
             inkscape:connector-curvature="0"
             d="m 241.438,456.541 c 1.65,26.276 0.741,58.122 0,80.737 -19.354,0.432 -47.908,0.614 -75.107,0.751 -3.694,-20.813 -0.679,-51.56 -2.833,-80.796 29.047,-1.518 51.11,0.125 77.94,-0.692 z"
             id="path4602" />
          <path
             style="clip-rule:evenodd;fill-rule:evenodd"
             inkscape:connector-curvature="0"
             d="m 239.33,365.809 c 0.45,0 0.934,0 1.413,0 2.495,1.091 2.407,4.727 4.939,5.719 0.34,54.271 0.67,98.646 1.416,157.955 0.07,5.226 0.38,6.388 1.415,11.377 -42.002,2.747 -80.021,-1.748 -122.553,0 -14.676,0.556 -34.043,-0.125 -44.644,2.079 -3.071,-1.494 -4.848,-0.697 -7.796,-1.386 -3.499,-4.748 0.832,-15.718 -0.693,-19.868 -1.82,-23.998 3.179,-44.057 0.693,-63.759 -0.253,-2.004 -0.006,-4.142 -2.106,-5.661 -0.336,-2.685 3.266,-1.456 2.106,-4.968 2.083,-26.227 -3.495,-50.688 1.415,-79.352 51.753,1.075 111.866,-0.336 162.257,-0.693 0.513,-0.663 1.275,-1.044 2.138,-1.443 z m -160.84,7.795 c 0.18,28.953 -1.58,52.448 0.687,77.276 48.342,0.395 115.933,0.884 162.982,0 -0.388,-26.355 0.409,-51.784 -0.72,-76.521 -53.481,-3.441 -106.254,-0.826 -162.949,-0.755 z m 0,83.629 c -0.31,28.381 -0.232,54.229 0,78.658 5.64,2.827 9.961,1.225 16.284,1.387 20.899,0.523 39.728,0.506 63.758,0.751 1.812,-24.006 0.808,-55.237 0,-81.488 -33.794,0.519 -53.235,-2.15 -80.042,0.692 z m 85.008,0 c 2.154,29.236 -0.861,59.982 2.833,80.796 27.199,-0.137 55.754,-0.319 75.107,-0.751 0.741,-22.615 1.65,-54.461 0,-80.737 -26.83,0.817 -48.893,-0.826 -77.94,0.692 z"
             id="path4604" />
        </g>
        <rect
           style="clip-rule:evenodd;fill:#b9b9b9;fill-rule:evenodd"
           x="55.825001"
           y="456.88101"
           width="30.966"
           height="80.920998"
           id="rect4606" />
        <rect
           style="clip-rule:evenodd;fill:#b9b9b9;fill-rule:evenodd"
           x="238.104"
           y="456.711"
           width="30.966"
           height="81.091003"
           id="rect4608" />
        <rect
           style="clip-rule:evenodd;fill-rule:evenodd"
           x="239.04401"
           y="366.776"
           width="7.2709999"
           height="6.6199999"
           id="rect4610" />
      </g>
    </g>
  </g>
</svg>
