<?xml version="1.0" encoding="UTF-8" standalone="no"?>
<!-- Generator: Adobe Illustrator 15.0.0, SVG Export Plug-In . SVG Version: 6.00 Build 0)  -->

<svg
   xmlns:dc="http://purl.org/dc/elements/1.1/"
   xmlns:cc="http://creativecommons.org/ns#"
   xmlns:rdf="http://www.w3.org/1999/02/22-rdf-syntax-ns#"
   xmlns:svg="http://www.w3.org/2000/svg"
   xmlns="http://www.w3.org/2000/svg"
   xmlns:xlink="http://www.w3.org/1999/xlink"
   xmlns:sodipodi="http://sodipodi.sourceforge.net/DTD/sodipodi-0.dtd"
   xmlns:inkscape="http://www.inkscape.org/namespaces/inkscape"
   version="1.1"
   id="Layer_1"
   x="0px"
   y="0px"
   width="340"
   height="511.35046"
   viewBox="0 0 340 511.35046"
   enable-background="new 0 0 612 792"
   xml:space="preserve"
   inkscape:version="0.91 r13725"
   sodipodi:docname="plateformes.svg"><metadata
     id="metadata173"><rdf:RDF><cc:Work
         rdf:about=""><dc:format>image/svg+xml</dc:format><dc:type
           rdf:resource="http://purl.org/dc/dcmitype/StillImage" /><dc:title></dc:title></cc:Work></rdf:RDF></metadata><defs
     id="defs171" /><sodipodi:namedview
     pagecolor="#ffffff"
     bordercolor="#666666"
     borderopacity="1"
     objecttolerance="10"
     gridtolerance="10"
     guidetolerance="10"
     inkscape:pageopacity="0"
     inkscape:pageshadow="2"
     inkscape:window-width="1366"
     inkscape:window-height="731"
     id="namedview169"
     showgrid="false"
     fit-margin-top="0"
     fit-margin-left="0"
     fit-margin-right="0"
     fit-margin-bottom="0"
     inkscape:zoom="0.84281414"
     inkscape:cx="145.35106"
     inkscape:cy="280.05954"
     inkscape:window-x="0"
     inkscape:window-y="0"
     inkscape:window-maximized="1"
     inkscape:current-layer="Layer_1" /><g
     id="g3"
     transform="matrix(0.99953554,0,0,0.99953554,1.3892549e-7,1.3494843)"><defs
       id="defs5"><rect
         id="SVGID_1_"
         x="170.07899"
         width="170.07899"
         height="170.08"
         y="0" /></defs><clipPath
       id="SVGID_2_"><use
         xlink:href="#SVGID_1_"
         overflow="visible"
         id="use9"
         style="overflow:visible"
         x="0"
         y="0"
         width="100%"
         height="100%" /></clipPath><g
       clip-path="url(#SVGID_2_)"
       id="g11"><g
         id="g13"><path
           d="m 204.771,159.079 c -7.614,4.27 -15.663,1.582 -22.002,8.251 -5.225,-2.167 -7.456,-0.188 -11.688,1.374 -3.675,-12.218 1.075,-26.907 -2.06,-41.254 2.162,-9.295 0.66,-22.918 1.372,-35.064 -0.29,-1.543 -1.476,-2.192 -2.062,-3.44 4.765,-29.156 1.189,-64.245 2.062,-87.318 12.737,4.599 22.717,-0.325 35.067,-0.688 2.914,1.364 2.622,4.136 4.126,5.5 9.232,-2.602 26.221,-9.442 32.314,0.689 8.051,-0.659 13.904,-3.518 20.626,-5.501 3.317,0.583 3.986,3.806 6.879,4.812 8.565,-2.124 16.213,-6.833 24.75,-6.188 2.954,0.223 5.434,3.016 8.25,3.439 2.38,0.355 5.236,-1.142 8.25,-1.377 8.594,-0.666 14.097,1.595 24.067,-1.374 2.626,2.751 1.222,5.414 0.689,9.626 -1.222,9.58 1.012,23.915 0,37.816 -0.958,13.119 -2.062,26.525 1.372,35.064 -3.654,4.964 0.498,21.795 -2.753,25.441 2.013,1.52 0.154,4.361 2.069,6.877 -2.976,13.873 1.457,36.541 -0.688,52.941 -4.621,-3.858 -6.876,-10.086 -12.381,-13.063 -9.576,1.424 -10.687,11.312 -19.936,13.063 -1.286,-2.914 -5.507,-4.542 -8.252,-7.563 -3.611,-3.978 -4.067,-8.837 -9.627,-8.25 -5.389,0.567 -4.548,7.438 -11,8.25 -10.824,-1.781 -8.738,-16.469 -14.438,-23.377 -17.388,7.594 -24.549,25.417 -41.941,33.005 -5.539,-2.714 -9.108,-7.396 -13.065,-11.691 z M 332.659,86.884 c -6.8,2.247 -7.607,-7.778 -9.629,-8.939 -3.53,3.114 -3.877,9.417 -10.312,9.627 -0.572,-2.176 0.28,-5.778 -2.064,-6.189 -8.031,4.869 -0.759,24.345 -4.124,30.941 -11.712,-1.579 -18.369,-8.217 -24.064,-15.813 -5.082,8.231 -9.825,20.396 -20.629,20.625 3.883,-11.617 4.103,-23.565 0,-33.001 -6.501,-1.868 -6.743,4.661 -12.371,5.5 -2.098,-0.428 -1.348,-3.699 -3.44,-4.127 -4.333,7.126 -6.653,16.268 -14.44,19.94 -2.224,-5.78 -1.945,-10.744 -3.436,-17.875 -2.513,-1.661 -3.379,3.211 -6.877,2.75 -3.056,-0.383 -3.255,-3.62 -6.188,-4.127 -2.026,4.393 -5.719,7.116 -11.688,7.565 -2.171,-4.812 2.1,-9.409 -2.75,-13.065 -6.475,0.86 -7.804,6.864 -13.75,8.25 -3.25,-1.333 -2.861,-6.304 -5.5,-8.25 -12.158,6.389 -7.979,15.027 -8.255,27.505 -0.434,19.936 -0.51,40.339 0.688,54.318 8.972,2.38 14.215,-7.775 25.443,-4.815 1.879,-1.553 3.834,-3.039 6.874,-3.438 8.431,7.139 12.203,16.624 22.003,6.876 9.438,-9.385 20.481,-24.597 34.376,-28.189 7.277,5.1 3.732,21.022 13.753,23.377 2.558,-2.483 4.531,-5.553 7.564,-7.564 11.782,-1.967 13.017,12.053 22.688,14.438 6.15,-3.475 8.979,-10.274 16.5,-12.374 3.503,1.002 6.466,5.71 9.629,4.812 3.218,-9.461 -3.11,-27.907 1.371,-34.377 -3.607,-10.622 0.28,-23.571 -1.372,-34.381 z m -63.255,23.378 c 0.289,-2.918 2.347,-4.07 4.812,-4.814 0.881,-4.619 3.723,-7.277 6.188,-10.312 0.007,-2.972 0.486,-5.473 3.438,-5.501 5.87,5.59 7.981,14.934 18.562,15.813 0.609,-13.821 -1.977,-25.846 9.626,-30.94 3.303,0.367 2.358,4.978 5.5,5.5 3.025,-3.451 1.87,-9.962 6.188,-10.312 6.25,-0.509 2.715,8.27 8.252,11 -1.3,-21.604 2.786,-45.126 -0.688,-75.632 -10.82,0.809 -29.895,4.813 -37.129,-1.373 -14.351,-0.295 -25.019,11.947 -33,2.749 -8.736,1.083 -22.601,7.629 -27.505,-1.376 -11.516,-2.418 -26.11,10.12 -32.315,-0.685 -7.293,0.404 -16.388,5.423 -26.126,2.061 -3.289,19.534 -1.628,45.603 -2.067,75.634 4.615,-1.349 7.239,-4.68 11.69,-6.189 0.859,2.81 1.822,5.512 3.436,7.562 5.79,-1.546 6.38,-8.288 14.44,-7.562 2.814,2.916 5.054,6.405 4.812,12.374 4.646,-0.852 5.552,-5.448 8.94,-7.562 3.422,0.247 4.01,3.324 6.876,4.127 1.329,-1.578 1.26,-4.642 5.498,-4.815 4.126,3.209 3.447,11.222 5.502,16.503 7.84,-2.701 5.662,-15.424 14.438,-17.188 1.772,0.977 1.03,4.47 3.438,4.812 3.648,-3.147 4.821,-6.024 9.623,-6.877 7.344,7.366 8.941,21.71 5.505,33.005 0.687,-0.002 1.376,-0.002 2.066,-0.002 z"
           id="path15"
           inkscape:connector-curvature="0"
           style="clip-rule:evenodd;fill-rule:evenodd" /><path
           d="m 267.342,110.262 c 3.437,-11.294 1.839,-25.639 -5.505,-33.005 -4.802,0.853 -5.975,3.73 -9.623,6.877 -2.408,-0.342 -1.666,-3.835 -3.438,-4.812 -8.776,1.764 -6.599,14.487 -14.438,17.188 -2.055,-5.282 -1.376,-13.294 -5.502,-16.503 -4.238,0.173 -4.169,3.237 -5.498,4.815 -2.866,-0.803 -3.454,-3.881 -6.876,-4.127 -3.388,2.114 -4.295,6.71 -8.94,7.562 0.242,-5.969 -1.998,-9.458 -4.812,-12.374 -8.06,-0.726 -8.651,6.016 -14.44,7.562 -1.614,-2.05 -2.577,-4.752 -3.436,-7.562 -4.451,1.509 -7.075,4.84 -11.69,6.189 0.439,-30.031 -1.222,-56.1 2.067,-75.634 9.738,3.362 18.833,-1.656 26.126,-2.061 6.205,10.804 20.799,-1.733 32.315,0.685 4.904,9.005 18.769,2.459 27.505,1.376 7.981,9.198 18.649,-3.044 33,-2.749 7.234,6.186 26.309,2.182 37.129,1.373 3.474,30.506 -0.612,54.028 0.688,75.632 -5.537,-2.73 -2.002,-11.509 -8.252,-11 -4.318,0.35 -3.163,6.861 -6.188,10.312 -3.142,-0.522 -2.197,-5.133 -5.5,-5.5 -11.603,5.094 -9.017,17.119 -9.626,30.94 -10.58,-0.879 -12.691,-10.223 -18.562,-15.813 -2.952,0.028 -3.432,2.529 -3.438,5.501 -2.466,3.035 -5.308,5.693 -6.188,10.312 -2.465,0.744 -4.522,1.896 -4.812,4.814 -0.694,0.002 -1.383,0.002 -2.066,0.002 z"
           id="path17"
           inkscape:connector-curvature="0"
           style="clip-rule:evenodd;fill:#68b42e;fill-rule:evenodd" /><path
           d="m 334.03,121.263 c -4.481,6.47 1.847,24.916 -1.371,34.377 -3.163,0.898 -6.126,-3.81 -9.629,-4.812 -7.521,2.1 -10.35,8.899 -16.5,12.374 -9.671,-2.386 -10.905,-16.405 -22.688,-14.438 -3.033,2.011 -5.007,5.082 -7.564,7.564 -10.021,-2.355 -6.476,-18.277 -13.753,-23.377 -13.895,3.592 -24.938,18.804 -34.376,28.189 -9.8,9.747 -13.572,0.262 -22.003,-6.876 -3.04,0.4 -4.995,1.885 -6.874,3.438 -11.228,-2.96 -16.471,7.195 -25.443,4.815 -1.198,-13.979 -1.122,-34.382 -0.688,-54.318 0.275,-12.478 -3.903,-21.116 8.255,-27.505 2.639,1.946 2.25,6.917 5.5,8.25 5.946,-1.386 7.275,-7.39 13.75,-8.25 4.85,3.656 0.579,8.253 2.75,13.065 5.97,-0.45 9.662,-3.172 11.688,-7.565 2.933,0.508 3.132,3.744 6.188,4.127 3.498,0.461 4.364,-4.411 6.877,-2.75 1.49,7.131 1.212,12.095 3.436,17.875 7.787,-3.673 10.107,-12.814 14.44,-19.94 2.093,0.428 1.343,3.699 3.44,4.127 5.628,-0.839 5.87,-7.368 12.371,-5.5 4.103,9.437 3.883,21.384 0,33.001 10.804,-0.229 15.547,-12.394 20.629,-20.625 5.695,7.597 12.353,14.234 24.064,15.813 3.365,-6.596 -3.907,-26.072 4.124,-30.941 2.345,0.412 1.492,4.014 2.064,6.189 6.435,-0.21 6.781,-6.513 10.312,-9.627 2.021,1.162 2.829,11.187 9.629,8.939 1.653,10.812 -2.234,23.761 1.372,34.381 z"
           id="path19"
           inkscape:connector-curvature="0"
           style="clip-rule:evenodd;fill:#7f5312;fill-rule:evenodd" /></g><path
         d="m 330.438,5.36 c 1.68,-0.416 3.253,-1.135 4.897,-1.506 2.918,-0.657 4.294,3.004 4.973,5.562 0.65,2.423 0.318,4.87 0.212,7.347 -0.212,4.939 -0.259,9.835 -0.425,14.782 -0.323,9.37 -0.147,18.534 1.295,27.78 0.89,5.727 0.574,12.377 -0.697,17.984 -0.579,2.54 -1.006,2.584 -3.208,3.193 -3.521,0.976 -6.018,1.079 -6.838,-3.197 -2.648,-13.769 -5.896,-27.569 -5.113,-41.788 0.296,-5.386 1.439,-10.639 1.487,-16.058 0.023,-2.532 0.138,-4.705 0.85,-7.06 0.524,-1.735 1.087,-6.428 3.17,-6.862 0.085,-0.384 0.266,-0.399 0.252,-0.393"
         id="path21"
         inkscape:connector-curvature="0"
         style="clip-rule:evenodd;fill:#68b42e;fill-rule:evenodd" /><path
         d="m 175.659,7.068 c -3.758,-0.845 -5.191,-3.858 -9.128,-0.72 -8.566,6.827 -6.85,19.92 -6.883,29.451 -0.019,5.83 1.238,11.313 2.347,16.996 1.11,5.692 3.234,11.579 3.417,17.395 0.002,-0.104 0.002,-0.207 0.002,-0.311 0,1.947 -1.457,15.26 2.342,15.972 2.053,0.384 5.721,-3.839 6.409,-5.544 1.448,-3.585 2.468,-7.915 2.781,-11.802 0.697,-8.703 1.49,-17.28 1.49,-26.053 0,-7.404 0.684,-15.318 -0.271,-22.645 -0.417,-3.191 -1.329,-6.122 -1.639,-9.322 -0.145,-1.456 -0.577,-3.03 -1.934,-3.63"
         id="path23"
         inkscape:connector-curvature="0"
         style="clip-rule:evenodd;fill:#68b42e;fill-rule:evenodd" /><path
         d="m 173.951,88.834 c -0.221,0.218 0.124,0.563 -0.555,0.464 -0.213,1.697 -1.595,3.8 -2.382,5.307 -1.549,2.972 -2.107,5.577 -3.099,8.961 -1.4,4.78 -1.044,10.425 -1.666,15.357 -0.992,7.869 -0.411,16.101 -0.411,24.026 0,5.176 -0.251,10.445 0.475,15.557 0.365,2.576 1.305,5.086 1.692,7.59 1.865,0.511 1.504,-0.617 2.315,-1.473 0.807,-0.851 1.21,-1.143 2.366,-1.703 4.406,-2.137 4.098,-9.749 4.729,-14.294 0.873,-6.306 0.726,-12.404 1.051,-18.727 0.358,-6.975 1.035,-13.74 1.035,-20.745 0,-4.58 0.65,-10.145 -0.818,-14.551 -0.522,-1.571 -1.986,-3.856 -3.061,-5.31 -0.403,-0.228 -1.188,-0.419 -1.632,-0.42 -0.256,0.523 -0.579,0.547 -0.892,1.03"
         id="path25"
         inkscape:connector-curvature="0"
         style="clip-rule:evenodd;fill:#7f5312;fill-rule:evenodd" /><path
         d="m 331.934,87.555 c 1.15,-1.333 4.199,-3.277 5.604,-2.182 1.348,1.051 2.083,4.383 2.467,5.885 1.414,5.55 1.102,10.896 1.362,16.608 0.403,9.11 -0.28,18.639 0.636,27.696 0.688,6.76 2.055,14.569 1.035,21.395 -0.33,2.191 -3.206,7.77 -5.524,8.504 -0.038,-1.955 -2.166,-4.191 -3.18,-5.799 -1.243,-1.974 -1.988,-3.333 -3.635,-4.985 -0.106,-6.31 -1.896,-12.153 -2.833,-18.313 -0.764,-5.052 -0.863,-10.611 -0.84,-15.715 0.019,-4.347 0.439,-8.653 0.422,-12.996 -0.009,-2.354 -0.422,-5.146 0.154,-7.44 0.715,-2.847 2.406,-5.286 3.045,-8.175 0.375,-1.683 1.134,-3.386 1.713,-4.91"
         id="path27"
         inkscape:connector-curvature="0"
         style="clip-rule:evenodd;fill:#7f5312;fill-rule:evenodd" /><path
         d="m 170.856,7.174 c -0.116,-2.586 -0.84,-11.123 -3.552,-12.76 -1.227,-0.743 -6.238,-0.325 -7.287,0.601 -1.689,1.487 -1.319,5.148 -1.331,7.116 -0.026,4.698 -1.046,7.841 2.641,10.568 2.015,1.489 3.953,2.449 6.582,2.146 0.446,-2.755 2.079,-5.785 2.971,-8.452 -0.055,-0.858 -0.019,0.292 -0.024,0.461"
         id="path29"
         inkscape:connector-curvature="0"
         style="clip-rule:evenodd;fill:#68b42e;fill-rule:evenodd" /><path
         d="m 171.175,4.933 c -1.78,-0.187 -16.063,-4.964 -11.546,-7.38 1.049,-0.559 6.762,2.174 8.024,2.575 2.489,0.794 3.74,3.206 6.029,3.58 0.23,0.53 0.387,1.263 0.318,1.826 -1.34,-0.459 -2.292,-0.429 -3.787,-0.6"
         id="path31"
         inkscape:connector-curvature="0"
         style="clip-rule:evenodd;fill-rule:evenodd" /><path
         d="m 162.528,79.548 c 5.941,0.019 8.001,3.334 5.524,8.405 -1.531,3.137 -2.61,9.898 -5.201,12.167 -7.18,6.285 -7.982,-8.649 -6.985,-12.888 0.588,-2.484 2.667,-5.775 4.814,-6.974 1.588,-0.884 2.729,0.692 3.771,-1.674"
         id="path33"
         inkscape:connector-curvature="0"
         style="clip-rule:evenodd;fill:#68b42e;fill-rule:evenodd" /><path
         d="m 140.113,31.832 c 10.402,-0.005 19.291,0.124 28.139,6.585 3.013,2.2 7.413,5.714 8.774,9.409 1.875,5.069 2.128,13.892 -0.479,18.738 -1.775,3.293 -4.404,6.067 -6.425,9.184 -1.3,2.006 -2.052,5.58 -3.981,7.038 -2.228,1.688 -5.002,0.898 -7.336,0.065 -9.373,-3.344 -13.105,-10.652 -13.582,-20.307 -0.494,-10.02 -1.272,-20.113 -1.267,-30.07"
         id="path35"
         inkscape:connector-curvature="0"
         style="clip-rule:evenodd;fill:#68b42e;fill-rule:evenodd" /><path
         d="m 162.201,98.442 c -0.873,1.958 -1.839,4.18 -2.339,6.186 -0.194,0.774 -0.641,3.336 -0.439,4.06 0.354,1.266 1.198,0.941 1.758,2.099 3.035,0.218 3.26,-7.01 4.926,-8.913 1.751,-1.996 4.224,-5.115 4.859,-7.535 0.823,-3.139 -0.954,-6.51 -1.286,-9.616 -1.125,2.029 -2.875,3.728 -3.986,5.884 -1.31,2.543 -2.326,5.225 -3.493,7.835 z"
         id="path37"
         inkscape:connector-curvature="0"
         style="clip-rule:evenodd;fill-rule:evenodd" /><path
         d="m 170.961,94.812 c -1.395,2.656 -3.943,4.479 -5.336,7.045 -1.5,2.769 -2.693,6.287 -3.69,9.383 -0.776,2.424 -1.775,4.746 -2.334,7.312 -1.279,5.862 -1.004,12.989 -0.821,19.012 0.211,7.073 2.292,13.902 2.361,20.938 0.031,2.87 -0.199,5.604 -0.425,8.411 -0.1,1.272 -0.266,2.511 0.598,3.1 1.419,0.966 4.627,-0.205 5.759,-0.947 4.553,-2.985 3.675,-9.49 3.675,-14.466 0,-14.74 0.069,-29.467 0.208,-44.227 0.048,-4.989 0.893,-10.323 1.894,-15.102 -1.006,0.057 -2.325,-0.101 -2.956,0.822"
         id="path39"
         inkscape:connector-curvature="0"
         style="clip-rule:evenodd;fill:#7f5312;fill-rule:evenodd" /><path
         d="m 171.388,167.825 c -1.402,0.86 -13.321,7.695 -10.839,1.969 0.674,-1.555 3.725,-3.118 5.237,-3.73 2.074,-0.839 4.492,-2.181 6.85,-1.836 0.109,2.449 -0.769,2.464 -1.63,4.23 -0.069,-0.204 -0.083,-0.415 -0.045,-0.633"
         id="path41"
         inkscape:connector-curvature="0"
         style="clip-rule:evenodd;fill-rule:evenodd" /><path
         d="m 335.777,4.292 c -0.219,-1.769 0.712,-3.409 1.889,-4.627 4.731,-4.887 8.081,2.681 7.261,6.896 -0.703,3.636 -3.355,8.519 -7.183,5.242 -2.466,-2.11 -1.646,-5.012 -1.787,-7.917 -0.358,0.075 -0.455,-0.179 -0.607,-0.235"
         id="path43"
         inkscape:connector-curvature="0"
         style="clip-rule:evenodd;fill:#68b42e;fill-rule:evenodd" /><path
         d="m 334.923,80.936 c 2.793,-0.217 5.301,2.136 8.295,1.902 0.119,-2.394 -0.491,-10.373 -4.033,-8.333 -2.112,1.217 -4.57,4.801 -3.573,7.059 0.232,-0.235 0.171,-0.617 0.166,-1.056"
         id="path45"
         inkscape:connector-curvature="0"
         style="clip-rule:evenodd;fill:#68b42e;fill-rule:evenodd" /><path
         d="m 334.707,85.418 c 3.467,-1.327 4.942,-3.06 8.345,-0.202 1.768,1.485 3.158,4.063 2.572,6.542 -0.541,2.303 -3.248,5.355 -5.742,5.411 -4.75,0.104 -6.871,-3.809 -6.881,-7.897 -0.002,-0.96 1.319,-6.322 2.136,-3.428"
         id="path47"
         inkscape:connector-curvature="0"
         style="clip-rule:evenodd;fill:#7f5312;fill-rule:evenodd" /><path
         d="m 334.923,81.148 c 1.758,-0.527 5.609,-2.511 7.213,-1.019 0.698,0.646 1.082,2.996 0.418,3.741 -0.85,0.953 -2.644,0.354 -3.787,0.481 -1.059,0.118 -2.197,0.445 -3.218,0.847 -0.628,0.248 -2.275,1.354 -2.979,1.079 -2.312,-0.902 1.267,-4.379 2.138,-5.129"
         id="path49"
         inkscape:connector-curvature="0"
         style="clip-rule:evenodd;fill-rule:evenodd" /><path
         d="m 335.99,161.847 c 2.093,2.139 10.469,6.175 5.538,8.529 -1.062,0.508 -2.543,1.061 -3.844,0.865 -1.832,-0.274 -1.656,-1.01 -2.596,-2.299 -1.348,-1.848 -3.426,-3.094 -2.864,-5.78 1.398,0.23 2.247,-0.737 3.339,-1.314"
         id="path51"
         inkscape:connector-curvature="0"
         style="clip-rule:evenodd;fill-rule:evenodd" /><path
         d="m 335.137,3.652 c 1.02,0.192 1.585,-0.599 2.437,-0.924 0.979,-0.375 2.124,-0.437 3.13,-0.881 0.596,-0.262 2.126,-0.936 2.325,-1.673 0.185,-0.698 -1.305,-2.215 -2.126,-2.413 -1.775,-0.432 -4.026,2.497 -5.647,3.129 -0.787,0.309 -2.111,0.221 -2.01,1.289 0.086,0.886 1.646,1.444 2.371,1.313"
         id="path53"
         inkscape:connector-curvature="0"
         style="clip-rule:evenodd;fill-rule:evenodd" /></g></g><g
     id="g55"
     transform="matrix(1.0085789,0,0,1.0085789,-1.5380828,-0.18759568)"><defs
       id="defs57"><rect
         id="SVGID_3_"
         width="170.07899"
         height="170.07899"
         x="0"
         y="0" /></defs><clipPath
       id="SVGID_4_"><use
         xlink:href="#SVGID_3_"
         overflow="visible"
         id="use61"
         style="overflow:visible"
         x="0"
         y="0"
         width="100%"
         height="100%" /></clipPath><g
       clip-path="url(#SVGID_4_)"
       id="g63"><g
         id="g65"><path
           d="m 93.633,155.794 c -7.31,0.842 -8.542,3.576 -13.957,8.374 -5.854,-2.052 -6.214,-9.6 -8.373,-15.352 -2.947,-2.631 -6.093,-5.071 -9.071,-7.675 -1.253,-0.088 -1.471,0.855 -2.791,0.699 -2.078,3.733 -2.985,8.643 -6.98,10.466 -4.802,-8.709 -2.705,-22.082 -9.068,-27.91 -4.959,0.854 -4.126,7.503 -6.979,10.464 -5.097,-6.817 -3.462,-20.599 -4.885,-33.492 -0.377,-3.425 -2.765,-6.295 -2.095,-10.468 1.044,-6.462 8.388,-15.497 13.261,-19.538 1.248,11.424 -5.657,23.709 3.488,33.493 6.506,-1.868 5.979,-10.764 10.466,-14.651 2.605,1.781 5.106,4.285 8.374,3.486 2.62,0.41 1.267,4.781 4.883,4.188 6.706,-2.836 10.595,-8.481 18.845,-9.769 2.458,14.477 4.904,20.492 11.861,31.399 5.908,-4.905 2.223,-17.875 9.071,-23.026 -0.349,2.07 0.112,2.348 3.49,3.489 5.889,-4.65 8.179,-15.017 16.05,-19.537 0.833,6.141 1.507,12.447 4.883,16.047 4.217,-0.434 3.243,-6.062 7.679,-6.278 4.021,1.559 3.039,8.124 6.976,9.767 2.453,-2.201 2.686,-6.618 4.188,-9.767 5.647,0.474 9.304,5.222 13.257,0 0.508,22.766 0.923,49.339 0,73.266 -5.811,-0.602 -4.577,-7.543 -9.068,-8.373 -6.386,-1.178 -6.983,5.589 -11.167,9.771 -7.972,-0.072 -15.89,-13.131 -21.632,-13.259 -5.111,-0.114 -7.686,7.959 -13.259,9.071 -6.919,1.385 -10.214,-2.848 -17.447,-4.885 z"
           id="path67"
           inkscape:connector-curvature="0"
           style="clip-rule:evenodd;fill:#7f5312;fill-rule:evenodd" /><path
           d="M 100.612,112.532 C 96.367,101.799 95.354,90.891 90.146,82.527 83.047,85.202 76.137,88.058 71.304,92.995 69.27,91.538 68.397,88.926 66.421,87.41 61.554,89.678 60.871,84.952 57.35,83.924 51.337,85.82 51.719,94.108 48.279,98.576 40.095,92.397 49.667,74.732 45.487,66.478 35.156,68.241 34.605,79.786 28.042,85.318 25.56,84.079 26.025,79.892 22.459,79.735 17.678,83.081 19.049,89.205 17.576,96.481 9.719,85.27 15.171,74.815 14.78,59.5 c -2.041,-0.182 -2.143,1.579 -4.183,1.397 0.631,-8.058 9.835,-13.117 6.281,-20.935 -2.385,-1.266 -3.25,0.797 -6.281,0.695 1.606,-5.551 8.608,-10.136 5.583,-16.048 7.035,-5.059 11.949,-12.24 20.933,-15.352 11.733,5.262 24.138,-2.386 34.191,-3.49 7.13,-0.781 11.92,3.927 20.237,4.887 7.349,0.847 14.227,-7.85 22.33,-4.188 3.908,5.375 7.768,7 13.259,6.979 6.776,-0.026 12.653,-5.864 18.142,-6.281 7.646,-0.583 15.015,6.556 20.237,-0.699 2.309,26.198 -1.238,54.306 1.393,74.666 -1.731,2.217 -5.265,2.64 -6.28,5.582 -2.845,-0.179 -3.445,-2.601 -6.976,-2.095 -2.056,1.669 -4.824,2.621 -4.886,6.28 -3.231,-1.187 -2.971,-5.866 -6.281,-6.976 -2.987,0.962 -4.921,2.986 -6.278,5.581 -5.651,-3.705 -1.514,-11.812 -6.28,-16.05 -1.965,0.594 -2.861,2.255 -5.583,2.093 0.154,7.292 -8.592,11.298 -10.466,18.841 -2.328,-0.695 -2.418,-3.631 -4.885,-4.185 -6.138,5.536 -6.814,13.178 -8.375,22.33 z"
           id="path69"
           inkscape:connector-curvature="0"
           style="clip-rule:evenodd;fill:#68b42e;fill-rule:evenodd" /><path
           d="m 7.804,69.271 c -1.452,-0.83 -0.508,-5.106 1.395,-4.888 0.116,2.21 -1.855,2.334 -1.395,4.888 z"
           id="path71"
           inkscape:connector-curvature="0"
           style="clip-rule:evenodd;fill:#68b42e;fill-rule:evenodd" /><path
           d="m 125.037,157.189 c -6.191,0.698 -9.261,8.371 -13.959,9.072 -7.614,1.142 -11.076,-3.372 -18.145,-5.583 -6.725,0.773 -8.205,9.254 -13.952,9.072 -7.202,-0.227 -6.884,-12.047 -10.469,-18.838 -2.387,-1.1 -6.214,-0.764 -6.281,-4.189 -4.663,1.13 -4.005,11.028 -9.071,11.164 -2.406,0.066 -5.033,-3.758 -3.488,-6.279 -5.623,-5.355 -2.731,-15.847 -6.978,-21.631 -2.275,3.076 -2.347,8.354 -4.883,11.165 -6.838,-0.993 -5.868,-5.934 -6.283,-11.863 -0.333,-4.764 -2.399,-11.214 -2.791,-15.351 -1.021,-10.741 0.161,-21.15 -6.281,-26.517 -3.405,6.596 -1.127,15.729 -6.278,19.54 C 12.08,98.019 8.908,83.109 10.595,72.757 7.048,73.399 8.106,78.644 5.012,79.736 -2.403,67.694 11.689,56.871 14.085,44.149 11.556,42.581 9.05,47.003 5.71,46.94 4.327,40.864 10.481,37.025 11.988,31.591 6.891,30.623 5.658,36.645 1.525,34.381 1.674,30.048 6.204,29.308 9.198,26.704 18.821,18.343 31.717,1.333 44.09,5.768 55.655,6.654 65.02,1.592 74.096,0.885 82.417,0.237 88.368,4.7 96.426,5.768 c 2.672,-1.975 6.85,-2.452 9.071,-4.883 11.38,-1.612 13.912,5.625 21.633,7.678 7.993,-1.08 12.962,-5.184 19.537,-7.678 3.215,1.437 6.126,3.177 11.166,2.792 1.839,0.21 2.29,-0.966 2.091,-2.792 2.669,2.941 5.716,0.187 9.772,-0.699 0.062,21.719 -0.467,48.939 -1.397,75.361 3.203,2.604 4.101,10.265 -0.697,11.863 1.583,0.511 1.238,2.954 2.095,4.187 -0.562,23.211 -2.026,47.386 1.394,71.872 -1.493,1.763 -0.969,5.545 -2.093,7.678 -6.751,3.118 -7.264,-9.773 -13.259,-10.469 -4.896,-0.564 -3.861,7.133 -8.374,9.072 -8.682,3.735 -13.255,-9.468 -22.328,-12.561 z m -13.959,3.489 c 5.573,-1.111 8.148,-9.185 13.259,-9.071 5.742,0.128 13.66,13.187 21.632,13.259 4.184,-4.181 4.781,-10.948 11.167,-9.771 4.491,0.83 3.258,7.771 9.068,8.373 0.923,-23.926 0.508,-50.5 0,-73.266 -3.953,5.222 -7.609,0.474 -13.257,0 -1.502,3.149 -1.734,7.566 -4.188,9.767 -3.937,-1.643 -2.954,-8.208 -6.976,-9.767 -4.436,0.216 -3.462,5.844 -7.679,6.278 -3.376,-3.601 -4.05,-9.907 -4.883,-16.047 -7.871,4.52 -10.161,14.886 -16.05,19.537 -3.378,-1.141 -3.839,-1.419 -3.49,-3.489 -6.848,5.151 -3.163,18.121 -9.071,23.026 C 93.653,108.6 91.207,102.585 88.749,88.108 80.499,89.396 76.61,95.041 69.904,97.877 66.288,98.47 67.641,94.099 65.021,93.689 61.753,94.488 59.253,91.983 56.647,90.203 52.16,94.091 52.687,102.986 46.181,104.854 37.036,95.07 43.941,82.785 42.693,71.361 37.822,75.403 30.478,84.438 29.434,90.9 c -0.669,4.173 1.718,7.043 2.095,10.468 1.423,12.894 -0.211,26.675 4.885,33.492 2.852,-2.961 2.019,-9.61 6.979,-10.464 6.363,5.828 4.266,19.201 9.068,27.91 3.996,-1.824 4.902,-6.733 6.98,-10.466 1.319,0.157 1.538,-0.787 2.791,-0.699 2.978,2.604 6.124,5.043 9.071,7.675 2.159,5.752 2.52,13.3 8.373,15.352 5.415,-4.798 6.646,-7.532 13.957,-8.374 7.233,2.037 10.528,6.27 17.445,4.884 z m -2.093,-70.474 c 2.467,0.554 2.558,3.49 4.885,4.185 1.875,-7.543 10.621,-11.55 10.466,-18.841 2.722,0.163 3.618,-1.499 5.583,-2.093 4.767,4.239 0.629,12.346 6.28,16.05 1.357,-2.594 3.291,-4.618 6.278,-5.581 3.311,1.109 3.05,5.789 6.281,6.976 0.062,-3.66 2.83,-4.611 4.886,-6.28 3.53,-0.505 4.131,1.916 6.976,2.095 1.016,-2.942 4.549,-3.365 6.28,-5.582 -2.631,-20.36 0.916,-48.468 -1.393,-74.666 -5.223,7.255 -12.592,0.116 -20.237,0.699 -5.488,0.417 -11.365,6.255 -18.142,6.281 -5.491,0.02 -9.351,-1.604 -13.259,-6.979 -8.103,-3.662 -14.981,5.035 -22.33,4.188 C 83.223,9.696 78.432,4.989 71.302,5.769 61.25,6.873 48.845,14.52 37.112,9.258 28.129,12.37 23.215,19.551 16.18,24.61 c 3.025,5.912 -3.977,10.497 -5.583,16.048 3.03,0.102 3.896,-1.961 6.281,-0.695 3.554,7.817 -5.649,12.877 -6.281,20.935 2.041,0.181 2.143,-1.579 4.183,-1.397 0.392,15.316 -5.061,25.77 2.795,36.982 1.473,-7.276 0.102,-13.4 4.883,-16.746 3.566,0.157 3.101,4.344 5.583,5.583 6.563,-5.532 7.114,-17.077 17.445,-18.84 4.181,8.254 -5.391,25.919 2.792,32.098 3.44,-4.469 3.059,-12.756 9.071,-14.652 3.521,1.027 4.204,5.754 9.071,3.486 1.977,1.516 2.85,4.128 4.883,5.585 4.833,-4.938 11.743,-7.793 18.842,-10.468 5.208,8.365 6.221,19.272 10.466,30.005 1.562,-9.154 2.238,-16.796 8.374,-22.33 z M 9.199,64.382 C 7.296,64.164 6.352,68.441 7.804,69.27 7.344,66.717 9.315,66.593 9.199,64.382 Z"
           id="path73"
           inkscape:connector-curvature="0"
           style="clip-rule:evenodd;fill-rule:evenodd" /></g><path
         d="m 164.778,7.526 c 1.606,-2.866 4.738,-5.113 7.455,-6.918 0.151,2.544 0.111,4.854 0.7,7.346 0.6,2.551 0.963,5.268 0.714,7.898 -0.204,2.164 -0.802,4.174 -0.826,6.359 -0.04,4.01 0.069,7.982 0.254,11.984 0.224,4.771 -0.111,9.634 -0.111,14.427 0,5.47 -0.168,10.897 0.152,16.342 0.1,1.706 0.515,3.648 0.274,5.361 -0.322,2.277 -1.318,5.511 -2.649,7.479 -0.974,1.438 -2.577,2.468 -3.986,3.383 -0.674,0.438 -1.692,1.396 -2.288,1.658 -1.917,0.84 -2.254,-2.132 -2.652,-3.688 -0.752,-2.948 -0.315,-6.345 -0.567,-9.382 -0.493,-5.929 -0.941,-11.854 -0.671,-17.814 0.396,-8.723 -0.833,-17.474 -0.453,-26.218 0.161,-3.75 1.101,-7.545 1.442,-11.295 0.147,-1.615 0.612,-3.742 1.663,-5.074 0.714,-0.905 1.168,-1.625 1.862,-2.522 0.254,-0.325 0.77,-0.669 1.099,-0.878"
         id="path75"
         inkscape:connector-curvature="0"
         style="clip-rule:evenodd;fill:#68b42e;fill-rule:evenodd" /><path
         d="m 165.768,91.066 c -0.048,-0.929 0.923,-2.359 1.305,-3.207 0.603,-1.335 1.595,-2.197 2.684,-3.112 1.431,-1.198 1.683,-1.213 2.65,0.639 1.042,1.998 1.469,3.873 1.855,6.077 0.845,4.819 1.417,9.677 1.775,14.571 0.142,1.948 -0.05,3.921 0.023,5.874 0.168,4.444 0.966,8.833 1.319,13.26 0.33,4.169 -1.426,8.262 -1.772,12.41 -0.37,4.436 -0.244,8.882 -0.244,13.331 0,3.962 0.173,7.938 -0.29,11.863 -0.128,1.084 -0.216,2.164 -0.448,3.216 -0.081,-0.031 -0.119,-0.091 -0.114,-0.183 -0.196,0.459 -0.306,1.058 -0.299,1.582 -0.838,-0.179 -2.02,-1.094 -3.037,-1.528 0.277,-0.339 0.081,-0.452 0.216,-0.827 -1.691,-0.087 -3.606,-0.327 -5.061,-1.151 -0.776,-0.441 -1.185,-1.089 -1.552,-1.913 -2.385,-5.345 -1.148,-12.411 -1.123,-18.114 0.017,-3.426 -0.716,-6.745 -0.856,-10.147 -0.138,-3.373 0.005,-6.785 0.005,-10.16 0,-3.554 -0.014,-7.086 0.28,-10.635 0.272,-3.333 0.963,-6.599 0.989,-9.946 0.021,-2.917 -0.911,-7.69 0.596,-10.325 0.211,-0.365 0.911,-0.514 1.104,-0.974 0.173,-0.412 -0.017,-1.093 0.135,-1.448"
         id="path77"
         inkscape:connector-curvature="0"
         style="clip-rule:evenodd;fill:#7f5312;fill-rule:evenodd" /></g></g><g
     id="g79"
     transform="matrix(1.0075881,0,0,1.0075905,0,-2.7594757)"><defs
       id="defs81"><rect
         id="SVGID_5_"
         y="340.15799"
         width="170.07899"
         height="170.08"
         x="0" /></defs><clipPath
       id="SVGID_6_"><use
         xlink:href="#SVGID_5_"
         overflow="visible"
         id="use85"
         style="overflow:visible"
         x="0"
         y="0"
         width="100%"
         height="100%" /></clipPath><g
       clip-path="url(#SVGID_6_)"
       id="g87"><g
         id="g89"><path
           d="m 68.093,507.438 c -1.509,1.158 -3.628,-1.552 -6.297,-1.398 -2.999,2.589 -6.663,5.048 -11.895,3.496 -0.057,-2.903 -3.984,-7.559 -4.899,-11.896 -7.223,4.208 -13.207,9.652 -21.692,12.597 -3.573,-0.391 -3.35,-4.579 -6.299,-5.598 -4.003,-0.162 -6.646,2.802 -9.795,1.4 -1.628,1.049 -1.07,1.712 -0.7,3.496 -4.295,-0.763 -6.431,0.567 -9.097,0 -0.854,-24.529 3.094,-60.881 -1.398,-84.67 5.83,-28.019 -2.017,-56.832 4.195,-83.972 7.239,0.823 12.775,5.578 19.597,4.898 6.655,-0.661 12.5,-7.25 18.892,-4.898 10.21,13.113 26.312,-6.899 39.886,-0.7 0.544,2.489 0.093,2.546 0.7,5.599 6.535,1.019 14.568,0.268 23.092,-2.8 1.495,-0.538 3.256,-2.445 4.899,-2.799 10.675,-2.29 20.677,5.951 30.089,2.101 2.954,3.346 9.727,2.868 11.897,6.996 0.963,2.833 -1.521,2.215 -1.402,4.2 4.062,2.871 14.844,6.833 8.397,11.897 2.735,7.346 5.341,14.556 11.896,20.993 -1.849,5.644 2.605,8.684 -0.7,13.995 -3.713,0.449 -4.771,-1.76 -6.297,-3.499 -1.771,4.57 2.712,7.026 3.497,11.194 1.175,6.219 -2.926,12.07 -4.897,20.294 -0.564,2.357 -1.305,5.443 -2.1,7.699 -1.547,4.396 -6.39,7.38 -6.997,13.995 -2.152,-0.521 -1.346,1.919 -3.5,1.397 -4.157,-0.92 -4.01,-5.987 -3.497,-9.795 -7.188,7.249 -2.551,22.964 -11.197,29.391 -3.158,0.825 -1.563,-3.102 -4.897,-2.102 -3.543,5.104 -0.636,11.679 -5.6,16.096 -3.479,0.68 -2.767,-2.827 -4.895,-3.5 -3.978,6.758 -3.296,18.167 -9.098,23.093 -14.357,3.536 -15.221,-12.24 -23.094,-17.494 -8.255,2.246 -8.459,16.261 -15.395,17.494 -1.195,0.224 0.644,2.169 -1.399,2.8 z M 45.699,492.043 c 3.218,2.85 4.776,7.356 6.3,11.896 5.523,0.627 6.805,-2.991 10.494,-4.197 0.895,0.226 2.285,1.174 4.9,1.399 7.742,-4.459 8.767,-21.526 18.894,-19.594 8.49,1.625 7.151,18.042 17.495,19.594 10.079,-3.218 4,-22.592 13.994,-25.891 2.392,0.176 1.426,3.707 3.5,4.2 2.816,-5.349 -0.511,-16.838 6.997,-17.495 2.272,0.293 2.015,3.114 4.897,2.799 4.271,-8.56 1.95,-23.707 9.797,-28.689 -0.586,-1.979 -0.812,-4.32 -1.4,-6.299 -1.872,-0.694 -3.689,-1.442 -6.297,-1.4 -1.929,3.163 -2.095,6.965 -4.2,9.798 -2.579,3.471 -8.494,8.719 -12.592,9.798 -3.351,-2.719 -2.771,-9.363 -2.802,-15.396 -2.562,-5.135 -11.435,-3.958 -15.393,-7.699 -2.136,-3.48 -2.79,-6.902 -7,-6.996 -10.71,-0.239 -5.426,25.435 -22.391,21.69 -6.509,6.549 -4.744,17.121 -12.595,22.395 -0.617,-7.551 -2.28,-14.049 -3.498,-20.994 -3.832,-2.702 -6.816,-6.247 -6.3,-13.297 -4.01,2.523 -4.043,9.021 -7.697,11.896 -1.036,4.502 1.958,15.321 -1.402,18.896 -6.06,-10.254 -13.477,-16.703 -11.895,-31.489 -4.526,2.235 -3.001,10.524 -10.496,9.795 -0.413,-4.484 -0.138,-7.285 -1.4,-11.896 -3.771,2.292 -4.653,7.474 -9.095,9.097 -2.79,-1.999 -0.951,-4.276 -2.8,-6.996 -0.594,1.036 -1.761,1.503 -3.5,1.398 1.022,26.173 -0.254,47.656 1.402,74.876 5.263,-4.125 8.929,-2.587 17.494,-4.199 6.44,12.242 17.997,-4.4 26.589,-7 z m 26.594,-58.777 c 15.084,1.717 7.78,-19.863 18.194,-20.994 11.745,-1.274 8.442,14.962 22.394,10.496 5.441,3.028 7.023,11.272 7.695,18.193 1.172,-3.726 5.694,-4.1 7.697,-6.998 0.218,-9.009 6.252,-14.265 15.395,-10.496 3.457,4.472 2.508,13.354 4.897,18.894 4.854,-11.566 16.279,-32.574 6.999,-48.283 2.121,0.024 0.679,-3.521 2.8,-3.499 1.683,-1.395 3.389,1.221 4.897,-0.701 -3.616,-10.182 -12.067,-18.351 -12.597,-29.39 -5.009,-2.687 -10.084,-5.31 -11.197,-11.893 -10.099,0.587 -19.753,-4.875 -30.091,-3.5 -11.399,1.515 -28.568,12.759 -37.084,-0.7 -11.897,-1.295 -19.416,8.861 -29.389,6.299 -2.814,-0.724 -4.584,-4.473 -7.7,-4.9 -5.469,-0.744 -9.636,4.149 -15.392,4.9 -7.438,0.968 -12.155,-5.336 -19.597,-6.999 1.777,24.595 0.581,43.171 0.702,74.877 2.392,-1.094 3.258,-1.633 6.298,-0.701 0.752,1.813 1.696,3.431 1.397,6.298 3.756,-0.677 2.185,-6.681 6.997,-6.298 4.34,1.259 3.063,8.132 5.6,11.195 2.178,-2.489 1.844,-7.488 5.598,-8.396 10.532,2.519 0.163,21.698 10.499,24.489 0.534,-12.29 5.153,-20.503 13.992,-24.489 0.012,0.924 1.227,0.637 1.399,1.397 1.374,2.487 -0.913,2.545 -0.699,5.597 3.474,7.025 6.129,14.867 9.797,21.694 1.867,-6.998 5.21,-12.519 10.499,-16.092 z"
           id="path91"
           inkscape:connector-curvature="0"
           style="clip-rule:evenodd;fill-rule:evenodd" /><path
           d="m 19.112,499.042 c -8.565,1.612 -12.231,0.074 -17.494,4.199 -1.656,-27.22 -0.38,-48.703 -1.402,-74.876 1.739,0.104 2.906,-0.362 3.5,-1.398 1.849,2.72 0.01,4.997 2.8,6.996 4.441,-1.623 5.324,-6.805 9.095,-9.097 1.263,4.61 0.987,7.411 1.4,11.896 7.495,0.729 5.97,-7.56 10.496,-9.795 -1.582,14.786 5.835,21.235 11.895,31.489 3.36,-3.574 0.366,-14.394 1.402,-18.896 3.654,-2.876 3.688,-9.373 7.697,-11.896 -0.517,7.05 2.468,10.595 6.3,13.297 1.218,6.945 2.881,13.443 3.498,20.994 7.851,-5.273 6.086,-15.846 12.595,-22.395 16.965,3.744 11.681,-21.93 22.391,-21.69 4.21,0.094 4.864,3.516 7,6.996 3.958,3.741 12.83,2.564 15.393,7.699 0.03,6.032 -0.549,12.677 2.802,15.396 4.098,-1.079 10.013,-6.327 12.592,-9.798 2.105,-2.833 2.271,-6.635 4.2,-9.798 2.607,-0.042 4.425,0.706 6.297,1.4 0.589,1.979 0.814,4.319 1.4,6.299 -7.847,4.982 -5.526,20.13 -9.797,28.689 -2.883,0.315 -2.625,-2.506 -4.897,-2.799 -7.508,0.657 -4.181,12.146 -6.997,17.495 -2.074,-0.493 -1.108,-4.024 -3.5,-4.2 -9.994,3.299 -3.915,22.673 -13.994,25.891 -10.344,-1.552 -9.005,-17.969 -17.495,-19.594 -10.127,-1.933 -11.151,15.135 -18.894,19.594 -2.615,-0.226 -4.006,-1.174 -4.9,-1.399 -3.689,1.206 -4.971,4.824 -10.494,4.197 -1.523,-4.539 -3.082,-9.046 -6.3,-11.896 -8.594,2.601 -20.151,19.243 -26.589,7 z"
           id="path93"
           inkscape:connector-curvature="0"
           style="clip-rule:evenodd;fill:#7f5312;fill-rule:evenodd" /><path
           d="m 61.796,449.358 c -3.668,-6.827 -6.323,-14.669 -9.797,-21.694 -0.214,-3.052 2.073,-3.109 0.699,-5.597 -0.173,-0.761 -1.388,-0.474 -1.399,-1.397 -8.839,3.986 -13.458,12.199 -13.992,24.489 -10.336,-2.791 0.033,-21.971 -10.499,-24.489 -3.754,0.907 -3.42,5.906 -5.598,8.396 -2.536,-3.063 -1.26,-9.937 -5.6,-11.195 -4.812,-0.383 -3.241,5.621 -6.997,6.298 0.299,-2.867 -0.646,-4.484 -1.397,-6.298 -3.04,-0.932 -3.906,-0.393 -6.298,0.701 -0.121,-31.706 1.075,-50.282 -0.702,-74.877 7.441,1.662 12.158,7.966 19.597,6.999 5.756,-0.751 9.923,-5.644 15.392,-4.9 3.116,0.427 4.886,4.176 7.7,4.9 9.973,2.562 17.491,-7.594 29.389,-6.299 8.516,13.459 25.685,2.215 37.084,0.7 10.338,-1.375 19.992,4.087 30.091,3.5 1.113,6.583 6.188,9.206 11.197,11.893 0.529,11.04 8.98,19.208 12.597,29.39 -1.509,1.922 -3.215,-0.694 -4.897,0.701 -2.121,-0.022 -0.679,3.522 -2.8,3.499 9.28,15.709 -2.145,36.717 -6.999,48.283 -2.39,-5.539 -1.44,-14.422 -4.897,-18.894 -9.143,-3.769 -15.177,1.487 -15.395,10.496 -2.003,2.898 -6.525,3.272 -7.697,6.998 -0.672,-6.921 -2.254,-15.165 -7.695,-18.193 -13.951,4.466 -10.648,-11.771 -22.394,-10.496 -10.414,1.131 -3.11,22.711 -18.194,20.994 -5.291,3.573 -8.634,9.094 -10.499,16.092 z"
           id="path95"
           inkscape:connector-curvature="0"
           style="clip-rule:evenodd;fill:#68b42e;fill-rule:evenodd" /></g><path
         d="m 0.942,344.122 c -2.015,-0.275 -3.749,-1.106 -5.847,-0.934 -0.194,3.79 -0.053,7.666 -0.05,11.47 0.007,8.328 -1.568,16.326 -1.988,24.56 -0.722,14.112 -0.648,28.979 0.073,43.126 2.919,0.441 5.981,-2.004 7.809,-3.883 3.263,-3.355 5.837,-11.074 6.247,-15.727 0.601,-6.809 -0.023,-14.064 -0.023,-20.9 0,-10.002 1.359,-21.796 -1.9,-31.447 -0.921,-2.73 -2.84,-6.515 -5.96,-6.593"
         id="path97"
         inkscape:connector-curvature="0"
         style="clip-rule:evenodd;fill:#68b42e;fill-rule:evenodd" /><path
         d="m 1.597,427.96 c -10.734,-0.038 -10.115,19.46 -10.152,26.123 -0.053,9.581 0.189,19.794 -1.545,29.036 -1.357,7.231 0.367,14.729 2.513,21.53 2.405,7.632 7.847,0 10.748,-3.658 C 8.246,494.58 5.553,480.912 5.527,473.453 5.486,462.148 6.825,449.455 3.97,438.464 3.363,436.128 3.756,433.241 2.994,431.147 2.69,430.313 1.07,429.053 0.614,428.288"
         id="path99"
         inkscape:connector-curvature="0"
         style="clip-rule:evenodd;fill:#7f5312;fill-rule:evenodd" /></g></g><g
     id="g101"
     transform="matrix(0.99953554,0,0,0.99953554,0,1.3514843)"><defs
       id="defs103"><rect
         id="SVGID_7_"
         y="170.07899"
         width="170.07899"
         height="170.078"
         x="0" /></defs><clipPath
       id="SVGID_8_"><use
         xlink:href="#SVGID_7_"
         overflow="visible"
         id="use107"
         style="overflow:visible"
         x="0"
         y="0"
         width="100%"
         height="100%" /></clipPath><g
       clip-path="url(#SVGID_8_)"
       id="g109"><g
         id="g111"><path
           d="m 13.51,280.894 c -6.216,-8.428 -0.925,-24.829 -2.852,-39.252 -6.184,0.718 -4.869,8.932 -9.277,11.421 -0.197,-27.073 0.629,-45.612 0.712,-75.649 12.547,4.576 22.56,-1.15 37.109,-2.14 7.968,7.841 17.563,-2.402 25.694,-0.714 4.177,0.865 6.682,5.241 11.418,5.709 3.234,0.319 7.745,-2.249 11.42,-2.141 7.916,0.229 14.483,2.327 19.979,-4.997 11.403,-2.254 17.444,8.83 27.837,7.851 3.067,-0.291 5.582,-2.872 8.567,-3.568 7.246,-1.693 15.194,1.768 23.547,-2.14 1.262,26.567 0.679,50.048 0,71.366 -2.961,-3.938 -3.165,-10.632 -7.133,-13.562 -7.977,3.921 -9.244,14.55 -16.414,19.271 -2.33,0.188 -1.514,-2.771 -3.574,-2.854 -7.768,2.488 -6.961,9.182 -9.989,16.412 -3.309,-11.441 -8.168,-21.33 -15.703,-28.545 -7.133,4.044 -10.815,11.543 -12.13,21.411 -3.772,-3.842 -9.486,-5.741 -9.994,-12.848 -2.783,-0.987 -6.653,-0.997 -9.277,1.426 -2.126,-5.01 -3.265,-11.004 -8.561,-12.845 -7.08,12.45 -6.881,29.708 -18.56,38.539 -0.615,-9.493 1.48,-21.111 -5.709,-26.405 -4.361,0.868 -5.183,5.282 -7.85,7.849 -5.134,-1.655 -7.085,1.84 -8.561,5.708 -2.838,-2.875 -1.357,-10.062 -4.997,-12.132 -8.854,7.324 -11.637,20.717 -15.702,32.829 z"
           id="path113"
           inkscape:connector-curvature="0"
           style="clip-rule:evenodd;fill:#68b42e;fill-rule:evenodd" /><path
           d="m 28.501,331.563 c -4.249,-7.169 -4.114,-18.728 -10.71,-23.55 -7.1,7.138 -10.135,16.291 -14.986,24.265 -3.73,-20.554 0.493,-50.453 -2.853,-67.797 3.032,-4.103 3.764,-10.512 8.565,-12.847 -0.621,10.323 -3.396,23.74 1.424,34.255 0.614,1.336 1.438,2.552 3.568,2.858 5.432,-10.271 7.052,-24.353 13.561,-33.543 3.397,3.025 1.388,11.458 6.423,12.843 3.807,-6.897 11.179,-10.233 17.844,-14.273 0.73,11.358 3.314,17.645 -1.429,25.694 0.37,1.053 1.056,1.797 1.429,2.854 15.224,-6.423 18.469,-24.828 24.264,-40.68 5.168,1.733 1.927,11.871 6.425,14.276 3.36,-1.159 3.777,-5.263 7.85,-5.712 1.419,7.622 7.18,10.901 12.129,14.987 7.048,-3.656 3.583,-17.831 11.423,-20.696 9.425,4.896 11.332,16.77 12.846,27.833 1.011,-0.061 2.018,-0.119 2.141,0.715 6.511,-2.768 6.662,-11.898 9.99,-17.841 2.244,0.851 2.843,3.342 5.714,3.569 7.185,-3.996 8.708,-13.654 15.697,-17.842 1.457,5.492 6.217,13.5 4.281,17.842 0.185,1.48 3.137,0.194 3.568,1.425 1.514,27.087 0.674,51.166 0.717,75.648 -6.648,-0.979 -7.228,-10.834 -11.418,-12.132 -3.892,-1.205 -3.635,4.164 -9.277,4.28 -3.407,-8.97 -2.146,-17.526 -4.285,-26.405 -9.036,-1.365 -10.579,10.143 -15.699,14.986 -1.855,-0.283 -2.154,-2.128 -4.285,-2.14 -7.113,6.606 -8.974,22.664 -19.983,24.266 -9.102,1.32 -11.522,-10.562 -19.983,-13.562 -6.141,2.431 -14.938,5.988 -16.412,10.706 -1.469,0.235 -7.797,3.453 -10.708,2.141 -8.063,-9.564 -17.329,-20.474 -27.831,-6.423 z"
           id="path115"
           inkscape:connector-curvature="0"
           style="clip-rule:evenodd;fill:#7f5312;fill-rule:evenodd" /><path
           d="m 155.529,329.423 c -4.289,-0.485 -2.624,4.985 -7.132,4.28 -8.595,-5.462 -5.661,-19.908 -7.138,-27.831 -5.799,3.956 -8.086,11.418 -13.558,15.701 -2.216,0.07 -3.412,-0.874 -4.997,-1.429 -4.214,9.88 -12.158,27.802 -25.692,23.552 -6.401,-2.012 -6.999,-10.316 -14.274,-12.848 -11.422,1.904 -13.202,13.438 -27.12,12.848 -5.649,-4.58 -9.206,-11.253 -15.698,-14.987 -5.258,1.405 -6.297,7.026 -11.418,8.562 -5.927,-5.491 -6.7,-16.139 -9.994,-24.265 -8.888,8.003 -10.672,23.109 -18.555,32.117 -4.522,-10.76 -0.332,-26.242 -0.712,-40.68 -1.134,-42.82 -0.84,-89.367 0,-135.594 9.938,14.906 36.782,-4.246 48.527,4.994 6.811,0.567 15.485,-5.104 21.409,-2.854 3.358,-0.026 3.168,3.494 5.712,4.284 13.938,-1.934 25.678,2.299 32.117,-7.139 12.913,-2.692 19.187,8.872 29.256,7.85 3.764,-0.38 7.237,-3.935 11.423,-4.28 2.529,-0.209 4.104,1.335 6.421,1.426 5.585,0.223 10.25,-3.959 16.414,-2.856 2.017,30.817 0.143,63.235 0.712,87.068 0.617,25.565 -0.764,50.782 0.717,76.36 0.275,4.79 1.225,8.023 -2.856,11.421 -5.278,-4.478 -10.36,-9.147 -13.564,-15.7 z m -99.2,8.564 c 2.911,1.312 9.239,-1.905 10.708,-2.141 1.474,-4.718 10.271,-8.275 16.412,-10.706 8.461,2.999 10.882,14.882 19.983,13.562 11.01,-1.602 12.87,-17.659 19.983,-24.266 2.131,0.012 2.43,1.856 4.285,2.14 5.12,-4.843 6.663,-16.351 15.699,-14.986 2.14,8.879 0.878,17.435 4.285,26.405 5.643,-0.116 5.386,-5.485 9.277,-4.28 4.19,1.298 4.77,11.152 11.418,12.132 -0.043,-24.482 0.797,-48.561 -0.717,-75.648 -0.432,-1.231 -3.384,0.055 -3.568,-1.425 1.936,-4.342 -2.824,-12.351 -4.281,-17.842 -6.989,4.188 -8.513,13.846 -15.697,17.842 -2.871,-0.227 -3.47,-2.718 -5.714,-3.569 -3.328,5.943 -3.479,15.074 -9.99,17.841 -0.123,-0.834 -1.13,-0.776 -2.141,-0.715 -1.514,-11.063 -3.421,-22.937 -12.846,-27.833 -7.84,2.865 -4.375,17.04 -11.423,20.696 -4.949,-4.086 -10.71,-7.365 -12.129,-14.987 -4.072,0.45 -4.489,4.553 -7.85,5.712 -4.498,-2.405 -1.257,-12.542 -6.425,-14.276 -5.795,15.853 -9.04,34.257 -24.264,40.68 -0.373,-1.057 -1.059,-1.801 -1.429,-2.854 4.743,-8.05 2.159,-14.336 1.429,-25.694 -6.665,4.04 -14.037,7.375 -17.844,14.273 -5.035,-1.386 -3.025,-9.818 -6.423,-12.843 -6.509,9.19 -8.129,23.271 -13.561,33.543 -2.13,-0.306 -2.954,-1.522 -3.568,-2.858 -4.819,-10.515 -2.045,-23.932 -1.424,-34.255 -4.802,2.335 -5.533,8.744 -8.565,12.847 3.346,17.345 -0.878,47.244 2.853,67.797 4.852,-7.974 7.887,-17.127 14.986,-24.265 6.596,4.822 6.461,16.381 10.71,23.55 10.505,-14.052 19.771,-3.142 27.831,6.423 z M 29.213,248.065 c 3.64,2.07 2.159,9.257 4.997,12.132 1.476,-3.868 3.427,-7.363 8.561,-5.708 2.667,-2.567 3.488,-6.981 7.85,-7.849 7.189,5.294 5.094,16.912 5.709,26.405 11.679,-8.831 11.479,-26.089 18.56,-38.539 5.296,1.841 6.435,7.834 8.561,12.845 2.624,-2.423 6.494,-2.413 9.277,-1.426 0.508,7.106 6.222,9.006 9.994,12.848 1.314,-9.867 4.997,-17.366 12.13,-21.411 7.535,7.215 12.395,17.104 15.703,28.545 3.027,-7.23 2.221,-13.924 9.989,-16.412 2.061,0.083 1.244,3.043 3.574,2.854 7.17,-4.722 8.438,-15.351 16.414,-19.271 3.968,2.931 4.172,9.624 7.133,13.562 0.679,-21.318 1.262,-44.799 0,-71.366 -8.353,3.908 -16.301,0.447 -23.547,2.14 -2.985,0.696 -5.5,3.278 -8.567,3.568 -10.393,0.979 -16.434,-10.105 -27.837,-7.851 -5.495,7.323 -12.062,5.226 -19.979,4.997 -3.675,-0.108 -8.186,2.459 -11.42,2.141 -4.736,-0.468 -7.241,-4.844 -11.418,-5.709 -8.131,-1.688 -17.727,8.555 -25.694,0.714 -14.55,0.99 -24.562,6.716 -37.109,2.14 -0.083,30.037 -0.909,48.576 -0.712,75.649 4.408,-2.489 3.094,-10.704 9.277,-11.421 1.927,14.423 -3.364,30.824 2.852,39.252 4.064,-12.112 6.847,-25.505 15.702,-32.829 z"
           id="path117"
           inkscape:connector-curvature="0"
           style="clip-rule:evenodd;fill-rule:evenodd" /></g><path
         d="m 166.122,177.032 c 1.731,-1.606 6.345,-5.729 9.125,-4.272 2.23,1.168 3.603,11.468 3.91,13.518 1.12,7.381 1.044,14.835 1.044,22.397 0,10.611 0.992,22.033 -0.968,32.308 -0.722,3.777 -0.858,6.945 -2.553,9.72 -0.698,1.146 -2.861,2.877 -3.764,4.074 -6.363,-9.195 -10.416,-21.531 -12.134,-32.658 -1.386,-8.969 -2.42,-21.457 1.457,-29.903 1.371,-2.992 3.407,-6.22 3.882,-9.361 0.332,-2.185 -0.152,-4.292 0.488,-6.309"
         id="path119"
         inkscape:connector-curvature="0"
         style="clip-rule:evenodd;fill:#68b42e;fill-rule:evenodd" /><path
         d="m 3.972,178.973 c -3.397,-1.171 -5.073,-3.528 -9.14,-2.84 -1.898,4.08 -1.059,9.461 -1.059,13.81 0.01,11.49 -0.968,22.86 -0.968,34.338 0,10.918 1.834,20.466 3.469,30.836 2.961,-0.137 5.515,-5.896 7.199,-8.166 2.311,-3.114 3.523,-5.32 4.247,-9.181 1.187,-6.343 2.919,-16.184 2.581,-22.523 -0.249,-4.71 -2.875,-7.874 -4.256,-12.333 -1.633,-5.271 -0.478,-8.095 -0.081,-13.226 0.372,-4.884 -1.993,-7.438 -3.45,-11.687"
         id="path121"
         inkscape:connector-curvature="0"
         style="clip-rule:evenodd;fill:#68b42e;fill-rule:evenodd" /><path
         d="m 165.153,261.019 c 2.363,-1.039 4.746,-3.242 7.684,-2.828 4.564,15.617 7.384,32.658 7.364,49.044 -0.009,5.879 2.307,26.175 -2.524,29.938 -2.491,1.941 -5.002,-1.061 -8.072,-1.474 -0.664,-2.468 -2.496,-4.348 -3.606,-6.767 -3.16,-6.903 -3.559,-15.912 -4.242,-23.491 -0.659,-7.237 -2.188,-45.443 4.262,-43.51 0.289,-1.415 0.916,-0.671 2.045,-0.913"
         id="path123"
         inkscape:connector-curvature="0"
         style="clip-rule:evenodd;fill:#7f5312;fill-rule:evenodd" /><path
         d="m -10.595,273.155 c 2.544,-2.064 4.899,-3.526 7.403,-5.705 2.066,-1.797 4.539,-5.728 7.078,-6.367 0.775,12.357 -2.247,25.7 0.545,37.831 1.102,4.781 3.427,8.739 2.938,14.05 -0.387,4.197 -2.192,7.231 -3.412,11.153 -0.996,3.192 -0.56,7.953 -3.383,9.748 -3.384,2.151 -8.021,0.058 -9.845,-3.046 -2.859,-4.867 -3.784,-13.299 -4.235,-18.722 -0.968,-11.664 -0.971,-21.838 2.073,-33.162 0.612,-2.273 1.334,-4.497 1.882,-6.678 0.605,-0.103 1.246,-0.13 1.87,-0.074"
         id="path125"
         inkscape:connector-curvature="0"
         style="clip-rule:evenodd;fill:#7f5312;fill-rule:evenodd" /></g></g><g
     id="g127"
     transform="matrix(0.99953554,0,0,0.99953554,1.3892549e-7,1.3494843)"><defs
       id="defs129"><rect
         id="SVGID_9_"
         x="170.07899"
         y="170.07899"
         width="170.07899"
         height="170.08" /></defs><clipPath
       id="SVGID_10_"><use
         xlink:href="#SVGID_9_"
         overflow="visible"
         id="use133"
         style="overflow:visible"
         x="0"
         y="0"
         width="100%"
         height="100%" /></clipPath><g
       clip-path="url(#SVGID_10_)"
       id="g135"><g
         id="g137"><g
           id="g139"><path
             d="m 173.215,171.492 c 5.666,1.953 11.612,1.172 17.489,2.101 2.385,0.376 4.43,1.927 6.992,2.097 4.889,0.324 8.338,-2.613 13.295,-3.499 10.799,-1.927 22.147,-1.363 27.279,2.799 14.405,-3.926 27.443,-9.467 40.574,-3.499 1.346,0.991 1.267,3.397 2.1,4.898 16.073,-12.373 41.721,-1.358 59.459,-4.199 -0.69,9.602 0.8,19.282 0.702,28.681 -0.256,24.347 -2.74,48.234 -2.1,69.952 0.747,25.315 2.705,47.37 0,70.656 -4.522,0.095 -6.404,-2.453 -6.997,-6.297 -4.831,1.224 -8.26,3.682 -11.893,2.1 -5.044,-2.195 -2.239,-8.528 -5.595,-12.592 -8.243,3.604 -12.747,18.304 -23.785,12.592 -14.699,7.946 -22.845,-6.418 -37.077,-9.79 -6.8,4.387 -11.023,11.361 -18.885,14.685 -9.047,-0.168 -14.832,-5.593 -20.986,-10.49 -5.396,0.256 -9.221,4.838 -14.692,2.802 -3.17,-6.086 0.584,-13.66 -0.697,-21.692 -4.646,0.935 -4.224,6.086 -6.298,9.097 -5.187,7.531 -13.548,13.052 -17.489,21.685 -1.13,0.199 -1.203,-0.66 -2.098,-0.7 0.616,-58.129 1.69,-111.148 0.702,-171.387 z m 62.958,165.791 c 7.204,-4.451 11.064,-12.248 19.588,-15.387 11.315,4.553 22.382,17.824 37.076,10.492 2.698,0.786 3.229,1.651 6.295,0.7 5.664,-3.54 9.684,-14.431 16.79,-13.292 6.205,0.997 4.134,8.898 7.695,13.292 5.009,0.427 8.172,-4.219 12.592,-2.1 2.174,-21.514 -0.009,-43.715 1.397,-69.256 -1.753,-1.673 -2.342,1.77 -4.895,1.402 -3.104,-5.683 -11.015,-2.318 -16.09,-5.597 -1.815,6.58 -7.531,9.258 -9.792,15.39 -0.905,0.961 -3.042,0.693 -4.898,0.697 0.01,-3.687 -1.006,-8.8 -2.8,-12.589 -9.083,2.344 -5.097,17.753 -13.292,20.989 -5.161,-1.374 -6.739,-6.321 -10.492,-9.097 -6.107,4.15 -4.554,15.966 -16.09,14.692 -1.91,-5.611 3.044,-9.474 2.797,-15.392 -0.208,-5.066 -3.203,-10.407 -3.497,-16.089 -0.256,-4.988 1.476,-9.598 -1.397,-13.292 -8.049,4.812 -2.619,18.804 -10.495,23.785 -0.517,-1.115 -3.421,0.159 -2.8,-2.095 -3.112,0.149 -2.885,3.638 -6.292,3.498 -2.971,-4.494 -2.928,-12.001 -6.995,-15.39 -11.938,5.585 -8.164,27.576 -20.989,30.774 -2.242,-5.469 1.45,-18.028 -4.895,-22.382 -6.723,4.387 -3.191,14.863 -11.192,17.487 -4.072,-6.433 -2.812,-14.198 -9.095,-20.282 -4.938,-0.748 -6.9,1.49 -9.095,3.493 1.95,24.463 -1.704,45.357 0.702,72.758 4.352,-8.006 12.817,-11.904 15.385,-21.692 3.223,-1.68 5.299,-4.497 9.797,-4.895 4.235,6.49 -0.913,14.911 2.098,22.382 13.893,-8.541 20.034,6.177 32.879,6.996 z m 43.372,-71.354 c 1.701,3.666 2.111,8.618 6.997,9.097 3.397,-6.627 3.593,-16.457 11.189,-18.889 5.448,0.617 6.648,5.479 9.098,9.092 3.101,-3.421 5.913,-7.14 6.995,-12.587 3.399,-0.802 7.137,-0.389 9.792,2.095 2.982,-1.72 5.925,-1.331 9.095,0 -0.873,-2.119 3.711,-1.493 4.197,-4.195 0.984,-21.167 -0.548,-46.084 0.697,-72.754 -9.282,-0.7 -17.667,-2.521 -25.182,-2.797 -6.459,-0.237 -14.116,-1.045 -17.488,-0.701 -4.926,0.506 -8.509,7.296 -16.789,6.296 -2.368,-1.596 -4.062,-3.865 -4.9,-6.992 -14.675,-4.902 -25.841,5.675 -40.571,5.595 -0.242,-2.088 -2.116,-2.549 -3.497,-3.498 -12.809,-2.858 -23.035,5.041 -33.579,4.199 -5.971,-0.478 -11.005,-4.142 -18.19,-3.499 -3.065,31.688 -1.646,47.72 -0.697,79.747 10.07,-10.208 15.356,3.958 20.287,10.492 2.176,-4.589 3.628,-9.895 9.093,-11.192 7.289,1.345 5.476,11.778 8.399,17.49 3.424,-10.794 7.82,-20.622 16.087,-26.582 3.102,4.081 9.818,7.643 9.093,13.288 2.194,-2.731 5.772,-1.393 7.692,-1.393 1.016,-9.89 1.739,-17.838 10.497,-20.989 8.831,4.665 3.663,15.757 5.595,25.185 1.258,6.124 5.432,12.018 1.4,18.187 0.699,0 1.399,0 2.097,0 0.314,-7.567 4.782,-12.818 12.593,-14.695 z"
             id="path141"
             inkscape:connector-curvature="0"
             style="clip-rule:evenodd;fill-rule:evenodd" /><path
             d="m 203.294,330.286 c -3.011,-7.472 2.138,-15.893 -2.098,-22.382 -4.498,0.398 -6.574,3.215 -9.797,4.895 -2.567,9.788 -11.033,13.686 -15.385,21.692 -2.406,-27.401 1.248,-48.295 -0.702,-72.758 2.194,-2.002 4.157,-4.24 9.095,-3.493 6.283,6.084 5.022,13.85 9.095,20.282 8.001,-2.624 4.47,-13.1 11.192,-17.487 6.345,4.354 2.652,16.913 4.895,22.382 12.825,-3.198 9.052,-25.189 20.989,-30.774 4.067,3.388 4.024,10.896 6.995,15.39 3.407,0.14 3.18,-3.348 6.292,-3.498 -0.621,2.254 2.283,0.98 2.8,2.095 7.876,-4.98 2.446,-18.973 10.495,-23.785 2.873,3.694 1.142,8.305 1.397,13.292 0.294,5.683 3.289,11.023 3.497,16.089 0.247,5.918 -4.707,9.781 -2.797,15.392 11.536,1.274 9.982,-10.542 16.09,-14.692 3.753,2.776 5.331,7.723 10.492,9.097 8.195,-3.236 4.209,-18.645 13.292,-20.989 1.794,3.789 2.81,8.902 2.8,12.589 1.855,-0.004 3.993,0.264 4.898,-0.697 2.261,-6.131 7.977,-8.81 9.792,-15.39 5.075,3.279 12.986,-0.085 16.09,5.597 2.553,0.368 3.142,-3.075 4.895,-1.402 -1.406,25.541 0.776,47.742 -1.397,69.256 -4.42,-2.119 -7.583,2.527 -12.592,2.1 -3.562,-4.395 -1.49,-12.296 -7.695,-13.292 -7.105,-1.139 -11.125,9.752 -16.79,13.292 -3.065,0.951 -3.597,0.085 -6.295,-0.7 -14.694,7.332 -25.761,-5.939 -37.076,-10.492 -8.523,3.139 -12.384,10.936 -19.588,15.387 -12.845,-0.818 -18.986,-15.536 -32.879,-6.996 z"
             id="path143"
             inkscape:connector-curvature="0"
             style="clip-rule:evenodd;fill:#7f5312;fill-rule:evenodd" /><path
             d="m 266.953,280.622 c -0.697,0 -1.397,0 -2.097,0 4.031,-6.169 -0.143,-12.063 -1.4,-18.187 -1.932,-9.427 3.236,-20.52 -5.595,-25.185 -8.758,3.151 -9.481,11.1 -10.497,20.989 -1.92,0 -5.498,-1.338 -7.692,1.393 0.726,-5.645 -5.991,-9.207 -9.093,-13.288 -8.267,5.96 -12.663,15.788 -16.087,26.582 -2.924,-5.711 -1.11,-16.145 -8.399,-17.49 -5.465,1.298 -6.917,6.604 -9.093,11.192 -4.931,-6.535 -10.217,-20.7 -20.287,-10.492 -0.949,-32.027 -2.368,-48.059 0.697,-79.747 7.186,-0.643 12.22,3.021 18.19,3.499 10.544,0.842 20.771,-7.057 33.579,-4.199 1.381,0.948 3.255,1.41 3.497,3.498 14.73,0.081 25.896,-10.497 40.571,-5.595 0.838,3.127 2.532,5.396 4.9,6.992 8.28,1 11.863,-5.79 16.789,-6.296 3.372,-0.344 11.028,0.464 17.488,0.701 7.515,0.276 15.899,2.098 25.182,2.797 -1.245,26.67 0.287,51.587 -0.697,72.754 -0.486,2.703 -5.07,2.076 -4.197,4.195 -3.17,-1.331 -6.112,-1.72 -9.095,0 -2.655,-2.484 -6.393,-2.897 -9.792,-2.095 -1.082,5.448 -3.895,9.166 -6.995,12.587 -2.45,-3.614 -3.65,-8.476 -9.098,-9.092 -7.597,2.432 -7.792,12.262 -11.189,18.889 -4.886,-0.479 -5.296,-5.431 -6.997,-9.097 -7.812,1.879 -12.28,7.13 -12.593,14.695 z"
             id="path145"
             inkscape:connector-curvature="0"
             style="clip-rule:evenodd;fill:#68b42e;fill-rule:evenodd" /></g><path
           d="m 332.646,178.808 c 3.64,-0.026 6.962,-3.65 10.101,-3.053 -0.218,2.405 1.025,4.585 1.367,6.955 0.875,6.086 0.472,12.64 0.757,18.8 0.304,6.598 0.845,12.902 2.166,19.409 0.785,3.871 0.909,5.511 0.017,9.199 -1.447,6 -1.57,16.501 -7.583,20.089 -1.692,1.011 -3.495,1.227 -5.586,1.163 -7.03,-0.213 -8.821,-14.91 -9.263,-20.37 -1.49,-18.536 9.232,-35.626 9.543,-53.939 0.413,0.766 0.313,1.452 0.327,2.362"
           id="path147"
           inkscape:connector-curvature="0"
           style="clip-rule:evenodd;fill:#68b42e;fill-rule:evenodd" /><path
           d="m 178.292,177.271 c -1.841,-0.471 -5.801,-4.307 -8.323,-2.483 -0.989,0.714 -1.595,6.732 -1.841,7.914 -1.436,6.867 -2.838,14.231 -3.609,21.194 -0.757,6.806 -1.08,14.503 -0.408,21.344 0.491,4.971 2.47,10.077 3.505,15.017 0.953,4.572 1.478,8.653 1.761,13.287 0.118,1.941 0.203,4.855 1.843,6.167 1.436,-1.792 3.604,-2.854 5.005,-4.575 1.713,-2.1 2.838,-5.403 3.822,-7.925 2.01,-5.146 2.088,-10.597 3.089,-15.977 0.956,-5.127 2.096,-10.217 2.95,-15.364 0.545,-3.291 0.553,-3.783 -0.546,-6.952 -1.661,-4.786 -2.046,-9.51 -2.02,-14.54 0.021,-4.182 -0.681,-5.563 -2.159,-9.051 -1.155,-2.731 -1.419,-6.111 -3.991,-8.057"
           id="path149"
           inkscape:connector-curvature="0"
           style="clip-rule:evenodd;fill:#68b42e;fill-rule:evenodd" /><path
           d="m 166.609,268.283 c 2.35,-1.787 8.889,-8.264 11.39,-5.547 0.888,0.961 0.574,5.844 0.607,7.011 0.123,4.273 -0.007,8.573 -0.007,12.851 0,7.042 0,14.084 0,21.127 0,6.743 1.497,13.833 0.614,20.517 -0.389,2.963 -4.886,7.875 -4.043,10.376 -3.64,1.616 -7.128,4.323 -9.169,-0.534 -2.467,-5.866 -1.383,-14.201 -1.561,-20.399 -0.133,-4.574 -0.133,-9.135 -0.295,-13.681 -0.236,-6.741 1.739,-13.411 2.222,-20.1 0.201,-2.769 -0.854,-10.666 1.471,-12.236"
           id="path151"
           inkscape:connector-curvature="0"
           style="clip-rule:evenodd;fill:#7f5312;fill-rule:evenodd" /><path
           d="m 177.676,330.701 c -0.65,4.456 -6.886,6.165 -10.713,5.794 -0.235,-4.568 1.677,-8.184 6.347,-9.109 4.395,-0.871 3.422,1.35 4.982,3.929"
           id="path153"
           inkscape:connector-curvature="0"
           style="clip-rule:evenodd;fill:#7f5312;fill-rule:evenodd" /><path
           d="m 335.721,261.825 c 1.665,-0.949 2.771,-2.762 4.869,-2.413 3.521,4.629 2.78,13.755 2.818,19.457 0.053,8.542 0.086,17.024 0.612,25.479 0.555,8.867 1.092,19.613 -0.114,28.458 -3.568,0.235 -3.59,0.408 -6.418,-1.72 -3.95,-2.968 -4.793,-7.545 -5.531,-13.29 -1.018,-7.899 -0.312,-16.4 0.456,-24.294 0.634,-6.48 1.898,-12.979 2.382,-19.421 0.28,-3.732 -0.173,-7.557 0.058,-11.277 0.968,-0.311 0.932,-0.885 1.482,-1.592"
           id="path155"
           inkscape:connector-curvature="0"
           style="clip-rule:evenodd;fill:#7f5312;fill-rule:evenodd" /></g><path
         d="m 177.061,176.039 c -3.708,0.125 -6.532,-1.489 -10.029,-1.584 -0.156,-0.798 0.189,-2.426 0.797,-3.021 1.628,-1.592 0.936,-0.222 2.693,0.077 1.104,0.187 2.974,-0.152 4.093,0.208 0.942,0.301 1.485,1.546 2.708,1.913 0.05,0.691 0.225,1.718 0.045,2.407"
         id="path157"
         inkscape:connector-curvature="0"
         style="clip-rule:evenodd;fill-rule:evenodd" /><path
         d="m 178.905,255.06 c -2.619,-0.605 -4.707,2.166 -6.762,3.383 -3.102,1.834 -5.026,3.488 -7.026,6.378 0.458,0.306 0.601,0.553 1.13,0.748 -0.05,0.389 0.033,1.032 0.1,1.438 2.119,0.631 6.101,-3.052 7.87,-4.337 2.038,-1.476 6.411,-4.826 4.076,-7.609"
         id="path159"
         inkscape:connector-curvature="0"
         style="clip-rule:evenodd;fill-rule:evenodd" /><path
         d="m 177.676,332.238 c -0.347,3.082 -6.924,3.436 -9.169,4.439 -1.575,0.707 -3.905,2.269 -4.292,3.787 -0.365,1.442 0.432,6.769 1.146,8.126 2.15,-1.26 5.301,-1.822 7.313,-3.808 2.337,-2.311 5.206,-7.529 5.263,-10.962 -0.498,0.05 -0.788,-0.29 -1.182,-0.354"
         id="path161"
         inkscape:connector-curvature="0"
         style="clip-rule:evenodd;fill-rule:evenodd" /><path
         d="m 338.796,176.348 c 3.163,0.332 5.445,-1.449 8.561,-1.585 1.2,-7.116 -7.019,-2.402 -9.438,-1.753 -0.043,1.271 0.986,2.313 1.492,3.339"
         id="path163"
         inkscape:connector-curvature="0"
         style="clip-rule:evenodd;fill-rule:evenodd" /><path
         d="m 330.185,254.445 c 2.679,-0.828 5.282,-1.599 7.463,-3.322 1.829,-1.447 3.552,-4.824 5.405,-5.884 0.36,2.263 -0.506,4.235 -0.269,6.548 0.221,2.155 1.454,4.11 1.497,6.302 -2.641,0.273 -4.717,2.242 -7.324,2.513 -4.691,0.486 -2.366,-3.187 -4.273,-6.157 0.309,-0.356 0.892,-1.177 1.205,-1.445 -0.062,1.542 -1.509,2.546 -3.042,2.32 -0.06,-0.46 -0.118,-1.018 -0.047,-1.49"
         id="path165"
         inkscape:connector-curvature="0"
         style="clip-rule:evenodd;fill-rule:evenodd" /><path
         d="m 337.258,331.007 c 2.204,0.98 4.896,0.534 7.332,0.662 0.322,2.209 -0.078,5.472 -0.569,7.64 -0.745,3.3 -2.254,2.603 -5.794,2.413 -0.214,-2.031 -1.885,-8.523 0.261,-9.484"
         id="path167"
         inkscape:connector-curvature="0"
         style="clip-rule:evenodd;fill-rule:evenodd" /></g></g></svg>